<svg xmlns="http://www.w3.org/2000/svg" xmlns:xlink="http://www.w3.org/1999/xlink" width="150" zoomAndPan="magnify" viewBox="0 0 112.5 30.000001" height="40" preserveAspectRatio="xMidYMid meet" version="1.0"><defs><g/><clipPath id="0d295e3b0a"><rect x="0" width="79" y="0" height="13"/></clipPath><clipPath id="f0bbb4e01f"><path d="M 8.535156 5.746094 L 25.953125 5.746094 L 25.953125 23.164062 L 8.535156 23.164062 Z M 8.535156 5.746094 " clip-rule="nonzero"/></clipPath></defs><g transform="matrix(1, 0, 0, 1, 28, 7)"><g clip-path="url(#0d295e3b0a)"><g fill="#545454" fill-opacity="1"><g transform="translate(1.120968, 9.370964)"><g><path d="M 3.015625 0.078125 C 2.503906 0.078125 2.054688 -0.0234375 1.671875 -0.234375 C 1.285156 -0.453125 0.984375 -0.769531 0.765625 -1.1875 C 0.546875 -1.613281 0.4375 -2.140625 0.4375 -2.765625 C 0.4375 -3.378906 0.546875 -3.898438 0.765625 -4.328125 C 0.984375 -4.753906 1.285156 -5.070312 1.671875 -5.28125 C 2.054688 -5.488281 2.503906 -5.59375 3.015625 -5.59375 C 3.546875 -5.59375 3.992188 -5.488281 4.359375 -5.28125 C 4.734375 -5.082031 5.003906 -4.769531 5.171875 -4.34375 L 4.375 -3.859375 L 4.28125 -3.859375 C 4.15625 -4.140625 3.988281 -4.34375 3.78125 -4.46875 C 3.582031 -4.59375 3.328125 -4.65625 3.015625 -4.65625 C 2.554688 -4.65625 2.195312 -4.503906 1.9375 -4.203125 C 1.6875 -3.898438 1.5625 -3.421875 1.5625 -2.765625 C 1.5625 -2.109375 1.6875 -1.625 1.9375 -1.3125 C 2.195312 -1.007812 2.554688 -0.859375 3.015625 -0.859375 C 3.734375 -0.859375 4.171875 -1.207031 4.328125 -1.90625 L 4.4375 -1.90625 L 5.234375 -1.484375 C 5.078125 -0.960938 4.816406 -0.570312 4.453125 -0.3125 C 4.085938 -0.0507812 3.609375 0.078125 3.015625 0.078125 Z M 3.015625 0.078125 "/></g></g><g transform="translate(6.541835, 9.370964)"><g><path d="M 1.90625 0.078125 C 1.4375 0.078125 1.085938 -0.046875 0.859375 -0.296875 C 0.640625 -0.554688 0.53125 -0.925781 0.53125 -1.40625 L 0.53125 -4.171875 L 1.578125 -4.171875 L 1.578125 -1.53125 C 1.578125 -1.28125 1.628906 -1.09375 1.734375 -0.96875 C 1.847656 -0.851562 2.019531 -0.796875 2.25 -0.796875 C 2.539062 -0.796875 2.765625 -0.890625 2.921875 -1.078125 C 3.085938 -1.273438 3.171875 -1.578125 3.171875 -1.984375 L 3.171875 -4.171875 L 4.21875 -4.171875 L 4.21875 0 L 3.21875 0 L 3.21875 -0.609375 L 3.140625 -0.625 C 3.003906 -0.382812 2.835938 -0.207031 2.640625 -0.09375 C 2.453125 0.0195312 2.207031 0.078125 1.90625 0.078125 Z M 1.90625 0.078125 "/></g></g><g transform="translate(11.365424, 9.370964)"><g><path d="M 1.953125 0.078125 C 1.660156 0.078125 1.394531 0.046875 1.15625 -0.015625 C 0.925781 -0.0859375 0.726562 -0.179688 0.5625 -0.296875 C 0.394531 -0.410156 0.269531 -0.546875 0.1875 -0.703125 L 0.765625 -1.328125 L 0.84375 -1.328125 C 0.988281 -1.140625 1.15625 -1 1.34375 -0.90625 C 1.53125 -0.8125 1.734375 -0.765625 1.953125 -0.765625 C 2.160156 -0.765625 2.316406 -0.800781 2.421875 -0.875 C 2.523438 -0.945312 2.578125 -1.050781 2.578125 -1.1875 C 2.578125 -1.289062 2.535156 -1.378906 2.453125 -1.453125 C 2.378906 -1.523438 2.257812 -1.582031 2.09375 -1.625 L 1.546875 -1.75 C 1.128906 -1.851562 0.828125 -2.003906 0.640625 -2.203125 C 0.453125 -2.410156 0.359375 -2.671875 0.359375 -2.984375 C 0.359375 -3.242188 0.421875 -3.46875 0.546875 -3.65625 C 0.679688 -3.84375 0.867188 -3.988281 1.109375 -4.09375 C 1.359375 -4.195312 1.640625 -4.25 1.953125 -4.25 C 2.328125 -4.25 2.640625 -4.191406 2.890625 -4.078125 C 3.140625 -3.972656 3.332031 -3.828125 3.46875 -3.640625 L 2.90625 -3.046875 L 2.828125 -3.046875 C 2.710938 -3.171875 2.582031 -3.265625 2.4375 -3.328125 C 2.289062 -3.390625 2.128906 -3.421875 1.953125 -3.421875 C 1.546875 -3.421875 1.34375 -3.289062 1.34375 -3.03125 C 1.34375 -2.925781 1.378906 -2.835938 1.453125 -2.765625 C 1.523438 -2.703125 1.660156 -2.648438 1.859375 -2.609375 L 2.375 -2.5 C 2.789062 -2.40625 3.097656 -2.253906 3.296875 -2.046875 C 3.492188 -1.847656 3.59375 -1.582031 3.59375 -1.25 C 3.59375 -0.988281 3.523438 -0.753906 3.390625 -0.546875 C 3.265625 -0.347656 3.078125 -0.191406 2.828125 -0.078125 C 2.578125 0.0234375 2.285156 0.078125 1.953125 0.078125 Z M 1.953125 0.078125 "/></g></g><g transform="translate(15.20993, 9.370964)"><g><path d="M 2.875 -1 L 3.140625 -0.21875 C 3.023438 -0.125 2.882812 -0.0507812 2.71875 0 C 2.550781 0.0507812 2.359375 0.078125 2.140625 0.078125 C 1.691406 0.078125 1.347656 -0.0390625 1.109375 -0.28125 C 0.878906 -0.53125 0.765625 -0.890625 0.765625 -1.359375 L 0.765625 -3.34375 L 0.125 -3.34375 L 0.125 -4.171875 L 0.765625 -4.171875 L 0.765625 -4.984375 L 1.8125 -5.15625 L 1.8125 -4.171875 L 2.984375 -4.171875 L 2.984375 -3.34375 L 1.8125 -3.34375 L 1.8125 -1.4375 C 1.8125 -1.226562 1.851562 -1.078125 1.9375 -0.984375 C 2.019531 -0.890625 2.144531 -0.84375 2.3125 -0.84375 C 2.5 -0.84375 2.660156 -0.894531 2.796875 -1 Z M 2.875 -1 "/></g></g><g transform="translate(18.449597, 9.370964)"><g><path d="M 2.421875 0.078125 C 2.015625 0.078125 1.65625 -0.00390625 1.34375 -0.171875 C 1.039062 -0.335938 0.800781 -0.582031 0.625 -0.90625 C 0.457031 -1.226562 0.375 -1.617188 0.375 -2.078125 C 0.375 -2.535156 0.457031 -2.925781 0.625 -3.25 C 0.800781 -3.582031 1.039062 -3.832031 1.34375 -4 C 1.65625 -4.164062 2.015625 -4.25 2.421875 -4.25 C 2.828125 -4.25 3.179688 -4.164062 3.484375 -4 C 3.796875 -3.832031 4.035156 -3.582031 4.203125 -3.25 C 4.378906 -2.925781 4.46875 -2.535156 4.46875 -2.078125 C 4.46875 -1.617188 4.378906 -1.226562 4.203125 -0.90625 C 4.035156 -0.582031 3.796875 -0.335938 3.484375 -0.171875 C 3.179688 -0.00390625 2.828125 0.078125 2.421875 0.078125 Z M 2.421875 -0.8125 C 3.066406 -0.8125 3.390625 -1.234375 3.390625 -2.078125 C 3.390625 -2.515625 3.304688 -2.835938 3.140625 -3.046875 C 2.972656 -3.253906 2.734375 -3.359375 2.421875 -3.359375 C 1.773438 -3.359375 1.453125 -2.929688 1.453125 -2.078125 C 1.453125 -1.234375 1.773438 -0.8125 2.421875 -0.8125 Z M 2.421875 -0.8125 "/></g></g><g transform="translate(23.295867, 9.370964)"><g><path d="M 0.59375 0 L 0.59375 -4.171875 L 1.609375 -4.171875 L 1.609375 -3.609375 L 1.6875 -3.59375 C 1.820312 -3.8125 1.976562 -3.972656 2.15625 -4.078125 C 2.34375 -4.191406 2.578125 -4.25 2.859375 -4.25 C 3.171875 -4.25 3.421875 -4.1875 3.609375 -4.0625 C 3.804688 -3.9375 3.953125 -3.753906 4.046875 -3.515625 L 4.125 -3.515625 C 4.25 -3.765625 4.410156 -3.945312 4.609375 -4.0625 C 4.816406 -4.1875 5.070312 -4.25 5.375 -4.25 C 6.238281 -4.25 6.671875 -3.765625 6.671875 -2.796875 L 6.671875 0 L 5.625 0 L 5.625 -2.671875 C 5.625 -2.910156 5.578125 -3.082031 5.484375 -3.1875 C 5.390625 -3.300781 5.234375 -3.359375 5.015625 -3.359375 C 4.441406 -3.359375 4.15625 -2.972656 4.15625 -2.203125 L 4.15625 0 L 3.109375 0 L 3.109375 -2.671875 C 3.109375 -2.910156 3.0625 -3.082031 2.96875 -3.1875 C 2.875 -3.300781 2.71875 -3.359375 2.5 -3.359375 C 2.226562 -3.359375 2.015625 -3.269531 1.859375 -3.09375 C 1.710938 -2.914062 1.640625 -2.628906 1.640625 -2.234375 L 1.640625 0 Z M 0.59375 0 "/></g></g><g transform="translate(30.508569, 9.370964)"><g/></g><g transform="translate(32.334426, 9.370964)"><g><path d="M 5.296875 0 L 4.15625 0 L 3.734375 -1.265625 L 1.625 -1.265625 L 1.203125 0 L 0.078125 0 L 1.984375 -5.515625 L 3.390625 -5.515625 Z M 2.625 -4.375 L 1.921875 -2.1875 L 3.4375 -2.1875 L 2.71875 -4.375 Z M 2.625 -4.375 "/></g></g><g transform="translate(37.721271, 9.370964)"><g><path d="M 1.125 -4.65625 C 0.9375 -4.65625 0.78125 -4.710938 0.65625 -4.828125 C 0.539062 -4.941406 0.484375 -5.09375 0.484375 -5.28125 C 0.484375 -5.457031 0.539062 -5.601562 0.65625 -5.71875 C 0.78125 -5.832031 0.9375 -5.890625 1.125 -5.890625 C 1.25 -5.890625 1.359375 -5.863281 1.453125 -5.8125 C 1.554688 -5.757812 1.632812 -5.6875 1.6875 -5.59375 C 1.738281 -5.5 1.765625 -5.394531 1.765625 -5.28125 C 1.765625 -5.164062 1.738281 -5.0625 1.6875 -4.96875 C 1.632812 -4.875 1.554688 -4.796875 1.453125 -4.734375 C 1.359375 -4.679688 1.25 -4.65625 1.125 -4.65625 Z M 0.59375 0 L 0.59375 -4.171875 L 1.640625 -4.171875 L 1.640625 0 Z M 0.59375 0 "/></g></g><g transform="translate(39.966735, 9.370964)"><g/></g><g transform="translate(41.792592, 9.370964)"><g><path d="M 2.453125 0.078125 C 2.066406 0.078125 1.722656 0.03125 1.421875 -0.0625 C 1.128906 -0.15625 0.878906 -0.28125 0.671875 -0.4375 C 0.472656 -0.59375 0.320312 -0.757812 0.21875 -0.9375 L 0.828125 -1.671875 L 0.921875 -1.671875 C 1.085938 -1.421875 1.296875 -1.222656 1.546875 -1.078125 C 1.804688 -0.929688 2.109375 -0.859375 2.453125 -0.859375 C 2.742188 -0.859375 2.960938 -0.921875 3.109375 -1.046875 C 3.253906 -1.171875 3.328125 -1.34375 3.328125 -1.5625 C 3.328125 -1.6875 3.300781 -1.789062 3.25 -1.875 C 3.207031 -1.96875 3.128906 -2.046875 3.015625 -2.109375 C 2.910156 -2.171875 2.765625 -2.226562 2.578125 -2.28125 L 1.859375 -2.4375 C 1.367188 -2.550781 1 -2.738281 0.75 -3 C 0.507812 -3.269531 0.390625 -3.613281 0.390625 -4.03125 C 0.390625 -4.34375 0.46875 -4.613281 0.625 -4.84375 C 0.78125 -5.082031 1.003906 -5.265625 1.296875 -5.390625 C 1.597656 -5.523438 1.957031 -5.59375 2.375 -5.59375 C 2.800781 -5.59375 3.164062 -5.535156 3.46875 -5.421875 C 3.769531 -5.316406 4.023438 -5.148438 4.234375 -4.921875 L 3.703125 -4.171875 L 3.609375 -4.171875 C 3.453125 -4.335938 3.269531 -4.460938 3.0625 -4.546875 C 2.863281 -4.628906 2.632812 -4.671875 2.375 -4.671875 C 2.070312 -4.671875 1.84375 -4.613281 1.6875 -4.5 C 1.53125 -4.394531 1.453125 -4.253906 1.453125 -4.078125 C 1.453125 -3.898438 1.503906 -3.757812 1.609375 -3.65625 C 1.722656 -3.550781 1.914062 -3.46875 2.1875 -3.40625 L 2.921875 -3.265625 C 3.453125 -3.148438 3.835938 -2.957031 4.078125 -2.6875 C 4.316406 -2.414062 4.4375 -2.0625 4.4375 -1.625 C 4.4375 -1.28125 4.363281 -0.976562 4.21875 -0.71875 C 4.070312 -0.46875 3.847656 -0.269531 3.546875 -0.125 C 3.242188 0.0078125 2.878906 0.078125 2.453125 0.078125 Z M 2.453125 0.078125 "/></g></g><g transform="translate(46.540576, 9.370964)"><g><path d="M 2.421875 0.078125 C 2.015625 0.078125 1.65625 -0.00390625 1.34375 -0.171875 C 1.039062 -0.335938 0.800781 -0.582031 0.625 -0.90625 C 0.457031 -1.226562 0.375 -1.617188 0.375 -2.078125 C 0.375 -2.535156 0.457031 -2.925781 0.625 -3.25 C 0.800781 -3.582031 1.039062 -3.832031 1.34375 -4 C 1.65625 -4.164062 2.015625 -4.25 2.421875 -4.25 C 2.828125 -4.25 3.179688 -4.164062 3.484375 -4 C 3.796875 -3.832031 4.035156 -3.582031 4.203125 -3.25 C 4.378906 -2.925781 4.46875 -2.535156 4.46875 -2.078125 C 4.46875 -1.617188 4.378906 -1.226562 4.203125 -0.90625 C 4.035156 -0.582031 3.796875 -0.335938 3.484375 -0.171875 C 3.179688 -0.00390625 2.828125 0.078125 2.421875 0.078125 Z M 2.421875 -0.8125 C 3.066406 -0.8125 3.390625 -1.234375 3.390625 -2.078125 C 3.390625 -2.515625 3.304688 -2.835938 3.140625 -3.046875 C 2.972656 -3.253906 2.734375 -3.359375 2.421875 -3.359375 C 1.773438 -3.359375 1.453125 -2.929688 1.453125 -2.078125 C 1.453125 -1.234375 1.773438 -0.8125 2.421875 -0.8125 Z M 2.421875 -0.8125 "/></g></g><g transform="translate(51.386846, 9.370964)"><g><path d="M 1.734375 0.078125 C 1.359375 0.078125 1.070312 -0.0195312 0.875 -0.21875 C 0.675781 -0.425781 0.578125 -0.734375 0.578125 -1.140625 L 0.578125 -5.84375 L 1.625 -5.84375 L 1.625 -1.1875 C 1.625 -0.9375 1.726562 -0.8125 1.9375 -0.8125 C 2 -0.8125 2.0625 -0.820312 2.125 -0.84375 L 2.1875 -0.828125 L 2.28125 -0.015625 C 2.21875 0.015625 2.140625 0.0351562 2.046875 0.046875 C 1.953125 0.0664062 1.847656 0.078125 1.734375 0.078125 Z M 1.734375 0.078125 "/></g></g><g transform="translate(53.78352, 9.370964)"><g><path d="M 1.90625 0.078125 C 1.4375 0.078125 1.085938 -0.046875 0.859375 -0.296875 C 0.640625 -0.554688 0.53125 -0.925781 0.53125 -1.40625 L 0.53125 -4.171875 L 1.578125 -4.171875 L 1.578125 -1.53125 C 1.578125 -1.28125 1.628906 -1.09375 1.734375 -0.96875 C 1.847656 -0.851562 2.019531 -0.796875 2.25 -0.796875 C 2.539062 -0.796875 2.765625 -0.890625 2.921875 -1.078125 C 3.085938 -1.273438 3.171875 -1.578125 3.171875 -1.984375 L 3.171875 -4.171875 L 4.21875 -4.171875 L 4.21875 0 L 3.21875 0 L 3.21875 -0.609375 L 3.140625 -0.625 C 3.003906 -0.382812 2.835938 -0.207031 2.640625 -0.09375 C 2.453125 0.0195312 2.207031 0.078125 1.90625 0.078125 Z M 1.90625 0.078125 "/></g></g><g transform="translate(58.607109, 9.370964)"><g><path d="M 2.875 -1 L 3.140625 -0.21875 C 3.023438 -0.125 2.882812 -0.0507812 2.71875 0 C 2.550781 0.0507812 2.359375 0.078125 2.140625 0.078125 C 1.691406 0.078125 1.347656 -0.0390625 1.109375 -0.28125 C 0.878906 -0.53125 0.765625 -0.890625 0.765625 -1.359375 L 0.765625 -3.34375 L 0.125 -3.34375 L 0.125 -4.171875 L 0.765625 -4.171875 L 0.765625 -4.984375 L 1.8125 -5.15625 L 1.8125 -4.171875 L 2.984375 -4.171875 L 2.984375 -3.34375 L 1.8125 -3.34375 L 1.8125 -1.4375 C 1.8125 -1.226562 1.851562 -1.078125 1.9375 -0.984375 C 2.019531 -0.890625 2.144531 -0.84375 2.3125 -0.84375 C 2.5 -0.84375 2.660156 -0.894531 2.796875 -1 Z M 2.875 -1 "/></g></g><g transform="translate(61.846776, 9.370964)"><g><path d="M 1.125 -4.65625 C 0.9375 -4.65625 0.78125 -4.710938 0.65625 -4.828125 C 0.539062 -4.941406 0.484375 -5.09375 0.484375 -5.28125 C 0.484375 -5.457031 0.539062 -5.601562 0.65625 -5.71875 C 0.78125 -5.832031 0.9375 -5.890625 1.125 -5.890625 C 1.25 -5.890625 1.359375 -5.863281 1.453125 -5.8125 C 1.554688 -5.757812 1.632812 -5.6875 1.6875 -5.59375 C 1.738281 -5.5 1.765625 -5.394531 1.765625 -5.28125 C 1.765625 -5.164062 1.738281 -5.0625 1.6875 -4.96875 C 1.632812 -4.875 1.554688 -4.796875 1.453125 -4.734375 C 1.359375 -4.679688 1.25 -4.65625 1.125 -4.65625 Z M 0.59375 0 L 0.59375 -4.171875 L 1.640625 -4.171875 L 1.640625 0 Z M 0.59375 0 "/></g></g><g transform="translate(64.09224, 9.370964)"><g><path d="M 2.421875 0.078125 C 2.015625 0.078125 1.65625 -0.00390625 1.34375 -0.171875 C 1.039062 -0.335938 0.800781 -0.582031 0.625 -0.90625 C 0.457031 -1.226562 0.375 -1.617188 0.375 -2.078125 C 0.375 -2.535156 0.457031 -2.925781 0.625 -3.25 C 0.800781 -3.582031 1.039062 -3.832031 1.34375 -4 C 1.65625 -4.164062 2.015625 -4.25 2.421875 -4.25 C 2.828125 -4.25 3.179688 -4.164062 3.484375 -4 C 3.796875 -3.832031 4.035156 -3.582031 4.203125 -3.25 C 4.378906 -2.925781 4.46875 -2.535156 4.46875 -2.078125 C 4.46875 -1.617188 4.378906 -1.226562 4.203125 -0.90625 C 4.035156 -0.582031 3.796875 -0.335938 3.484375 -0.171875 C 3.179688 -0.00390625 2.828125 0.078125 2.421875 0.078125 Z M 2.421875 -0.8125 C 3.066406 -0.8125 3.390625 -1.234375 3.390625 -2.078125 C 3.390625 -2.515625 3.304688 -2.835938 3.140625 -3.046875 C 2.972656 -3.253906 2.734375 -3.359375 2.421875 -3.359375 C 1.773438 -3.359375 1.453125 -2.929688 1.453125 -2.078125 C 1.453125 -1.234375 1.773438 -0.8125 2.421875 -0.8125 Z M 2.421875 -0.8125 "/></g></g><g transform="translate(68.93851, 9.370964)"><g><path d="M 0.59375 0 L 0.59375 -4.171875 L 1.609375 -4.171875 L 1.609375 -3.546875 L 1.6875 -3.53125 C 1.945312 -4.007812 2.367188 -4.25 2.953125 -4.25 C 3.429688 -4.25 3.78125 -4.113281 4 -3.84375 C 4.226562 -3.582031 4.34375 -3.203125 4.34375 -2.703125 L 4.34375 0 L 3.296875 0 L 3.296875 -2.578125 C 3.296875 -2.859375 3.238281 -3.054688 3.125 -3.171875 C 3.019531 -3.296875 2.84375 -3.359375 2.59375 -3.359375 C 2.300781 -3.359375 2.066406 -3.257812 1.890625 -3.0625 C 1.722656 -2.875 1.640625 -2.570312 1.640625 -2.15625 L 1.640625 0 Z M 0.59375 0 "/></g></g><g transform="translate(73.822583, 9.370964)"><g><path d="M 1.953125 0.078125 C 1.660156 0.078125 1.394531 0.046875 1.15625 -0.015625 C 0.925781 -0.0859375 0.726562 -0.179688 0.5625 -0.296875 C 0.394531 -0.410156 0.269531 -0.546875 0.1875 -0.703125 L 0.765625 -1.328125 L 0.84375 -1.328125 C 0.988281 -1.140625 1.15625 -1 1.34375 -0.90625 C 1.53125 -0.8125 1.734375 -0.765625 1.953125 -0.765625 C 2.160156 -0.765625 2.316406 -0.800781 2.421875 -0.875 C 2.523438 -0.945312 2.578125 -1.050781 2.578125 -1.1875 C 2.578125 -1.289062 2.535156 -1.378906 2.453125 -1.453125 C 2.378906 -1.523438 2.257812 -1.582031 2.09375 -1.625 L 1.546875 -1.75 C 1.128906 -1.851562 0.828125 -2.003906 0.640625 -2.203125 C 0.453125 -2.410156 0.359375 -2.671875 0.359375 -2.984375 C 0.359375 -3.242188 0.421875 -3.46875 0.546875 -3.65625 C 0.679688 -3.84375 0.867188 -3.988281 1.109375 -4.09375 C 1.359375 -4.195312 1.640625 -4.25 1.953125 -4.25 C 2.328125 -4.25 2.640625 -4.191406 2.890625 -4.078125 C 3.140625 -3.972656 3.332031 -3.828125 3.46875 -3.640625 L 2.90625 -3.046875 L 2.828125 -3.046875 C 2.710938 -3.171875 2.582031 -3.265625 2.4375 -3.328125 C 2.289062 -3.390625 2.128906 -3.421875 1.953125 -3.421875 C 1.546875 -3.421875 1.34375 -3.289062 1.34375 -3.03125 C 1.34375 -2.925781 1.378906 -2.835938 1.453125 -2.765625 C 1.523438 -2.703125 1.660156 -2.648438 1.859375 -2.609375 L 2.375 -2.5 C 2.789062 -2.40625 3.097656 -2.253906 3.296875 -2.046875 C 3.492188 -1.847656 3.59375 -1.582031 3.59375 -1.25 C 3.59375 -0.988281 3.523438 -0.753906 3.390625 -0.546875 C 3.265625 -0.347656 3.078125 -0.191406 2.828125 -0.078125 C 2.578125 0.0234375 2.285156 0.078125 1.953125 0.078125 Z M 1.953125 0.078125 "/></g></g></g></g></g><g clip-path="url(#f0bbb4e01f)"><path fill="#545454" d="M 18.089844 18.042969 L 17.640625 18.042969 L 17.640625 16.191406 C 17.675781 16.191406 17.714844 16.195312 17.75 16.195312 C 18.679688 16.195312 19.433594 15.4375 19.433594 14.511719 C 19.433594 13.582031 18.679688 12.828125 17.75 12.828125 C 17.714844 12.828125 17.675781 12.832031 17.640625 12.832031 L 17.640625 10.980469 L 18.089844 10.980469 C 18.289062 10.980469 18.449219 11.140625 18.449219 11.339844 L 18.449219 11.554688 C 18.449219 11.738281 18.5625 11.902344 18.734375 11.964844 C 18.789062 11.984375 18.839844 12.007812 18.890625 12.03125 C 19.058594 12.105469 19.253906 12.070312 19.382812 11.941406 L 19.535156 11.789062 C 19.675781 11.648438 19.902344 11.648438 20.042969 11.789062 L 20.496094 12.242188 C 20.632812 12.378906 20.632812 12.605469 20.496094 12.746094 L 20.34375 12.898438 C 20.210938 13.027344 20.179688 13.226562 20.253906 13.394531 C 20.277344 13.445312 20.296875 13.496094 20.316406 13.546875 C 20.382812 13.71875 20.546875 13.832031 20.730469 13.832031 L 20.945312 13.832031 C 21.144531 13.832031 21.304688 13.992188 21.304688 14.191406 L 21.304688 14.832031 C 21.304688 15.027344 21.144531 15.1875 20.945312 15.1875 L 20.730469 15.1875 C 20.546875 15.1875 20.382812 15.304688 20.316406 15.472656 C 20.296875 15.527344 20.277344 15.578125 20.253906 15.628906 C 20.179688 15.796875 20.210938 15.992188 20.34375 16.125 L 20.496094 16.277344 C 20.632812 16.414062 20.632812 16.640625 20.496094 16.78125 L 20.042969 17.234375 C 19.902344 17.375 19.675781 17.375 19.535156 17.234375 L 19.382812 17.082031 C 19.253906 16.953125 19.058594 16.917969 18.890625 16.992188 C 18.839844 17.015625 18.789062 17.039062 18.734375 17.058594 C 18.5625 17.121094 18.449219 17.285156 18.449219 17.46875 L 18.449219 17.683594 C 18.449219 17.882812 18.289062 18.042969 18.089844 18.042969 Z M 19.058594 14.511719 C 19.058594 13.789062 18.472656 13.203125 17.75 13.203125 C 17.714844 13.203125 17.675781 13.203125 17.640625 13.207031 L 17.640625 15.816406 C 17.675781 15.820312 17.714844 15.820312 17.75 15.820312 C 18.472656 15.820312 19.058594 15.234375 19.058594 14.511719 Z M 18.996094 9.617188 L 20.222656 7.597656 C 20.28125 7.613281 20.34375 7.621094 20.40625 7.621094 C 20.785156 7.621094 21.09375 7.316406 21.09375 6.9375 C 21.09375 6.554688 20.785156 6.25 20.40625 6.25 C 20.027344 6.25 19.71875 6.554688 19.71875 6.9375 C 19.71875 7.117188 19.789062 7.28125 19.902344 7.402344 L 18.730469 9.335938 L 17.640625 9.335938 L 17.640625 9.707031 L 18.835938 9.707031 C 18.902344 9.707031 18.960938 9.671875 18.996094 9.617188 Z M 20.40625 21.398438 C 20.34375 21.398438 20.28125 21.410156 20.222656 21.425781 L 18.996094 19.40625 C 18.960938 19.347656 18.902344 19.316406 18.835938 19.316406 L 17.640625 19.316406 L 17.640625 19.6875 L 18.730469 19.6875 L 19.902344 21.621094 C 19.789062 21.742188 19.71875 21.90625 19.71875 22.085938 C 19.71875 22.464844 20.027344 22.773438 20.40625 22.773438 C 20.785156 22.773438 21.09375 22.464844 21.09375 22.085938 C 21.09375 21.707031 20.785156 21.398438 20.40625 21.398438 Z M 20.652344 11.871094 L 21.777344 10.746094 L 23.398438 10.746094 C 23.476562 11.035156 23.742188 11.25 24.058594 11.25 C 24.4375 11.25 24.746094 10.941406 24.746094 10.5625 C 24.746094 10.183594 24.4375 9.875 24.058594 9.875 C 23.742188 9.875 23.476562 10.085938 23.398438 10.375 L 21.699219 10.375 C 21.652344 10.375 21.605469 10.394531 21.570312 10.429688 L 20.390625 11.609375 Z M 24.058594 17.773438 C 23.742188 17.773438 23.476562 17.984375 23.398438 18.273438 L 21.777344 18.273438 L 20.652344 17.152344 L 20.390625 17.414062 L 21.570312 18.59375 C 21.605469 18.628906 21.652344 18.648438 21.699219 18.648438 L 23.398438 18.648438 C 23.476562 18.9375 23.742188 19.148438 24.058594 19.148438 C 24.4375 19.148438 24.746094 18.839844 24.746094 18.460938 C 24.746094 18.082031 24.4375 17.773438 24.058594 17.773438 Z M 25.5625 13.824219 C 25.246094 13.824219 24.984375 14.035156 24.902344 14.324219 L 21.675781 14.324219 L 21.675781 14.699219 L 24.902344 14.699219 C 24.984375 14.988281 25.246094 15.199219 25.5625 15.199219 C 25.941406 15.199219 26.25 14.890625 26.25 14.511719 C 26.25 14.132812 25.941406 13.824219 25.5625 13.824219 Z M 17.265625 7.511719 L 17.265625 20.25 C 17.246094 20.238281 17.222656 20.230469 17.203125 20.226562 C 16.765625 20.09375 16.160156 20.34375 15.882812 20.765625 C 15.53125 21.304688 15.507812 21.929688 15.820312 22.289062 C 15.859375 22.328125 15.910156 22.351562 15.960938 22.351562 C 16.003906 22.351562 16.050781 22.335938 16.085938 22.304688 C 16.160156 22.234375 16.167969 22.117188 16.101562 22.039062 C 15.898438 21.8125 15.941406 21.363281 16.195312 20.972656 C 16.398438 20.660156 16.847656 20.507812 17.09375 20.582031 C 17.214844 20.617188 17.265625 20.695312 17.265625 20.832031 L 17.265625 21.886719 C 17.265625 22.652344 16.644531 23.273438 15.878906 23.273438 C 15.109375 23.273438 14.488281 22.652344 14.488281 21.886719 C 14.488281 21.570312 14.589844 21.273438 14.789062 21.023438 C 14.851562 20.945312 14.835938 20.828125 14.757812 20.761719 C 14.675781 20.699219 14.558594 20.714844 14.496094 20.792969 C 14.246094 21.109375 14.113281 21.484375 14.113281 21.886719 C 14.113281 21.976562 14.121094 22.0625 14.136719 22.152344 C 14.011719 22.175781 13.886719 22.191406 13.757812 22.191406 C 12.792969 22.191406 12.003906 21.410156 12.003906 20.449219 C 12.003906 20.253906 12.035156 20.066406 12.097656 19.886719 C 12.4375 19.832031 12.761719 19.703125 13.046875 19.507812 C 13.132812 19.449219 13.152344 19.332031 13.09375 19.246094 C 13.039062 19.164062 12.921875 19.140625 12.835938 19.199219 C 12.507812 19.421875 12.121094 19.542969 11.71875 19.542969 C 10.625 19.542969 9.734375 18.652344 9.734375 17.558594 C 9.734375 17.121094 9.875 16.703125 10.136719 16.355469 C 10.5625 16.566406 11.035156 16.695312 11.539062 16.722656 C 11.542969 16.722656 11.546875 16.722656 11.546875 16.722656 C 11.648438 16.722656 11.730469 16.644531 11.734375 16.542969 C 11.738281 16.441406 11.660156 16.355469 11.558594 16.347656 C 9.863281 16.265625 8.535156 14.867188 8.535156 13.167969 C 8.535156 11.789062 9.425781 10.574219 10.71875 10.144531 C 10.839844 10.585938 11.078125 10.980469 11.417969 11.304688 C 11.457031 11.339844 11.5 11.355469 11.546875 11.355469 C 11.597656 11.355469 11.648438 11.335938 11.683594 11.296875 C 11.753906 11.222656 11.75 11.105469 11.675781 11.03125 C 11.238281 10.621094 11 10.0625 11 9.464844 C 11 8.273438 11.96875 7.308594 13.15625 7.308594 C 13.230469 7.308594 13.300781 7.308594 13.371094 7.316406 C 13.367188 7.382812 13.363281 7.445312 13.363281 7.511719 C 13.363281 7.945312 13.492188 8.363281 13.738281 8.722656 C 13.796875 8.804688 13.910156 8.828125 13.996094 8.769531 C 14.082031 8.710938 14.101562 8.59375 14.042969 8.511719 C 13.84375 8.214844 13.734375 7.871094 13.734375 7.511719 C 13.734375 6.539062 14.527344 5.746094 15.5 5.746094 C 16.472656 5.746094 17.265625 6.539062 17.265625 7.511719 Z M 15.070312 17.882812 C 15.046875 17.78125 14.945312 17.71875 14.847656 17.742188 C 14.746094 17.765625 14.683594 17.867188 14.707031 17.964844 C 14.71875 18.015625 14.96875 19.175781 13.871094 19.878906 C 13.78125 19.9375 13.757812 20.050781 13.8125 20.136719 C 13.847656 20.195312 13.910156 20.222656 13.96875 20.222656 C 14.003906 20.222656 14.039062 20.214844 14.070312 20.195312 C 14.761719 19.75 14.996094 19.144531 15.074219 18.71875 C 15.15625 18.253906 15.074219 17.898438 15.070312 17.882812 Z M 15.785156 15.8125 C 14.957031 15.628906 14.285156 15.757812 13.761719 16.003906 C 13.675781 14.691406 12.925781 14.03125 12.289062 13.707031 C 11.566406 13.335938 10.847656 13.316406 10.816406 13.3125 C 10.714844 13.3125 10.628906 13.394531 10.625 13.496094 C 10.625 13.597656 10.707031 13.683594 10.808594 13.6875 C 10.816406 13.6875 11.480469 13.707031 12.128906 14.042969 C 12.957031 14.472656 13.382812 15.199219 13.394531 16.210938 C 13.203125 16.335938 13.035156 16.476562 12.894531 16.613281 C 12.300781 17.1875 12.035156 17.828125 12.023438 17.855469 C 11.984375 17.949219 12.03125 18.058594 12.125 18.097656 C 12.148438 18.105469 12.171875 18.109375 12.195312 18.109375 C 12.269531 18.109375 12.339844 18.066406 12.371094 17.996094 C 12.371094 17.988281 12.621094 17.390625 13.160156 16.871094 C 13.871094 16.191406 14.722656 15.957031 15.703125 16.175781 C 15.800781 16.199219 15.902344 16.136719 15.925781 16.035156 C 15.949219 15.9375 15.882812 15.835938 15.785156 15.8125 Z M 16.035156 13.472656 C 15.890625 12.507812 15.402344 11.941406 14.855469 11.511719 C 15.769531 10.589844 15.957031 9.726562 15.945312 9.15625 C 15.933594 8.492188 15.667969 8.066406 15.660156 8.046875 C 15.601562 7.960938 15.488281 7.933594 15.402344 7.988281 C 15.3125 8.042969 15.289062 8.160156 15.34375 8.246094 C 15.351562 8.261719 16.203125 9.660156 14.550781 11.285156 C 14.433594 11.203125 14.316406 11.125 14.199219 11.050781 C 13.570312 10.632812 12.976562 10.242188 12.761719 9.472656 C 12.734375 9.371094 12.632812 9.3125 12.535156 9.339844 C 12.433594 9.367188 12.375 9.472656 12.402344 9.570312 C 12.652344 10.476562 13.332031 10.925781 13.992188 11.359375 C 14.761719 11.867188 15.488281 12.347656 15.667969 13.527344 C 15.683594 13.621094 15.761719 13.6875 15.851562 13.6875 C 15.859375 13.6875 15.871094 13.6875 15.878906 13.683594 C 15.980469 13.667969 16.050781 13.574219 16.035156 13.472656 Z M 16.035156 13.472656 " fill-opacity="1" fill-rule="nonzero"/></g></svg>