<svg xmlns="http://www.w3.org/2000/svg" xmlns:xlink="http://www.w3.org/1999/xlink" width="150" zoomAndPan="magnify" viewBox="0 0 112.5 30.000001" height="40" preserveAspectRatio="xMidYMid meet" version="1.0"><defs><g/><clipPath id="53a438459e"><path d="M 13.050781 5.359375 L 29 5.359375 L 29 23.503906 L 13.050781 23.503906 Z M 13.050781 5.359375 " clip-rule="nonzero"/></clipPath><clipPath id="3cbcc808e9"><path d="M 66 4 L 69.746094 4 L 69.746094 10 L 66 10 Z M 66 4 " clip-rule="nonzero"/></clipPath><clipPath id="e3c6b31dc2"><rect x="0" width="70" y="0" height="13"/></clipPath></defs><g clip-path="url(#53a438459e)"><path fill="#545454" d="M 14.132812 23.667969 L 23.769531 23.667969 C 24.371094 23.667969 24.859375 23.179688 24.859375 22.582031 L 24.859375 19.519531 L 25.238281 19.519531 C 25.542969 19.519531 25.777344 19.265625 25.777344 18.929688 L 25.777344 18.671875 C 25.777344 18.625 25.800781 18.585938 25.851562 18.566406 L 25.9375 18.527344 C 25.992188 18.503906 26.050781 18.480469 26.101562 18.457031 C 26.132812 18.441406 26.171875 18.460938 26.199219 18.488281 L 26.320312 18.609375 C 26.589844 18.878906 27.011719 18.878906 27.289062 18.609375 L 28.117188 17.78125 C 28.222656 17.683594 28.277344 17.550781 28.28125 17.410156 C 28.28125 17.253906 28.214844 17.097656 28.09375 16.976562 L 27.898438 16.785156 C 27.871094 16.757812 27.863281 16.710938 27.878906 16.671875 C 27.929688 16.5625 27.972656 16.457031 28.027344 16.363281 L 28.253906 16.363281 C 28.632812 16.363281 28.9375 16.058594 28.9375 15.679688 L 28.9375 14.496094 C 28.9375 14.1875 28.683594 13.957031 28.347656 13.957031 L 28.089844 13.957031 C 28.050781 13.957031 28 13.941406 27.984375 13.894531 C 27.949219 13.804688 27.914062 13.71875 27.875 13.636719 C 27.859375 13.609375 27.871094 13.566406 27.902344 13.535156 L 28.027344 13.410156 C 28.292969 13.144531 28.292969 12.710938 28.027344 12.445312 L 27.191406 11.613281 C 27.09375 11.507812 26.960938 11.453125 26.820312 11.449219 C 26.671875 11.453125 26.511719 11.515625 26.390625 11.640625 L 26.199219 11.832031 C 26.167969 11.859375 26.125 11.871094 26.101562 11.859375 C 26.03125 11.824219 25.953125 11.792969 25.878906 11.761719 L 25.835938 11.746094 C 25.804688 11.734375 25.78125 11.691406 25.78125 11.648438 L 25.78125 11.476562 C 25.78125 11.101562 25.472656 10.792969 25.097656 10.792969 L 24.859375 10.792969 L 24.859375 6.449219 C 24.859375 5.847656 24.371094 5.359375 23.769531 5.359375 L 14.132812 5.359375 C 13.535156 5.359375 13.046875 5.847656 13.046875 6.449219 L 13.046875 22.582031 C 13.046875 23.179688 13.535156 23.667969 14.132812 23.667969 Z M 23.769531 23.089844 L 14.132812 23.089844 C 13.855469 23.089844 13.628906 22.863281 13.628906 22.582031 L 13.628906 20.855469 L 24.277344 20.855469 L 24.277344 22.582031 C 24.277344 22.863281 24.050781 23.089844 23.769531 23.089844 Z M 25.203125 11.476562 L 25.203125 11.648438 C 25.203125 11.9375 25.378906 12.195312 25.628906 12.285156 L 25.667969 12.300781 C 25.726562 12.324219 25.785156 12.347656 25.855469 12.382812 C 26.109375 12.496094 26.410156 12.4375 26.605469 12.242188 L 26.808594 12.046875 L 27.617188 12.855469 C 27.660156 12.894531 27.660156 12.960938 27.617188 13 L 27.496094 13.125 C 27.289062 13.332031 27.230469 13.636719 27.351562 13.886719 C 27.382812 13.953125 27.414062 14.027344 27.441406 14.097656 C 27.542969 14.363281 27.796875 14.535156 28.089844 14.535156 L 28.359375 14.539062 L 28.359375 15.679688 C 28.359375 15.738281 28.3125 15.785156 28.253906 15.785156 L 28.027344 15.785156 C 27.765625 15.785156 27.5625 15.914062 27.460938 16.160156 C 27.429688 16.253906 27.394531 16.339844 27.351562 16.4375 C 27.238281 16.695312 27.296875 17 27.488281 17.191406 L 27.6875 17.394531 L 26.882812 18.199219 C 26.835938 18.242188 26.773438 18.242188 26.730469 18.199219 L 26.605469 18.078125 C 26.402344 17.871094 26.097656 17.816406 25.84375 17.9375 C 25.804688 17.957031 25.757812 17.976562 25.714844 17.992188 L 25.636719 18.027344 C 25.375 18.121094 25.199219 18.378906 25.199219 18.671875 L 25.191406 18.941406 L 24.859375 18.941406 L 24.859375 18.9375 L 24.042969 18.9375 C 24.015625 18.9375 23.992188 18.925781 23.976562 18.910156 C 23.957031 18.890625 23.945312 18.867188 23.945312 18.835938 L 23.945312 18.667969 C 23.945312 18.457031 23.847656 18.257812 23.683594 18.128906 C 23.632812 18.085938 23.570312 18.046875 23.503906 18.023438 C 23.429688 17.992188 23.355469 17.960938 23.289062 17.933594 C 23.289062 17.933594 23.289062 17.933594 23.285156 17.929688 C 23.238281 17.910156 23.191406 17.898438 23.140625 17.886719 C 23.105469 17.878906 23.066406 17.878906 23.03125 17.875 C 23.027344 17.875 23.023438 17.875 23.023438 17.875 C 23.019531 17.875 23.011719 17.878906 23.007812 17.878906 C 22.835938 17.878906 22.664062 17.941406 22.53125 18.074219 L 22.335938 18.265625 L 21.53125 17.460938 C 21.507812 17.4375 21.5 17.410156 21.5 17.390625 C 21.5 17.371094 21.507812 17.339844 21.535156 17.3125 L 21.660156 17.191406 C 21.863281 16.984375 21.917969 16.679688 21.796875 16.433594 C 21.78125 16.398438 21.765625 16.355469 21.746094 16.316406 C 21.730469 16.277344 21.714844 16.238281 21.707031 16.226562 C 21.636719 16.027344 21.476562 15.878906 21.273438 15.816406 C 21.207031 15.792969 21.132812 15.78125 21.058594 15.78125 L 20.789062 15.777344 L 20.789062 14.636719 C 20.789062 14.582031 20.839844 14.535156 20.894531 14.535156 L 21.066406 14.535156 C 21.355469 14.535156 21.613281 14.359375 21.710938 14.089844 C 21.730469 14.023438 21.761719 13.957031 21.800781 13.878906 C 21.910156 13.632812 21.855469 13.328125 21.660156 13.125 L 21.546875 13.015625 C 21.519531 12.984375 21.503906 12.953125 21.503906 12.921875 C 21.503906 12.898438 21.511719 12.875 21.53125 12.855469 L 22.273438 12.113281 C 22.292969 12.09375 22.316406 12.085938 22.34375 12.082031 C 22.367188 12.085938 22.390625 12.09375 22.40625 12.109375 L 22.539062 12.242188 C 22.59375 12.292969 22.652344 12.332031 22.71875 12.367188 C 22.902344 12.460938 23.117188 12.46875 23.296875 12.382812 L 23.410156 12.335938 C 23.449219 12.316406 23.492188 12.300781 23.511719 12.289062 C 23.773438 12.195312 23.949219 11.9375 23.949219 11.648438 L 23.953125 11.375 L 25.097656 11.375 C 25.152344 11.375 25.203125 11.421875 25.203125 11.476562 Z M 14.132812 5.9375 L 23.769531 5.9375 C 24.050781 5.9375 24.277344 6.167969 24.277344 6.449219 L 24.277344 10.789062 L 23.902344 10.789062 C 23.589844 10.789062 23.355469 11.042969 23.355469 11.382812 L 23.355469 11.644531 C 23.355469 11.691406 23.328125 11.734375 23.304688 11.742188 L 23.265625 11.757812 C 23.191406 11.785156 23.113281 11.816406 23.050781 11.851562 C 23.03125 11.859375 23.011719 11.859375 22.992188 11.855469 C 22.980469 11.847656 22.964844 11.84375 22.957031 11.832031 L 22.828125 11.703125 C 22.660156 11.539062 22.429688 11.476562 22.214844 11.519531 C 22.078125 11.542969 21.953125 11.601562 21.851562 11.703125 L 21.113281 12.441406 C 20.984375 12.570312 20.914062 12.742188 20.917969 12.921875 C 20.917969 13.109375 20.996094 13.289062 21.132812 13.421875 L 21.238281 13.527344 C 21.269531 13.558594 21.28125 13.601562 21.265625 13.632812 C 21.226562 13.714844 21.191406 13.800781 21.152344 13.898438 C 21.144531 13.929688 21.101562 13.953125 21.058594 13.953125 L 20.886719 13.953125 C 20.511719 13.953125 20.203125 14.257812 20.203125 14.632812 L 20.203125 15.820312 C 20.203125 16.015625 20.304688 16.179688 20.46875 16.273438 C 20.5625 16.332031 20.675781 16.363281 20.800781 16.363281 L 21.066406 16.363281 C 21.085938 16.363281 21.105469 16.371094 21.121094 16.378906 C 21.136719 16.390625 21.152344 16.40625 21.160156 16.425781 L 21.175781 16.472656 C 21.207031 16.542969 21.234375 16.621094 21.261719 16.671875 C 21.28125 16.707031 21.265625 16.753906 21.242188 16.777344 L 21.117188 16.898438 C 20.984375 17.03125 20.914062 17.207031 20.914062 17.390625 C 20.914062 17.570312 20.988281 17.742188 21.117188 17.867188 L 21.953125 18.703125 C 22.050781 18.800781 22.175781 18.859375 22.308594 18.859375 C 22.316406 18.859375 22.324219 18.863281 22.332031 18.863281 C 22.484375 18.859375 22.640625 18.796875 22.757812 18.675781 L 22.949219 18.484375 C 22.96875 18.464844 23.003906 18.453125 23.03125 18.457031 C 23.035156 18.457031 23.039062 18.453125 23.046875 18.457031 C 23.058594 18.460938 23.074219 18.46875 23.085938 18.472656 C 23.160156 18.507812 23.234375 18.542969 23.300781 18.566406 C 23.335938 18.578125 23.355469 18.617188 23.355469 18.664062 L 23.355469 18.832031 C 23.355469 19.117188 23.53125 19.359375 23.777344 19.464844 C 23.863281 19.5 23.953125 19.519531 24.050781 19.519531 L 24.277344 19.519531 L 24.277344 20.277344 L 13.628906 20.277344 L 13.628906 6.449219 C 13.628906 6.167969 13.855469 5.9375 14.132812 5.9375 Z M 19.785156 21.160156 L 18.128906 21.160156 C 17.703125 21.160156 17.359375 21.503906 17.359375 21.929688 L 17.359375 21.960938 C 17.359375 22.382812 17.703125 22.726562 18.128906 22.726562 L 19.785156 22.726562 C 20.210938 22.726562 20.554688 22.382812 20.554688 21.929688 C 20.554688 21.503906 20.210938 21.160156 19.785156 21.160156 Z M 19.785156 22.148438 L 18.128906 22.148438 C 18.023438 22.148438 17.9375 22.0625 17.9375 21.960938 L 17.9375 21.929688 C 17.9375 21.824219 18.023438 21.738281 18.128906 21.738281 L 19.785156 21.738281 C 19.890625 21.738281 19.976562 21.824219 19.976562 21.960938 C 19.976562 22.0625 19.890625 22.148438 19.785156 22.148438 Z M 17.03125 7.042969 C 17.03125 6.882812 17.160156 6.753906 17.320312 6.753906 L 19.707031 6.753906 C 19.867188 6.753906 19.996094 6.882812 19.996094 7.042969 C 19.996094 7.203125 19.867188 7.332031 19.707031 7.332031 L 17.320312 7.332031 C 17.160156 7.332031 17.03125 7.203125 17.03125 7.042969 Z M 20.289062 7.042969 C 20.289062 6.882812 20.410156 6.753906 20.570312 6.753906 L 20.589844 6.753906 C 20.75 6.753906 20.878906 6.882812 20.878906 7.042969 C 20.878906 7.203125 20.75 7.332031 20.589844 7.332031 C 20.429688 7.332031 20.289062 7.203125 20.289062 7.042969 Z M 22.65625 15.15625 C 22.65625 16.214844 23.515625 17.074219 24.574219 17.074219 C 25.628906 17.074219 26.492188 16.214844 26.492188 15.15625 C 26.492188 14.097656 25.628906 13.238281 24.574219 13.238281 C 23.515625 13.238281 22.65625 14.097656 22.65625 15.15625 Z M 24.574219 13.816406 C 25.3125 13.816406 25.910156 14.417969 25.910156 15.15625 C 25.910156 15.894531 25.3125 16.496094 24.574219 16.496094 C 23.835938 16.496094 23.234375 15.894531 23.234375 15.15625 C 23.234375 14.417969 23.835938 13.816406 24.574219 13.816406 Z M 14.460938 10.449219 C 14.351562 10.34375 14.285156 10.191406 14.285156 10.03125 C 14.28125 9.871094 14.339844 9.714844 14.441406 9.609375 L 15.511719 8.472656 C 15.621094 8.355469 15.804688 8.351562 15.921875 8.460938 C 16.039062 8.570312 16.042969 8.753906 15.933594 8.871094 L 14.859375 10.007812 L 15.972656 11.078125 C 16.089844 11.1875 16.09375 11.371094 15.984375 11.488281 C 15.925781 11.546875 15.851562 11.578125 15.773438 11.578125 C 15.703125 11.578125 15.632812 11.550781 15.574219 11.5 Z M 19.796875 9.613281 C 20.011719 9.832031 20.003906 10.230469 19.78125 10.445312 L 18.660156 11.5 C 18.605469 11.550781 18.535156 11.578125 18.464844 11.578125 C 18.386719 11.578125 18.308594 11.546875 18.253906 11.488281 C 18.144531 11.371094 18.148438 11.1875 18.265625 11.078125 L 19.378906 10.027344 L 18.300781 8.871094 C 18.191406 8.753906 18.199219 8.570312 18.316406 8.460938 C 18.429688 8.351562 18.613281 8.355469 18.722656 8.472656 Z M 16.363281 11.421875 L 17.324219 8.578125 C 17.375 8.425781 17.539062 8.347656 17.691406 8.398438 C 17.84375 8.449219 17.925781 8.613281 17.871094 8.765625 L 16.910156 11.609375 C 16.871094 11.730469 16.757812 11.804688 16.636719 11.804688 C 16.605469 11.804688 16.574219 11.800781 16.546875 11.789062 C 16.394531 11.738281 16.3125 11.574219 16.363281 11.421875 Z M 19.429688 12.765625 C 19.429688 12.925781 19.296875 13.054688 19.136719 13.054688 L 15.820312 13.054688 C 15.660156 13.054688 15.53125 12.925781 15.53125 12.765625 C 15.53125 12.605469 15.660156 12.476562 15.820312 12.476562 L 19.136719 12.476562 C 19.296875 12.476562 19.429688 12.605469 19.429688 12.765625 Z M 19.429688 18.496094 C 19.429688 18.65625 19.296875 18.789062 19.136719 18.789062 L 15.820312 18.789062 C 15.660156 18.789062 15.53125 18.65625 15.53125 18.496094 C 15.53125 18.339844 15.660156 18.207031 15.820312 18.207031 L 19.136719 18.207031 C 19.296875 18.207031 19.429688 18.339844 19.429688 18.496094 Z M 19.429688 13.929688 C 19.429688 14.089844 19.296875 14.21875 19.136719 14.21875 L 14.796875 14.21875 C 14.636719 14.21875 14.507812 14.089844 14.507812 13.929688 C 14.507812 13.769531 14.636719 13.640625 14.796875 13.640625 L 19.136719 13.640625 C 19.296875 13.640625 19.429688 13.769531 19.429688 13.929688 Z M 19.429688 15.074219 C 19.429688 15.234375 19.296875 15.363281 19.136719 15.363281 L 14.796875 15.363281 C 14.636719 15.363281 14.507812 15.234375 14.507812 15.074219 C 14.507812 14.914062 14.636719 14.785156 14.796875 14.785156 L 19.136719 14.785156 C 19.296875 14.785156 19.429688 14.914062 19.429688 15.074219 Z M 19.429688 16.25 C 19.429688 16.410156 19.296875 16.539062 19.136719 16.539062 L 14.796875 16.539062 C 14.636719 16.539062 14.507812 16.410156 14.507812 16.25 C 14.507812 16.089844 14.636719 15.960938 14.796875 15.960938 L 19.136719 15.960938 C 19.296875 15.960938 19.429688 16.089844 19.429688 16.25 Z M 19.429688 17.398438 C 19.429688 17.558594 19.296875 17.6875 19.136719 17.6875 L 14.796875 17.6875 C 14.636719 17.6875 14.507812 17.558594 14.507812 17.398438 C 14.507812 17.238281 14.636719 17.109375 14.796875 17.109375 L 19.136719 17.109375 C 19.296875 17.109375 19.429688 17.238281 19.429688 17.398438 Z M 19.429688 17.398438 " fill-opacity="1" fill-rule="nonzero"/></g><g transform="matrix(1, 0, 0, 1, 31, 7)"><g clip-path="url(#e3c6b31dc2)"><g fill="#545454" fill-opacity="1"><g transform="translate(0.977819, 9.370971)"><g><path d="M 5.296875 0 L 4.15625 0 L 3.734375 -1.265625 L 1.625 -1.265625 L 1.203125 0 L 0.078125 0 L 1.984375 -5.515625 L 3.390625 -5.515625 Z M 2.625 -4.375 L 1.921875 -2.1875 L 3.4375 -2.1875 L 2.71875 -4.375 Z M 2.625 -4.375 "/></g></g><g transform="translate(6.364664, 9.370971)"><g><path d="M 0.59375 1.6875 L 0.59375 -4.171875 L 1.640625 -4.171875 L 1.640625 -3.625 L 1.71875 -3.609375 C 1.84375 -3.816406 2.007812 -3.972656 2.21875 -4.078125 C 2.425781 -4.191406 2.671875 -4.25 2.953125 -4.25 C 3.285156 -4.25 3.578125 -4.164062 3.828125 -4 C 4.078125 -3.84375 4.269531 -3.601562 4.40625 -3.28125 C 4.550781 -2.957031 4.625 -2.554688 4.625 -2.078125 C 4.625 -1.597656 4.546875 -1.195312 4.390625 -0.875 C 4.242188 -0.5625 4.039062 -0.320312 3.78125 -0.15625 C 3.519531 0 3.21875 0.078125 2.875 0.078125 C 2.613281 0.078125 2.390625 0.0351562 2.203125 -0.046875 C 2.015625 -0.140625 1.851562 -0.273438 1.71875 -0.453125 L 1.640625 -0.4375 L 1.640625 1.6875 Z M 2.59375 -0.8125 C 2.90625 -0.8125 3.140625 -0.910156 3.296875 -1.109375 C 3.453125 -1.316406 3.53125 -1.640625 3.53125 -2.078125 C 3.53125 -2.515625 3.453125 -2.835938 3.296875 -3.046875 C 3.140625 -3.253906 2.90625 -3.359375 2.59375 -3.359375 C 2.300781 -3.359375 2.066406 -3.25 1.890625 -3.03125 C 1.722656 -2.820312 1.640625 -2.503906 1.640625 -2.078125 C 1.640625 -1.648438 1.722656 -1.332031 1.890625 -1.125 C 2.066406 -0.914062 2.300781 -0.8125 2.59375 -0.8125 Z M 2.59375 -0.8125 "/></g></g><g transform="translate(11.358363, 9.370971)"><g><path d="M 0.59375 1.6875 L 0.59375 -4.171875 L 1.640625 -4.171875 L 1.640625 -3.625 L 1.71875 -3.609375 C 1.84375 -3.816406 2.007812 -3.972656 2.21875 -4.078125 C 2.425781 -4.191406 2.671875 -4.25 2.953125 -4.25 C 3.285156 -4.25 3.578125 -4.164062 3.828125 -4 C 4.078125 -3.84375 4.269531 -3.601562 4.40625 -3.28125 C 4.550781 -2.957031 4.625 -2.554688 4.625 -2.078125 C 4.625 -1.597656 4.546875 -1.195312 4.390625 -0.875 C 4.242188 -0.5625 4.039062 -0.320312 3.78125 -0.15625 C 3.519531 0 3.21875 0.078125 2.875 0.078125 C 2.613281 0.078125 2.390625 0.0351562 2.203125 -0.046875 C 2.015625 -0.140625 1.851562 -0.273438 1.71875 -0.453125 L 1.640625 -0.4375 L 1.640625 1.6875 Z M 2.59375 -0.8125 C 2.90625 -0.8125 3.140625 -0.910156 3.296875 -1.109375 C 3.453125 -1.316406 3.53125 -1.640625 3.53125 -2.078125 C 3.53125 -2.515625 3.453125 -2.835938 3.296875 -3.046875 C 3.140625 -3.253906 2.90625 -3.359375 2.59375 -3.359375 C 2.300781 -3.359375 2.066406 -3.25 1.890625 -3.03125 C 1.722656 -2.820312 1.640625 -2.503906 1.640625 -2.078125 C 1.640625 -1.648438 1.722656 -1.332031 1.890625 -1.125 C 2.066406 -0.914062 2.300781 -0.8125 2.59375 -0.8125 Z M 2.59375 -0.8125 "/></g></g><g transform="translate(16.352063, 9.370971)"><g/></g><g transform="translate(18.17792, 9.370971)"><g><path d="M 2.703125 -5.515625 C 3.597656 -5.515625 4.28125 -5.28125 4.75 -4.8125 C 5.226562 -4.351562 5.46875 -3.671875 5.46875 -2.765625 C 5.46875 -1.847656 5.226562 -1.15625 4.75 -0.6875 C 4.28125 -0.226562 3.597656 0 2.703125 0 L 0.71875 0 L 0.71875 -5.515625 Z M 2.640625 -0.921875 C 3.210938 -0.921875 3.640625 -1.066406 3.921875 -1.359375 C 4.203125 -1.648438 4.34375 -2.117188 4.34375 -2.765625 C 4.34375 -3.410156 4.203125 -3.878906 3.921875 -4.171875 C 3.640625 -4.460938 3.210938 -4.609375 2.640625 -4.609375 L 1.8125 -4.609375 L 1.8125 -0.921875 Z M 2.640625 -0.921875 "/></g></g><g transform="translate(24.086438, 9.370971)"><g><path d="M 4.109375 -1.84375 L 1.4375 -1.84375 C 1.46875 -1.476562 1.570312 -1.210938 1.75 -1.046875 C 1.925781 -0.890625 2.164062 -0.8125 2.46875 -0.8125 C 2.707031 -0.8125 2.898438 -0.851562 3.046875 -0.9375 C 3.203125 -1.03125 3.320312 -1.164062 3.40625 -1.34375 L 3.484375 -1.34375 L 4.1875 -0.90625 C 4.050781 -0.613281 3.84375 -0.375 3.5625 -0.1875 C 3.289062 -0.0078125 2.925781 0.078125 2.46875 0.078125 C 2.039062 0.078125 1.671875 0 1.359375 -0.15625 C 1.046875 -0.320312 0.800781 -0.566406 0.625 -0.890625 C 0.457031 -1.210938 0.375 -1.609375 0.375 -2.078125 C 0.375 -2.554688 0.460938 -2.957031 0.640625 -3.28125 C 0.816406 -3.601562 1.054688 -3.84375 1.359375 -4 C 1.671875 -4.164062 2.015625 -4.25 2.390625 -4.25 C 2.984375 -4.25 3.4375 -4.09375 3.75 -3.78125 C 4.0625 -3.46875 4.21875 -3.007812 4.21875 -2.40625 C 4.21875 -2.1875 4.210938 -2.015625 4.203125 -1.890625 Z M 3.21875 -2.515625 C 3.207031 -2.835938 3.132812 -3.070312 3 -3.21875 C 2.863281 -3.363281 2.660156 -3.4375 2.390625 -3.4375 C 1.859375 -3.4375 1.550781 -3.128906 1.46875 -2.515625 Z M 3.21875 -2.515625 "/></g></g><g transform="translate(28.618949, 9.370971)"><g><path d="M 2.859375 0 L 1.625 0 L 0.078125 -4.171875 L 1.171875 -4.171875 L 2.203125 -1.203125 L 2.296875 -1.203125 L 3.328125 -4.171875 L 4.40625 -4.171875 Z M 2.859375 0 "/></g></g></g><g fill="#545454" fill-opacity="1"><g transform="translate(33.022931, 9.370971)"><g><path d="M 4.109375 -1.84375 L 1.4375 -1.84375 C 1.46875 -1.476562 1.570312 -1.210938 1.75 -1.046875 C 1.925781 -0.890625 2.164062 -0.8125 2.46875 -0.8125 C 2.707031 -0.8125 2.898438 -0.851562 3.046875 -0.9375 C 3.203125 -1.03125 3.320312 -1.164062 3.40625 -1.34375 L 3.484375 -1.34375 L 4.1875 -0.90625 C 4.050781 -0.613281 3.84375 -0.375 3.5625 -0.1875 C 3.289062 -0.0078125 2.925781 0.078125 2.46875 0.078125 C 2.039062 0.078125 1.671875 0 1.359375 -0.15625 C 1.046875 -0.320312 0.800781 -0.566406 0.625 -0.890625 C 0.457031 -1.210938 0.375 -1.609375 0.375 -2.078125 C 0.375 -2.554688 0.460938 -2.957031 0.640625 -3.28125 C 0.816406 -3.601562 1.054688 -3.84375 1.359375 -4 C 1.671875 -4.164062 2.015625 -4.25 2.390625 -4.25 C 2.984375 -4.25 3.4375 -4.09375 3.75 -3.78125 C 4.0625 -3.46875 4.21875 -3.007812 4.21875 -2.40625 C 4.21875 -2.1875 4.210938 -2.015625 4.203125 -1.890625 Z M 3.21875 -2.515625 C 3.207031 -2.835938 3.132812 -3.070312 3 -3.21875 C 2.863281 -3.363281 2.660156 -3.4375 2.390625 -3.4375 C 1.859375 -3.4375 1.550781 -3.128906 1.46875 -2.515625 Z M 3.21875 -2.515625 "/></g></g><g transform="translate(37.555441, 9.370971)"><g><path d="M 1.734375 0.078125 C 1.359375 0.078125 1.070312 -0.0195312 0.875 -0.21875 C 0.675781 -0.425781 0.578125 -0.734375 0.578125 -1.140625 L 0.578125 -5.84375 L 1.625 -5.84375 L 1.625 -1.1875 C 1.625 -0.9375 1.726562 -0.8125 1.9375 -0.8125 C 2 -0.8125 2.0625 -0.820312 2.125 -0.84375 L 2.1875 -0.828125 L 2.28125 -0.015625 C 2.21875 0.015625 2.140625 0.0351562 2.046875 0.046875 C 1.953125 0.0664062 1.847656 0.078125 1.734375 0.078125 Z M 1.734375 0.078125 "/></g></g><g transform="translate(39.952115, 9.370971)"><g><path d="M 2.421875 0.078125 C 2.015625 0.078125 1.65625 -0.00390625 1.34375 -0.171875 C 1.039062 -0.335938 0.800781 -0.582031 0.625 -0.90625 C 0.457031 -1.226562 0.375 -1.617188 0.375 -2.078125 C 0.375 -2.535156 0.457031 -2.925781 0.625 -3.25 C 0.800781 -3.582031 1.039062 -3.832031 1.34375 -4 C 1.65625 -4.164062 2.015625 -4.25 2.421875 -4.25 C 2.828125 -4.25 3.179688 -4.164062 3.484375 -4 C 3.796875 -3.832031 4.035156 -3.582031 4.203125 -3.25 C 4.378906 -2.925781 4.46875 -2.535156 4.46875 -2.078125 C 4.46875 -1.617188 4.378906 -1.226562 4.203125 -0.90625 C 4.035156 -0.582031 3.796875 -0.335938 3.484375 -0.171875 C 3.179688 -0.00390625 2.828125 0.078125 2.421875 0.078125 Z M 2.421875 -0.8125 C 3.066406 -0.8125 3.390625 -1.234375 3.390625 -2.078125 C 3.390625 -2.515625 3.304688 -2.835938 3.140625 -3.046875 C 2.972656 -3.253906 2.734375 -3.359375 2.421875 -3.359375 C 1.773438 -3.359375 1.453125 -2.929688 1.453125 -2.078125 C 1.453125 -1.234375 1.773438 -0.8125 2.421875 -0.8125 Z M 2.421875 -0.8125 "/></g></g><g transform="translate(44.798385, 9.370971)"><g><path d="M 0.59375 1.6875 L 0.59375 -4.171875 L 1.640625 -4.171875 L 1.640625 -3.625 L 1.71875 -3.609375 C 1.84375 -3.816406 2.007812 -3.972656 2.21875 -4.078125 C 2.425781 -4.191406 2.671875 -4.25 2.953125 -4.25 C 3.285156 -4.25 3.578125 -4.164062 3.828125 -4 C 4.078125 -3.84375 4.269531 -3.601562 4.40625 -3.28125 C 4.550781 -2.957031 4.625 -2.554688 4.625 -2.078125 C 4.625 -1.597656 4.546875 -1.195312 4.390625 -0.875 C 4.242188 -0.5625 4.039062 -0.320312 3.78125 -0.15625 C 3.519531 0 3.21875 0.078125 2.875 0.078125 C 2.613281 0.078125 2.390625 0.0351562 2.203125 -0.046875 C 2.015625 -0.140625 1.851562 -0.273438 1.71875 -0.453125 L 1.640625 -0.4375 L 1.640625 1.6875 Z M 2.59375 -0.8125 C 2.90625 -0.8125 3.140625 -0.910156 3.296875 -1.109375 C 3.453125 -1.316406 3.53125 -1.640625 3.53125 -2.078125 C 3.53125 -2.515625 3.453125 -2.835938 3.296875 -3.046875 C 3.140625 -3.253906 2.90625 -3.359375 2.59375 -3.359375 C 2.300781 -3.359375 2.066406 -3.25 1.890625 -3.03125 C 1.722656 -2.820312 1.640625 -2.503906 1.640625 -2.078125 C 1.640625 -1.648438 1.722656 -1.332031 1.890625 -1.125 C 2.066406 -0.914062 2.300781 -0.8125 2.59375 -0.8125 Z M 2.59375 -0.8125 "/></g></g><g transform="translate(49.792085, 9.370971)"><g><path d="M 0.59375 0 L 0.59375 -4.171875 L 1.609375 -4.171875 L 1.609375 -3.609375 L 1.6875 -3.59375 C 1.820312 -3.8125 1.976562 -3.972656 2.15625 -4.078125 C 2.34375 -4.191406 2.578125 -4.25 2.859375 -4.25 C 3.171875 -4.25 3.421875 -4.1875 3.609375 -4.0625 C 3.804688 -3.9375 3.953125 -3.753906 4.046875 -3.515625 L 4.125 -3.515625 C 4.25 -3.765625 4.410156 -3.945312 4.609375 -4.0625 C 4.816406 -4.1875 5.070312 -4.25 5.375 -4.25 C 6.238281 -4.25 6.671875 -3.765625 6.671875 -2.796875 L 6.671875 0 L 5.625 0 L 5.625 -2.671875 C 5.625 -2.910156 5.578125 -3.082031 5.484375 -3.1875 C 5.390625 -3.300781 5.234375 -3.359375 5.015625 -3.359375 C 4.441406 -3.359375 4.15625 -2.972656 4.15625 -2.203125 L 4.15625 0 L 3.109375 0 L 3.109375 -2.671875 C 3.109375 -2.910156 3.0625 -3.082031 2.96875 -3.1875 C 2.875 -3.300781 2.71875 -3.359375 2.5 -3.359375 C 2.226562 -3.359375 2.015625 -3.269531 1.859375 -3.09375 C 1.710938 -2.914062 1.640625 -2.628906 1.640625 -2.234375 L 1.640625 0 Z M 0.59375 0 "/></g></g><g transform="translate(57.004787, 9.370971)"><g><path d="M 4.109375 -1.84375 L 1.4375 -1.84375 C 1.46875 -1.476562 1.570312 -1.210938 1.75 -1.046875 C 1.925781 -0.890625 2.164062 -0.8125 2.46875 -0.8125 C 2.707031 -0.8125 2.898438 -0.851562 3.046875 -0.9375 C 3.203125 -1.03125 3.320312 -1.164062 3.40625 -1.34375 L 3.484375 -1.34375 L 4.1875 -0.90625 C 4.050781 -0.613281 3.84375 -0.375 3.5625 -0.1875 C 3.289062 -0.0078125 2.925781 0.078125 2.46875 0.078125 C 2.039062 0.078125 1.671875 0 1.359375 -0.15625 C 1.046875 -0.320312 0.800781 -0.566406 0.625 -0.890625 C 0.457031 -1.210938 0.375 -1.609375 0.375 -2.078125 C 0.375 -2.554688 0.460938 -2.957031 0.640625 -3.28125 C 0.816406 -3.601562 1.054688 -3.84375 1.359375 -4 C 1.671875 -4.164062 2.015625 -4.25 2.390625 -4.25 C 2.984375 -4.25 3.4375 -4.09375 3.75 -3.78125 C 4.0625 -3.46875 4.21875 -3.007812 4.21875 -2.40625 C 4.21875 -2.1875 4.210938 -2.015625 4.203125 -1.890625 Z M 3.21875 -2.515625 C 3.207031 -2.835938 3.132812 -3.070312 3 -3.21875 C 2.863281 -3.363281 2.660156 -3.4375 2.390625 -3.4375 C 1.859375 -3.4375 1.550781 -3.128906 1.46875 -2.515625 Z M 3.21875 -2.515625 "/></g></g><g transform="translate(61.537297, 9.370971)"><g><path d="M 0.59375 0 L 0.59375 -4.171875 L 1.609375 -4.171875 L 1.609375 -3.546875 L 1.6875 -3.53125 C 1.945312 -4.007812 2.367188 -4.25 2.953125 -4.25 C 3.429688 -4.25 3.78125 -4.113281 4 -3.84375 C 4.226562 -3.582031 4.34375 -3.203125 4.34375 -2.703125 L 4.34375 0 L 3.296875 0 L 3.296875 -2.578125 C 3.296875 -2.859375 3.238281 -3.054688 3.125 -3.171875 C 3.019531 -3.296875 2.84375 -3.359375 2.59375 -3.359375 C 2.300781 -3.359375 2.066406 -3.257812 1.890625 -3.0625 C 1.722656 -2.875 1.640625 -2.570312 1.640625 -2.15625 L 1.640625 0 Z M 0.59375 0 "/></g></g></g><g clip-path="url(#3cbcc808e9)"><g fill="#545454" fill-opacity="1"><g transform="translate(66.391128, 9.370971)"><g><path d="M 2.875 -1 L 3.140625 -0.21875 C 3.023438 -0.125 2.882812 -0.0507812 2.71875 0 C 2.550781 0.0507812 2.359375 0.078125 2.140625 0.078125 C 1.691406 0.078125 1.347656 -0.0390625 1.109375 -0.28125 C 0.878906 -0.53125 0.765625 -0.890625 0.765625 -1.359375 L 0.765625 -3.34375 L 0.125 -3.34375 L 0.125 -4.171875 L 0.765625 -4.171875 L 0.765625 -4.984375 L 1.8125 -5.15625 L 1.8125 -4.171875 L 2.984375 -4.171875 L 2.984375 -3.34375 L 1.8125 -3.34375 L 1.8125 -1.4375 C 1.8125 -1.226562 1.851562 -1.078125 1.9375 -0.984375 C 2.019531 -0.890625 2.144531 -0.84375 2.3125 -0.84375 C 2.5 -0.84375 2.660156 -0.894531 2.796875 -1 Z M 2.875 -1 "/></g></g></g></g></g></g></svg>