<svg xmlns="http://www.w3.org/2000/svg" xmlns:xlink="http://www.w3.org/1999/xlink" width="150" zoomAndPan="magnify" viewBox="0 0 112.5 30.000001" height="40" preserveAspectRatio="xMidYMid meet" version="1.0"><defs><g/><clipPath id="42e4fa7591"><path d="M 1.574219 0 L 110.445312 0 L 110.445312 29.03125 L 1.574219 29.03125 Z M 1.574219 0 " clip-rule="nonzero"/></clipPath><clipPath id="2c992a9280"><rect x="0" width="53" y="0" height="12"/></clipPath><clipPath id="37f0ebe3e2"><path d="M 20.246094 7.007812 L 35.488281 7.007812 L 35.488281 22.25 L 20.246094 22.25 Z M 20.246094 7.007812 " clip-rule="nonzero"/></clipPath></defs><g clip-path="url(#42e4fa7591)"><path fill="#ffffff" d="M 1.574219 0 L 110.445312 0 L 110.445312 29.03125 L 1.574219 29.03125 Z M 1.574219 0 " fill-opacity="1" fill-rule="nonzero"/><path fill="#ffffff" d="M 1.574219 0 L 110.445312 0 L 110.445312 29.03125 L 1.574219 29.03125 Z M 1.574219 0 " fill-opacity="1" fill-rule="nonzero"/></g><g transform="matrix(1, 0, 0, 1, 40, 8)"><g clip-path="url(#2c992a9280)"><g fill="#545454" fill-opacity="1"><g transform="translate(0.645159, 9.096777)"><g><path d="M 3.015625 0.078125 C 2.503906 0.078125 2.054688 -0.0234375 1.671875 -0.234375 C 1.285156 -0.453125 0.984375 -0.769531 0.765625 -1.1875 C 0.546875 -1.613281 0.4375 -2.140625 0.4375 -2.765625 C 0.4375 -3.378906 0.546875 -3.898438 0.765625 -4.328125 C 0.984375 -4.753906 1.285156 -5.070312 1.671875 -5.28125 C 2.054688 -5.488281 2.503906 -5.59375 3.015625 -5.59375 C 3.546875 -5.59375 3.992188 -5.488281 4.359375 -5.28125 C 4.734375 -5.082031 5.003906 -4.769531 5.171875 -4.34375 L 4.375 -3.859375 L 4.28125 -3.859375 C 4.15625 -4.140625 3.988281 -4.34375 3.78125 -4.46875 C 3.582031 -4.59375 3.328125 -4.65625 3.015625 -4.65625 C 2.554688 -4.65625 2.195312 -4.503906 1.9375 -4.203125 C 1.6875 -3.898438 1.5625 -3.421875 1.5625 -2.765625 C 1.5625 -2.109375 1.6875 -1.625 1.9375 -1.3125 C 2.195312 -1.007812 2.554688 -0.859375 3.015625 -0.859375 C 3.734375 -0.859375 4.171875 -1.207031 4.328125 -1.90625 L 4.4375 -1.90625 L 5.234375 -1.484375 C 5.078125 -0.960938 4.816406 -0.570312 4.453125 -0.3125 C 4.085938 -0.0507812 3.609375 0.078125 3.015625 0.078125 Z M 3.015625 0.078125 "/></g></g><g transform="translate(6.066026, 9.096777)"><g><path d="M 0.71875 0 L 0.71875 -5.515625 L 2.9375 -5.515625 C 3.507812 -5.515625 3.9375 -5.382812 4.21875 -5.125 C 4.507812 -4.863281 4.65625 -4.5 4.65625 -4.03125 C 4.65625 -3.695312 4.570312 -3.421875 4.40625 -3.203125 C 4.238281 -2.992188 3.984375 -2.832031 3.640625 -2.71875 L 3.640625 -2.640625 C 3.816406 -2.566406 3.957031 -2.453125 4.0625 -2.296875 C 4.175781 -2.148438 4.28125 -1.929688 4.375 -1.640625 L 4.921875 0 L 3.796875 0 L 3.265625 -1.65625 C 3.210938 -1.820312 3.148438 -1.945312 3.078125 -2.03125 C 3.003906 -2.125 2.914062 -2.191406 2.8125 -2.234375 C 2.707031 -2.273438 2.566406 -2.296875 2.390625 -2.296875 L 1.8125 -2.296875 L 1.8125 0 Z M 2.796875 -3.171875 C 3.328125 -3.171875 3.59375 -3.414062 3.59375 -3.90625 C 3.59375 -4.40625 3.328125 -4.65625 2.796875 -4.65625 L 1.8125 -4.65625 L 1.8125 -3.171875 Z M 2.796875 -3.171875 "/></g></g><g transform="translate(11.233617, 9.096777)"><g><path d="M 1.71875 0 L 0.71875 0 L 0.71875 -5.515625 L 2.140625 -5.515625 L 3.546875 -1.46875 L 3.625 -1.46875 L 5.015625 -5.515625 L 6.40625 -5.515625 L 6.40625 0 L 5.375 0 L 5.375 -3.640625 L 5.28125 -3.65625 L 4 0 L 3.09375 0 L 1.8125 -3.65625 L 1.71875 -3.640625 Z M 1.71875 0 "/></g></g><g transform="translate(18.366934, 9.096777)"><g/></g><g transform="translate(20.19279, 9.096777)"><g><path d="M 2.453125 0.078125 C 2.066406 0.078125 1.722656 0.03125 1.421875 -0.0625 C 1.128906 -0.15625 0.878906 -0.28125 0.671875 -0.4375 C 0.472656 -0.59375 0.320312 -0.757812 0.21875 -0.9375 L 0.828125 -1.671875 L 0.921875 -1.671875 C 1.085938 -1.421875 1.296875 -1.222656 1.546875 -1.078125 C 1.804688 -0.929688 2.109375 -0.859375 2.453125 -0.859375 C 2.742188 -0.859375 2.960938 -0.921875 3.109375 -1.046875 C 3.253906 -1.171875 3.328125 -1.34375 3.328125 -1.5625 C 3.328125 -1.6875 3.300781 -1.789062 3.25 -1.875 C 3.207031 -1.96875 3.128906 -2.046875 3.015625 -2.109375 C 2.910156 -2.171875 2.765625 -2.226562 2.578125 -2.28125 L 1.859375 -2.4375 C 1.367188 -2.550781 1 -2.738281 0.75 -3 C 0.507812 -3.269531 0.390625 -3.613281 0.390625 -4.03125 C 0.390625 -4.34375 0.46875 -4.613281 0.625 -4.84375 C 0.78125 -5.082031 1.003906 -5.265625 1.296875 -5.390625 C 1.597656 -5.523438 1.957031 -5.59375 2.375 -5.59375 C 2.800781 -5.59375 3.164062 -5.535156 3.46875 -5.421875 C 3.769531 -5.316406 4.023438 -5.148438 4.234375 -4.921875 L 3.703125 -4.171875 L 3.609375 -4.171875 C 3.453125 -4.335938 3.269531 -4.460938 3.0625 -4.546875 C 2.863281 -4.628906 2.632812 -4.671875 2.375 -4.671875 C 2.070312 -4.671875 1.84375 -4.613281 1.6875 -4.5 C 1.53125 -4.394531 1.453125 -4.253906 1.453125 -4.078125 C 1.453125 -3.898438 1.503906 -3.757812 1.609375 -3.65625 C 1.722656 -3.550781 1.914062 -3.46875 2.1875 -3.40625 L 2.921875 -3.265625 C 3.453125 -3.148438 3.835938 -2.957031 4.078125 -2.6875 C 4.316406 -2.414062 4.4375 -2.0625 4.4375 -1.625 C 4.4375 -1.28125 4.363281 -0.976562 4.21875 -0.71875 C 4.070312 -0.46875 3.847656 -0.269531 3.546875 -0.125 C 3.242188 0.0078125 2.878906 0.078125 2.453125 0.078125 Z M 2.453125 0.078125 "/></g></g><g transform="translate(24.940775, 9.096777)"><g><path d="M 2.421875 0.078125 C 2.015625 0.078125 1.65625 -0.00390625 1.34375 -0.171875 C 1.039062 -0.335938 0.800781 -0.582031 0.625 -0.90625 C 0.457031 -1.226562 0.375 -1.617188 0.375 -2.078125 C 0.375 -2.535156 0.457031 -2.925781 0.625 -3.25 C 0.800781 -3.582031 1.039062 -3.832031 1.34375 -4 C 1.65625 -4.164062 2.015625 -4.25 2.421875 -4.25 C 2.828125 -4.25 3.179688 -4.164062 3.484375 -4 C 3.796875 -3.832031 4.035156 -3.582031 4.203125 -3.25 C 4.378906 -2.925781 4.46875 -2.535156 4.46875 -2.078125 C 4.46875 -1.617188 4.378906 -1.226562 4.203125 -0.90625 C 4.035156 -0.582031 3.796875 -0.335938 3.484375 -0.171875 C 3.179688 -0.00390625 2.828125 0.078125 2.421875 0.078125 Z M 2.421875 -0.8125 C 3.066406 -0.8125 3.390625 -1.234375 3.390625 -2.078125 C 3.390625 -2.515625 3.304688 -2.835938 3.140625 -3.046875 C 2.972656 -3.253906 2.734375 -3.359375 2.421875 -3.359375 C 1.773438 -3.359375 1.453125 -2.929688 1.453125 -2.078125 C 1.453125 -1.234375 1.773438 -0.8125 2.421875 -0.8125 Z M 2.421875 -0.8125 "/></g></g><g transform="translate(29.787045, 9.096777)"><g><path d="M 1.734375 0.078125 C 1.359375 0.078125 1.070312 -0.0195312 0.875 -0.21875 C 0.675781 -0.425781 0.578125 -0.734375 0.578125 -1.140625 L 0.578125 -5.84375 L 1.625 -5.84375 L 1.625 -1.1875 C 1.625 -0.9375 1.726562 -0.8125 1.9375 -0.8125 C 2 -0.8125 2.0625 -0.820312 2.125 -0.84375 L 2.1875 -0.828125 L 2.28125 -0.015625 C 2.21875 0.015625 2.140625 0.0351562 2.046875 0.046875 C 1.953125 0.0664062 1.847656 0.078125 1.734375 0.078125 Z M 1.734375 0.078125 "/></g></g><g transform="translate(32.183718, 9.096777)"><g><path d="M 1.90625 0.078125 C 1.4375 0.078125 1.085938 -0.046875 0.859375 -0.296875 C 0.640625 -0.554688 0.53125 -0.925781 0.53125 -1.40625 L 0.53125 -4.171875 L 1.578125 -4.171875 L 1.578125 -1.53125 C 1.578125 -1.28125 1.628906 -1.09375 1.734375 -0.96875 C 1.847656 -0.851562 2.019531 -0.796875 2.25 -0.796875 C 2.539062 -0.796875 2.765625 -0.890625 2.921875 -1.078125 C 3.085938 -1.273438 3.171875 -1.578125 3.171875 -1.984375 L 3.171875 -4.171875 L 4.21875 -4.171875 L 4.21875 0 L 3.21875 0 L 3.21875 -0.609375 L 3.140625 -0.625 C 3.003906 -0.382812 2.835938 -0.207031 2.640625 -0.09375 C 2.453125 0.0195312 2.207031 0.078125 1.90625 0.078125 Z M 1.90625 0.078125 "/></g></g><g transform="translate(37.007307, 9.096777)"><g><path d="M 2.875 -1 L 3.140625 -0.21875 C 3.023438 -0.125 2.882812 -0.0507812 2.71875 0 C 2.550781 0.0507812 2.359375 0.078125 2.140625 0.078125 C 1.691406 0.078125 1.347656 -0.0390625 1.109375 -0.28125 C 0.878906 -0.53125 0.765625 -0.890625 0.765625 -1.359375 L 0.765625 -3.34375 L 0.125 -3.34375 L 0.125 -4.171875 L 0.765625 -4.171875 L 0.765625 -4.984375 L 1.8125 -5.15625 L 1.8125 -4.171875 L 2.984375 -4.171875 L 2.984375 -3.34375 L 1.8125 -3.34375 L 1.8125 -1.4375 C 1.8125 -1.226562 1.851562 -1.078125 1.9375 -0.984375 C 2.019531 -0.890625 2.144531 -0.84375 2.3125 -0.84375 C 2.5 -0.84375 2.660156 -0.894531 2.796875 -1 Z M 2.875 -1 "/></g></g><g transform="translate(40.246975, 9.096777)"><g><path d="M 1.125 -4.65625 C 0.9375 -4.65625 0.78125 -4.710938 0.65625 -4.828125 C 0.539062 -4.941406 0.484375 -5.09375 0.484375 -5.28125 C 0.484375 -5.457031 0.539062 -5.601562 0.65625 -5.71875 C 0.78125 -5.832031 0.9375 -5.890625 1.125 -5.890625 C 1.25 -5.890625 1.359375 -5.863281 1.453125 -5.8125 C 1.554688 -5.757812 1.632812 -5.6875 1.6875 -5.59375 C 1.738281 -5.5 1.765625 -5.394531 1.765625 -5.28125 C 1.765625 -5.164062 1.738281 -5.0625 1.6875 -4.96875 C 1.632812 -4.875 1.554688 -4.796875 1.453125 -4.734375 C 1.359375 -4.679688 1.25 -4.65625 1.125 -4.65625 Z M 0.59375 0 L 0.59375 -4.171875 L 1.640625 -4.171875 L 1.640625 0 Z M 0.59375 0 "/></g></g><g transform="translate(42.492438, 9.096777)"><g><path d="M 2.421875 0.078125 C 2.015625 0.078125 1.65625 -0.00390625 1.34375 -0.171875 C 1.039062 -0.335938 0.800781 -0.582031 0.625 -0.90625 C 0.457031 -1.226562 0.375 -1.617188 0.375 -2.078125 C 0.375 -2.535156 0.457031 -2.925781 0.625 -3.25 C 0.800781 -3.582031 1.039062 -3.832031 1.34375 -4 C 1.65625 -4.164062 2.015625 -4.25 2.421875 -4.25 C 2.828125 -4.25 3.179688 -4.164062 3.484375 -4 C 3.796875 -3.832031 4.035156 -3.582031 4.203125 -3.25 C 4.378906 -2.925781 4.46875 -2.535156 4.46875 -2.078125 C 4.46875 -1.617188 4.378906 -1.226562 4.203125 -0.90625 C 4.035156 -0.582031 3.796875 -0.335938 3.484375 -0.171875 C 3.179688 -0.00390625 2.828125 0.078125 2.421875 0.078125 Z M 2.421875 -0.8125 C 3.066406 -0.8125 3.390625 -1.234375 3.390625 -2.078125 C 3.390625 -2.515625 3.304688 -2.835938 3.140625 -3.046875 C 2.972656 -3.253906 2.734375 -3.359375 2.421875 -3.359375 C 1.773438 -3.359375 1.453125 -2.929688 1.453125 -2.078125 C 1.453125 -1.234375 1.773438 -0.8125 2.421875 -0.8125 Z M 2.421875 -0.8125 "/></g></g><g transform="translate(47.338709, 9.096777)"><g><path d="M 0.59375 0 L 0.59375 -4.171875 L 1.609375 -4.171875 L 1.609375 -3.546875 L 1.6875 -3.53125 C 1.945312 -4.007812 2.367188 -4.25 2.953125 -4.25 C 3.429688 -4.25 3.78125 -4.113281 4 -3.84375 C 4.226562 -3.582031 4.34375 -3.203125 4.34375 -2.703125 L 4.34375 0 L 3.296875 0 L 3.296875 -2.578125 C 3.296875 -2.859375 3.238281 -3.054688 3.125 -3.171875 C 3.019531 -3.296875 2.84375 -3.359375 2.59375 -3.359375 C 2.300781 -3.359375 2.066406 -3.257812 1.890625 -3.0625 C 1.722656 -2.875 1.640625 -2.570312 1.640625 -2.15625 L 1.640625 0 Z M 0.59375 0 "/></g></g></g></g></g><g clip-path="url(#37f0ebe3e2)"><path fill="#545454" d="M 25.414062 12.617188 L 25.492188 12.761719 C 25.535156 12.832031 25.574219 12.902344 25.597656 12.945312 L 25.652344 13.042969 C 25.707031 13.136719 25.730469 13.179688 25.730469 13.265625 C 25.734375 13.34375 25.710938 13.382812 25.671875 13.460938 C 25.660156 13.488281 25.640625 13.523438 25.609375 13.589844 C 25.570312 13.683594 25.550781 13.746094 25.539062 13.789062 C 25.488281 13.957031 25.472656 14.011719 25.28125 14.0625 L 25.121094 14.105469 C 25.003906 14.136719 24.859375 14.171875 24.757812 14.203125 L 24.757812 14.839844 C 24.835938 14.863281 24.9375 14.886719 25.035156 14.910156 C 25.148438 14.9375 25.253906 14.964844 25.316406 14.988281 L 25.328125 14.992188 C 25.476562 15.046875 25.503906 15.132812 25.550781 15.28125 C 25.5625 15.324219 25.582031 15.382812 25.609375 15.449219 C 25.640625 15.515625 25.65625 15.550781 25.671875 15.578125 C 25.714844 15.660156 25.734375 15.699219 25.734375 15.78125 C 25.730469 15.867188 25.703125 15.910156 25.648438 16.007812 C 25.632812 16.027344 25.617188 16.054688 25.589844 16.105469 L 25.527344 16.210938 C 25.488281 16.277344 25.441406 16.351562 25.40625 16.414062 L 25.855469 16.863281 C 25.902344 16.835938 25.953125 16.804688 25.996094 16.78125 C 26.011719 16.769531 26.03125 16.757812 26.050781 16.75 C 26.125 16.703125 26.175781 16.671875 26.214844 16.648438 C 26.328125 16.582031 26.378906 16.546875 26.464844 16.539062 L 26.472656 16.539062 C 26.542969 16.53125 26.589844 16.546875 26.652344 16.578125 C 26.660156 16.582031 26.671875 16.585938 26.679688 16.589844 L 26.703125 16.601562 C 26.738281 16.621094 26.789062 16.648438 26.859375 16.679688 L 26.867188 16.679688 C 26.882812 16.6875 26.90625 16.695312 26.933594 16.703125 C 27.03125 16.730469 27.140625 16.765625 27.210938 16.835938 L 27.226562 16.851562 C 27.289062 16.925781 27.332031 17.109375 27.378906 17.296875 C 27.394531 17.375 27.414062 17.453125 27.433594 17.515625 L 28.070312 17.511719 C 28.085938 17.453125 28.105469 17.371094 28.125 17.292969 L 28.128906 17.277344 C 28.171875 17.097656 28.214844 16.925781 28.273438 16.851562 L 28.289062 16.835938 C 28.359375 16.765625 28.46875 16.730469 28.570312 16.703125 C 28.601562 16.691406 28.632812 16.679688 28.652344 16.675781 C 28.703125 16.652344 28.753906 16.625 28.792969 16.605469 L 28.808594 16.597656 L 28.820312 16.59375 C 28.832031 16.585938 28.84375 16.578125 28.855469 16.574219 C 28.917969 16.546875 28.96875 16.53125 29.042969 16.539062 C 29.132812 16.550781 29.191406 16.585938 29.316406 16.664062 C 29.347656 16.683594 29.382812 16.707031 29.460938 16.75 L 29.507812 16.777344 C 29.546875 16.804688 29.601562 16.835938 29.648438 16.863281 L 30.09375 16.414062 C 30.0625 16.363281 30.023438 16.296875 29.988281 16.238281 C 29.960938 16.1875 29.933594 16.144531 29.90625 16.097656 C 29.886719 16.0625 29.867188 16.023438 29.847656 15.996094 C 29.796875 15.902344 29.769531 15.859375 29.769531 15.773438 C 29.769531 15.695312 29.789062 15.65625 29.828125 15.582031 L 29.835938 15.570312 C 29.847656 15.542969 29.867188 15.507812 29.890625 15.449219 C 29.933594 15.359375 29.949219 15.296875 29.964844 15.253906 C 30.015625 15.082031 30.03125 15.027344 30.222656 14.976562 L 30.390625 14.933594 C 30.507812 14.902344 30.648438 14.867188 30.746094 14.839844 L 30.746094 14.199219 C 30.671875 14.179688 30.578125 14.15625 30.5 14.136719 C 30.433594 14.121094 30.375 14.105469 30.339844 14.097656 L 30.292969 14.082031 C 30.261719 14.074219 30.222656 14.066406 30.1875 14.054688 C 30.03125 14 30.019531 13.964844 29.984375 13.839844 L 29.976562 13.808594 C 29.914062 13.613281 29.863281 13.519531 29.832031 13.464844 C 29.800781 13.40625 29.777344 13.371094 29.773438 13.308594 C 29.757812 13.199219 29.792969 13.144531 29.875 13 C 29.949219 12.871094 30.015625 12.746094 30.085938 12.617188 L 29.648438 12.179688 C 29.570312 12.222656 29.464844 12.285156 29.394531 12.324219 C 29.34375 12.351562 29.296875 12.382812 29.25 12.410156 C 29.144531 12.46875 29.097656 12.5 29.007812 12.5 C 28.929688 12.5 28.882812 12.480469 28.800781 12.4375 C 28.773438 12.421875 28.738281 12.402344 28.679688 12.378906 C 28.589844 12.339844 28.527344 12.320312 28.480469 12.304688 L 28.472656 12.304688 C 28.308594 12.257812 28.257812 12.238281 28.207031 12.046875 L 28.167969 11.894531 C 28.136719 11.777344 28.097656 11.628906 28.070312 11.527344 L 27.429688 11.527344 C 27.414062 11.589844 27.394531 11.667969 27.378906 11.746094 C 27.332031 11.929688 27.289062 12.113281 27.226562 12.1875 L 27.214844 12.203125 C 27.148438 12.269531 27.019531 12.3125 26.910156 12.347656 L 26.902344 12.351562 C 26.863281 12.363281 26.828125 12.375 26.8125 12.382812 C 26.761719 12.40625 26.714844 12.429688 26.679688 12.449219 L 26.675781 12.449219 C 26.667969 12.453125 26.664062 12.457031 26.660156 12.457031 L 26.65625 12.457031 C 26.621094 12.476562 26.59375 12.488281 26.554688 12.496094 C 26.449219 12.519531 26.410156 12.496094 26.320312 12.445312 C 26.300781 12.433594 26.277344 12.421875 26.261719 12.410156 C 26.160156 12.351562 25.972656 12.242188 25.855469 12.175781 Z M 30.136719 9.789062 L 29.140625 9.789062 L 29.140625 11.988281 C 29.15625 11.980469 29.167969 11.96875 29.183594 11.960938 C 29.300781 11.894531 29.507812 11.773438 29.609375 11.734375 C 29.683594 11.699219 29.777344 11.714844 29.839844 11.777344 L 30.496094 12.433594 C 30.558594 12.496094 30.574219 12.597656 30.53125 12.679688 C 30.433594 12.855469 30.339844 13.035156 30.238281 13.207031 C 30.207031 13.269531 30.183594 13.226562 30.1875 13.257812 L 30.1875 13.261719 C 30.191406 13.277344 30.191406 13.25 30.199219 13.261719 C 30.234375 13.328125 30.296875 13.441406 30.371094 13.671875 L 30.457031 13.691406 C 30.492188 13.703125 30.542969 13.714844 30.601562 13.730469 C 30.761719 13.769531 30.96875 13.824219 31.050781 13.867188 C 31.117188 13.902344 31.164062 13.972656 31.164062 14.050781 L 31.164062 14.96875 C 31.171875 15.050781 31.128906 15.132812 31.054688 15.171875 C 30.972656 15.214844 30.695312 15.285156 30.496094 15.335938 L 30.367188 15.371094 C 30.347656 15.425781 30.324219 15.507812 30.277344 15.621094 C 30.25 15.679688 30.226562 15.726562 30.207031 15.765625 L 30.199219 15.773438 C 30.203125 15.773438 30.207031 15.777344 30.210938 15.785156 C 30.226562 15.808594 30.246094 15.839844 30.273438 15.894531 C 30.285156 15.914062 30.316406 15.964844 30.347656 16.019531 C 30.425781 16.148438 30.519531 16.304688 30.546875 16.402344 C 30.566406 16.472656 30.550781 16.554688 30.496094 16.609375 L 29.847656 17.257812 C 29.792969 17.3125 29.714844 17.339844 29.636719 17.316406 C 29.539062 17.289062 29.386719 17.199219 29.289062 17.136719 L 29.140625 17.046875 L 29.140625 19.25 L 30.136719 19.25 C 30.183594 18.625 30.457031 18.058594 30.878906 17.640625 C 31.34375 17.175781 31.984375 16.890625 32.691406 16.890625 C 33.402344 16.890625 34.042969 17.175781 34.507812 17.640625 C 34.972656 18.105469 35.257812 18.746094 35.257812 19.453125 C 35.257812 20.164062 34.972656 20.804688 34.507812 21.269531 C 34.042969 21.734375 33.402344 22.019531 32.691406 22.019531 C 31.984375 22.019531 31.34375 21.734375 30.878906 21.269531 C 30.460938 20.851562 30.1875 20.292969 30.136719 19.671875 L 28.929688 19.671875 C 28.816406 19.671875 28.722656 19.578125 28.722656 19.460938 L 28.722656 17.09375 L 28.691406 17.101562 C 28.652344 17.113281 28.613281 17.125 28.597656 17.128906 C 28.585938 17.164062 28.5625 17.265625 28.539062 17.375 L 28.535156 17.390625 C 28.492188 17.558594 28.453125 17.734375 28.402344 17.824219 C 28.367188 17.886719 28.296875 17.929688 28.21875 17.929688 L 27.289062 17.933594 C 27.214844 17.9375 27.140625 17.894531 27.101562 17.824219 C 27.054688 17.738281 27.011719 17.5625 26.972656 17.394531 L 26.90625 17.128906 C 26.886719 17.125 26.847656 17.113281 26.8125 17.101562 L 26.78125 17.09375 L 26.78125 19.460938 C 26.78125 19.578125 26.6875 19.671875 26.570312 19.671875 L 25.367188 19.671875 C 25.316406 20.292969 25.042969 20.851562 24.625 21.269531 C 24.160156 21.734375 23.519531 22.019531 22.8125 22.019531 C 22.101562 22.019531 21.460938 21.734375 20.996094 21.269531 C 20.53125 20.804688 20.246094 20.164062 20.246094 19.453125 C 20.246094 18.746094 20.53125 18.105469 20.996094 17.640625 C 21.460938 17.175781 22.101562 16.890625 22.8125 16.890625 C 23.519531 16.890625 24.160156 17.175781 24.625 17.640625 C 25.042969 18.058594 25.320312 18.625 25.367188 19.25 L 26.363281 19.25 L 26.363281 17.050781 C 26.332031 17.070312 26.296875 17.089844 26.261719 17.109375 L 26.207031 17.140625 C 26.109375 17.203125 25.957031 17.292969 25.867188 17.316406 C 25.796875 17.335938 25.71875 17.320312 25.664062 17.261719 L 25.007812 16.609375 C 24.957031 16.554688 24.933594 16.480469 24.953125 16.402344 C 24.980469 16.304688 25.089844 16.128906 25.167969 15.996094 L 25.214844 15.914062 L 25.222656 15.902344 C 25.242188 15.867188 25.265625 15.824219 25.289062 15.792969 C 25.292969 15.777344 25.300781 15.777344 25.304688 15.777344 L 25.296875 15.769531 L 25.296875 15.765625 C 25.277344 15.726562 25.25 15.675781 25.226562 15.621094 C 25.1875 15.53125 25.167969 15.460938 25.148438 15.40625 C 25.140625 15.382812 25.214844 15.394531 25.1875 15.382812 L 25.179688 15.382812 C 25.136719 15.367188 25.039062 15.34375 24.933594 15.316406 C 24.75 15.273438 24.542969 15.222656 24.449219 15.171875 C 24.386719 15.136719 24.339844 15.066406 24.339844 14.988281 L 24.339844 14.070312 C 24.332031 13.988281 24.371094 13.90625 24.449219 13.867188 C 24.527344 13.824219 24.8125 13.753906 25.019531 13.699219 L 25.136719 13.667969 C 25.152344 13.613281 25.175781 13.53125 25.226562 13.421875 C 25.253906 13.363281 25.277344 13.3125 25.300781 13.273438 C 25.308594 13.253906 25.3125 13.296875 25.3125 13.269531 C 25.3125 13.242188 25.304688 13.28125 25.289062 13.25 C 25.273438 13.230469 25.257812 13.203125 25.234375 13.15625 L 25.226562 13.144531 C 25.183594 13.058594 25.15625 13.011719 25.128906 12.96875 C 25.078125 12.878906 25.027344 12.792969 24.976562 12.683594 C 24.929688 12.605469 24.941406 12.5 25.007812 12.429688 L 25.664062 11.777344 C 25.714844 11.726562 25.792969 11.703125 25.867188 11.722656 C 25.945312 11.746094 26.1875 11.882812 26.363281 11.984375 L 26.363281 9.789062 L 25.367188 9.789062 C 25.316406 10.410156 25.042969 10.96875 24.625 11.386719 C 24.160156 11.851562 23.519531 12.136719 22.8125 12.136719 C 22.101562 12.136719 21.460938 11.851562 20.996094 11.386719 C 20.53125 10.921875 20.246094 10.28125 20.246094 9.574219 C 20.246094 8.863281 20.53125 8.222656 20.996094 7.757812 C 21.460938 7.292969 22.101562 7.007812 22.8125 7.007812 C 23.519531 7.007812 24.160156 7.292969 24.625 7.757812 C 25.042969 8.179688 25.320312 8.742188 25.367188 9.371094 L 26.570312 9.371094 C 26.6875 9.371094 26.78125 9.464844 26.78125 9.578125 L 26.78125 11.949219 C 26.832031 11.933594 26.882812 11.917969 26.90625 11.910156 L 26.96875 11.648438 C 27.007812 11.492188 27.046875 11.332031 27.089844 11.238281 C 27.121094 11.164062 27.195312 11.109375 27.285156 11.109375 L 28.21875 11.109375 C 28.292969 11.109375 28.363281 11.148438 28.402344 11.214844 C 28.445312 11.292969 28.519531 11.585938 28.574219 11.789062 L 28.601562 11.90625 C 28.632812 11.914062 28.671875 11.925781 28.722656 11.941406 L 28.722656 9.578125 C 28.722656 9.464844 28.816406 9.371094 28.929688 9.371094 L 30.136719 9.371094 C 30.183594 8.742188 30.457031 8.179688 30.878906 7.757812 C 31.34375 7.292969 31.984375 7.007812 32.691406 7.007812 C 33.402344 7.007812 34.042969 7.292969 34.507812 7.757812 C 34.972656 8.222656 35.257812 8.863281 35.257812 9.574219 C 35.257812 10.28125 34.972656 10.921875 34.507812 11.386719 C 34.042969 11.851562 33.402344 12.136719 32.691406 12.136719 C 31.984375 12.136719 31.34375 11.851562 30.878906 11.386719 C 30.460938 10.96875 30.1875 10.410156 30.136719 9.789062 Z M 34.210938 17.9375 C 34.597656 18.324219 34.839844 18.863281 34.839844 19.453125 C 34.839844 20.046875 34.597656 20.582031 34.210938 20.972656 C 33.820312 21.359375 33.285156 21.601562 32.691406 21.601562 C 32.101562 21.601562 31.5625 21.359375 31.175781 20.972656 C 30.789062 20.582031 30.546875 20.046875 30.546875 19.453125 C 30.546875 18.863281 30.789062 18.324219 31.175781 17.9375 C 31.5625 17.550781 32.101562 17.308594 32.691406 17.308594 C 33.285156 17.308594 33.820312 17.550781 34.210938 17.9375 Z M 32.691406 17.988281 C 32.46875 17.988281 32.261719 18.078125 32.109375 18.222656 L 32.097656 18.234375 C 31.945312 18.386719 31.851562 18.597656 31.851562 18.828125 C 31.851562 19.054688 31.9375 19.257812 32.082031 19.40625 C 31.988281 19.453125 31.902344 19.511719 31.824219 19.574219 C 31.582031 19.769531 31.402344 20.042969 31.324219 20.351562 C 31.304688 20.421875 31.304688 20.492188 31.320312 20.558594 C 31.332031 20.625 31.363281 20.6875 31.40625 20.746094 L 31.421875 20.761719 C 31.460938 20.8125 31.511719 20.847656 31.566406 20.875 L 31.585938 20.886719 C 31.644531 20.910156 31.703125 20.921875 31.765625 20.921875 L 33.617188 20.921875 C 33.679688 20.921875 33.742188 20.910156 33.796875 20.886719 L 33.820312 20.875 C 33.875 20.847656 33.921875 20.8125 33.964844 20.761719 L 33.980469 20.746094 C 34.023438 20.6875 34.050781 20.625 34.066406 20.558594 C 34.082031 20.492188 34.078125 20.421875 34.0625 20.351562 C 33.984375 20.042969 33.804688 19.769531 33.5625 19.574219 C 33.484375 19.511719 33.394531 19.453125 33.304688 19.40625 C 33.445312 19.257812 33.535156 19.054688 33.535156 18.828125 C 33.535156 18.597656 33.441406 18.386719 33.289062 18.234375 C 33.136719 18.082031 32.925781 17.988281 32.691406 17.988281 Z M 32.703125 19.671875 L 32.683594 19.671875 C 32.457031 19.683594 32.25 19.769531 32.085938 19.902344 C 31.914062 20.039062 31.785156 20.234375 31.730469 20.453125 C 31.730469 20.460938 31.730469 20.46875 31.730469 20.472656 C 31.730469 20.476562 31.734375 20.480469 31.738281 20.488281 L 31.742188 20.492188 L 31.753906 20.5 L 33.632812 20.5 L 33.644531 20.492188 L 33.648438 20.488281 C 33.652344 20.480469 33.65625 20.476562 33.65625 20.472656 C 33.65625 20.46875 33.65625 20.460938 33.65625 20.453125 C 33.597656 20.234375 33.472656 20.039062 33.300781 19.902344 C 33.132812 19.769531 32.925781 19.683594 32.703125 19.671875 Z M 32.992188 18.53125 C 32.914062 18.457031 32.808594 18.40625 32.691406 18.40625 C 32.578125 18.40625 32.476562 18.453125 32.402344 18.523438 L 32.394531 18.53125 C 32.316406 18.609375 32.269531 18.714844 32.269531 18.828125 C 32.269531 18.945312 32.316406 19.050781 32.394531 19.128906 C 32.46875 19.203125 32.574219 19.25 32.691406 19.25 C 32.808594 19.25 32.914062 19.203125 32.992188 19.128906 C 33.066406 19.050781 33.113281 18.945312 33.113281 18.828125 C 33.113281 18.714844 33.066406 18.609375 32.992188 18.53125 Z M 34.210938 8.054688 C 34.597656 8.445312 34.839844 8.980469 34.839844 9.574219 C 34.839844 10.164062 34.597656 10.703125 34.210938 11.089844 C 33.820312 11.476562 33.285156 11.71875 32.691406 11.71875 C 32.101562 11.71875 31.5625 11.476562 31.175781 11.089844 C 30.789062 10.703125 30.546875 10.164062 30.546875 9.574219 C 30.546875 8.980469 30.789062 8.445312 31.175781 8.054688 C 31.5625 7.667969 32.101562 7.425781 32.691406 7.425781 C 33.285156 7.425781 33.820312 7.667969 34.210938 8.054688 Z M 32.691406 8.105469 C 32.46875 8.105469 32.261719 8.195312 32.109375 8.339844 L 32.097656 8.351562 C 31.945312 8.503906 31.851562 8.714844 31.851562 8.949219 C 31.851562 9.171875 31.9375 9.375 32.082031 9.527344 C 31.988281 9.574219 31.902344 9.628906 31.824219 9.691406 C 31.582031 9.890625 31.402344 10.160156 31.324219 10.472656 C 31.304688 10.539062 31.304688 10.609375 31.320312 10.675781 C 31.332031 10.742188 31.363281 10.808594 31.40625 10.863281 L 31.421875 10.878906 C 31.460938 10.929688 31.511719 10.964844 31.566406 10.992188 C 31.628906 11.023438 31.695312 11.039062 31.765625 11.039062 L 33.617188 11.039062 C 33.679688 11.039062 33.742188 11.027344 33.796875 11.003906 L 33.820312 10.992188 C 33.875 10.96875 33.921875 10.929688 33.964844 10.878906 L 33.980469 10.863281 C 34.023438 10.808594 34.050781 10.742188 34.066406 10.675781 C 34.082031 10.609375 34.078125 10.539062 34.0625 10.472656 C 33.984375 10.160156 33.804688 9.890625 33.5625 9.691406 C 33.484375 9.628906 33.394531 9.574219 33.304688 9.527344 C 33.445312 9.375 33.535156 9.171875 33.535156 8.949219 C 33.535156 8.714844 33.441406 8.503906 33.289062 8.351562 C 33.136719 8.199219 32.925781 8.105469 32.691406 8.105469 Z M 32.703125 9.789062 L 32.683594 9.789062 C 32.457031 9.800781 32.25 9.886719 32.085938 10.019531 C 31.914062 10.160156 31.785156 10.351562 31.730469 10.574219 C 31.730469 10.582031 31.730469 10.585938 31.730469 10.589844 C 31.730469 10.59375 31.734375 10.597656 31.738281 10.605469 L 31.75 10.617188 C 31.753906 10.617188 31.757812 10.621094 31.765625 10.621094 L 33.617188 10.621094 L 33.632812 10.617188 L 33.644531 10.609375 L 33.648438 10.605469 C 33.652344 10.597656 33.65625 10.59375 33.65625 10.589844 C 33.65625 10.585938 33.65625 10.582031 33.65625 10.574219 C 33.597656 10.351562 33.472656 10.160156 33.300781 10.019531 C 33.132812 9.886719 32.925781 9.800781 32.703125 9.789062 Z M 32.992188 8.648438 C 32.914062 8.574219 32.808594 8.527344 32.691406 8.527344 C 32.578125 8.527344 32.476562 8.570312 32.402344 8.640625 L 32.394531 8.648438 C 32.316406 8.726562 32.269531 8.832031 32.269531 8.949219 C 32.269531 9.066406 32.316406 9.171875 32.394531 9.246094 C 32.46875 9.324219 32.574219 9.371094 32.691406 9.371094 C 32.808594 9.371094 32.914062 9.324219 32.992188 9.246094 C 33.066406 9.171875 33.113281 9.066406 33.113281 8.949219 C 33.113281 8.832031 33.066406 8.726562 32.992188 8.648438 Z M 24.328125 17.9375 C 24.714844 18.324219 24.957031 18.863281 24.957031 19.453125 C 24.957031 20.046875 24.714844 20.582031 24.328125 20.972656 C 23.9375 21.359375 23.402344 21.601562 22.8125 21.601562 C 22.21875 21.601562 21.683594 21.359375 21.292969 20.972656 C 20.90625 20.582031 20.664062 20.046875 20.664062 19.453125 C 20.664062 18.863281 20.90625 18.324219 21.292969 17.9375 C 21.683594 17.550781 22.21875 17.308594 22.8125 17.308594 C 23.402344 17.308594 23.9375 17.550781 24.328125 17.9375 Z M 22.8125 17.988281 C 22.585938 17.988281 22.378906 18.078125 22.226562 18.222656 L 22.214844 18.234375 C 22.0625 18.386719 21.96875 18.597656 21.96875 18.828125 C 21.96875 19.054688 22.054688 19.257812 22.199219 19.40625 C 22.105469 19.453125 22.019531 19.511719 21.941406 19.574219 C 21.699219 19.769531 21.519531 20.042969 21.441406 20.351562 C 21.425781 20.421875 21.421875 20.492188 21.4375 20.558594 C 21.449219 20.625 21.480469 20.6875 21.523438 20.746094 C 21.566406 20.800781 21.621094 20.84375 21.683594 20.875 C 21.746094 20.90625 21.8125 20.921875 21.882812 20.921875 L 23.738281 20.921875 C 23.808594 20.921875 23.875 20.90625 23.9375 20.875 C 24 20.84375 24.054688 20.800781 24.097656 20.746094 C 24.140625 20.6875 24.171875 20.625 24.183594 20.558594 C 24.199219 20.492188 24.195312 20.421875 24.179688 20.351562 C 24.101562 20.042969 23.921875 19.769531 23.679688 19.574219 C 23.601562 19.511719 23.515625 19.453125 23.421875 19.410156 C 23.566406 19.257812 23.652344 19.054688 23.652344 18.828125 C 23.652344 18.597656 23.558594 18.386719 23.40625 18.234375 C 23.253906 18.082031 23.042969 17.988281 22.8125 17.988281 Z M 22.820312 19.671875 L 22.800781 19.671875 C 22.574219 19.683594 22.367188 19.769531 22.203125 19.902344 C 22.03125 20.039062 21.90625 20.234375 21.847656 20.453125 C 21.847656 20.460938 21.847656 20.46875 21.847656 20.472656 C 21.847656 20.476562 21.851562 20.480469 21.855469 20.488281 C 21.859375 20.492188 21.863281 20.496094 21.867188 20.5 C 21.871094 20.5 21.875 20.5 21.882812 20.5 L 23.738281 20.5 C 23.746094 20.5 23.75 20.5 23.753906 20.5 C 23.757812 20.496094 23.761719 20.492188 23.765625 20.488281 C 23.769531 20.480469 23.773438 20.476562 23.773438 20.472656 C 23.773438 20.46875 23.773438 20.460938 23.773438 20.453125 C 23.714844 20.234375 23.589844 20.039062 23.417969 19.902344 C 23.253906 19.769531 23.046875 19.683594 22.820312 19.671875 Z M 23.109375 18.53125 C 23.03125 18.457031 22.925781 18.40625 22.8125 18.40625 C 22.699219 18.40625 22.597656 18.453125 22.519531 18.523438 L 22.511719 18.53125 C 22.4375 18.609375 22.386719 18.714844 22.386719 18.828125 C 22.386719 18.945312 22.4375 19.050781 22.511719 19.128906 C 22.589844 19.203125 22.695312 19.25 22.8125 19.25 C 22.925781 19.25 23.03125 19.203125 23.109375 19.128906 C 23.183594 19.050781 23.234375 18.945312 23.234375 18.828125 C 23.234375 18.714844 23.183594 18.609375 23.109375 18.53125 Z M 24.328125 8.054688 C 24.714844 8.445312 24.957031 8.980469 24.957031 9.574219 C 24.957031 10.164062 24.714844 10.703125 24.328125 11.089844 C 23.9375 11.476562 23.402344 11.71875 22.8125 11.71875 C 22.21875 11.71875 21.683594 11.476562 21.292969 11.089844 C 20.90625 10.703125 20.664062 10.164062 20.664062 9.574219 C 20.664062 8.980469 20.90625 8.445312 21.292969 8.054688 C 21.683594 7.667969 22.21875 7.425781 22.8125 7.425781 C 23.402344 7.425781 23.9375 7.667969 24.328125 8.054688 Z M 22.8125 8.105469 C 22.585938 8.105469 22.378906 8.195312 22.226562 8.339844 L 22.214844 8.351562 C 22.0625 8.503906 21.96875 8.714844 21.96875 8.949219 C 21.96875 9.171875 22.054688 9.375 22.199219 9.527344 C 22.105469 9.574219 22.019531 9.628906 21.941406 9.691406 C 21.699219 9.890625 21.519531 10.160156 21.441406 10.472656 C 21.425781 10.539062 21.421875 10.609375 21.4375 10.675781 C 21.449219 10.742188 21.480469 10.804688 21.523438 10.863281 C 21.566406 10.917969 21.621094 10.960938 21.683594 10.992188 C 21.746094 11.023438 21.8125 11.039062 21.882812 11.039062 L 23.738281 11.039062 C 23.808594 11.039062 23.875 11.023438 23.9375 10.992188 C 24 10.960938 24.054688 10.917969 24.097656 10.863281 C 24.140625 10.804688 24.171875 10.742188 24.183594 10.675781 C 24.199219 10.609375 24.195312 10.539062 24.179688 10.472656 C 24.101562 10.160156 23.921875 9.890625 23.679688 9.691406 C 23.601562 9.628906 23.515625 9.574219 23.421875 9.527344 C 23.566406 9.375 23.652344 9.171875 23.652344 8.949219 C 23.652344 8.714844 23.558594 8.503906 23.40625 8.351562 C 23.253906 8.199219 23.042969 8.105469 22.8125 8.105469 Z M 22.820312 9.789062 L 22.800781 9.789062 C 22.574219 9.800781 22.367188 9.886719 22.203125 10.019531 C 22.03125 10.160156 21.90625 10.351562 21.847656 10.574219 C 21.847656 10.582031 21.847656 10.585938 21.847656 10.589844 C 21.847656 10.59375 21.851562 10.601562 21.855469 10.605469 C 21.859375 10.613281 21.863281 10.617188 21.867188 10.617188 C 21.871094 10.617188 21.875 10.621094 21.882812 10.621094 L 23.738281 10.621094 C 23.746094 10.621094 23.75 10.617188 23.753906 10.617188 C 23.757812 10.617188 23.761719 10.613281 23.765625 10.605469 C 23.769531 10.601562 23.773438 10.59375 23.773438 10.589844 C 23.773438 10.585938 23.773438 10.582031 23.773438 10.574219 C 23.714844 10.351562 23.589844 10.160156 23.417969 10.019531 C 23.253906 9.886719 23.046875 9.800781 22.820312 9.789062 Z M 23.109375 8.648438 C 23.03125 8.574219 22.925781 8.527344 22.8125 8.527344 C 22.699219 8.527344 22.597656 8.570312 22.519531 8.640625 L 22.511719 8.648438 C 22.4375 8.726562 22.386719 8.832031 22.386719 8.949219 C 22.386719 9.066406 22.4375 9.171875 22.511719 9.246094 C 22.589844 9.324219 22.695312 9.371094 22.8125 9.371094 C 22.925781 9.371094 23.03125 9.324219 23.109375 9.246094 C 23.183594 9.171875 23.234375 9.066406 23.234375 8.949219 C 23.234375 8.832031 23.183594 8.726562 23.109375 8.648438 Z M 27.75 12.875 C 28.207031 12.875 28.617188 13.058594 28.914062 13.359375 C 29.210938 13.65625 29.394531 14.066406 29.394531 14.519531 C 29.394531 14.976562 29.210938 15.386719 28.914062 15.683594 C 28.617188 15.980469 28.207031 16.164062 27.75 16.164062 C 27.296875 16.164062 26.886719 15.980469 26.589844 15.683594 C 26.289062 15.386719 26.105469 14.976562 26.105469 14.519531 C 26.105469 14.066406 26.289062 13.65625 26.589844 13.359375 C 26.886719 13.058594 27.296875 12.875 27.75 12.875 Z M 28.617188 13.65625 C 28.839844 13.875 28.976562 14.183594 28.976562 14.519531 C 28.976562 14.859375 28.839844 15.164062 28.617188 15.386719 C 28.394531 15.609375 28.089844 15.746094 27.75 15.746094 C 27.414062 15.746094 27.105469 15.609375 26.886719 15.386719 C 26.664062 15.164062 26.527344 14.859375 26.527344 14.519531 C 26.527344 14.183594 26.664062 13.875 26.886719 13.65625 C 27.105469 13.433594 27.414062 13.296875 27.75 13.296875 C 28.089844 13.296875 28.394531 13.433594 28.617188 13.65625 Z M 30.1875 15.769531 L 30.191406 15.773438 Z M 30.1875 15.769531 L 30.195312 15.777344 C 30.191406 15.78125 30.1875 15.785156 30.1875 15.769531 Z M 30.335938 15.378906 C 30.300781 15.386719 30.367188 15.371094 30.367188 15.371094 Z M 30.335938 15.378906 " fill-opacity="1" fill-rule="evenodd"/></g></svg>