<svg xmlns="http://www.w3.org/2000/svg" xmlns:xlink="http://www.w3.org/1999/xlink" width="150" zoomAndPan="magnify" viewBox="0 0 112.5 30.000001" height="40" preserveAspectRatio="xMidYMid meet" version="1.0"><defs><g/><clipPath id="a0b20cdab0"><path d="M 1.574219 0 L 110.445312 0 L 110.445312 29.03125 L 1.574219 29.03125 Z M 1.574219 0 " clip-rule="nonzero"/></clipPath><clipPath id="09c3a8e0b7"><rect x="0" width="68" y="0" height="12"/></clipPath><clipPath id="c604a02093"><path d="M 14.050781 5.460938 L 32.195312 5.460938 L 32.195312 23.605469 L 14.050781 23.605469 Z M 14.050781 5.460938 " clip-rule="nonzero"/></clipPath></defs><g clip-path="url(#a0b20cdab0)"><path fill="#ffffff" d="M 1.574219 0 L 110.445312 0 L 110.445312 29.03125 L 1.574219 29.03125 Z M 1.574219 0 " fill-opacity="1" fill-rule="nonzero"/><path fill="#ffffff" d="M 1.574219 0 L 110.445312 0 L 110.445312 29.03125 L 1.574219 29.03125 Z M 1.574219 0 " fill-opacity="1" fill-rule="nonzero"/></g><g transform="matrix(1, 0, 0, 1, 36, 8)"><g clip-path="url(#09c3a8e0b7)"><g fill="#545454" fill-opacity="1"><g transform="translate(1.169353, 9.096777)"><g><path d="M 2.703125 -5.515625 C 3.597656 -5.515625 4.28125 -5.28125 4.75 -4.8125 C 5.226562 -4.351562 5.46875 -3.671875 5.46875 -2.765625 C 5.46875 -1.847656 5.226562 -1.15625 4.75 -0.6875 C 4.28125 -0.226562 3.597656 0 2.703125 0 L 0.71875 0 L 0.71875 -5.515625 Z M 2.640625 -0.921875 C 3.210938 -0.921875 3.640625 -1.066406 3.921875 -1.359375 C 4.203125 -1.648438 4.34375 -2.117188 4.34375 -2.765625 C 4.34375 -3.410156 4.203125 -3.878906 3.921875 -4.171875 C 3.640625 -4.460938 3.210938 -4.609375 2.640625 -4.609375 L 1.8125 -4.609375 L 1.8125 -0.921875 Z M 2.640625 -0.921875 "/></g></g><g transform="translate(7.077871, 9.096777)"><g><path d="M 1.125 -4.65625 C 0.9375 -4.65625 0.78125 -4.710938 0.65625 -4.828125 C 0.539062 -4.941406 0.484375 -5.09375 0.484375 -5.28125 C 0.484375 -5.457031 0.539062 -5.601562 0.65625 -5.71875 C 0.78125 -5.832031 0.9375 -5.890625 1.125 -5.890625 C 1.25 -5.890625 1.359375 -5.863281 1.453125 -5.8125 C 1.554688 -5.757812 1.632812 -5.6875 1.6875 -5.59375 C 1.738281 -5.5 1.765625 -5.394531 1.765625 -5.28125 C 1.765625 -5.164062 1.738281 -5.0625 1.6875 -4.96875 C 1.632812 -4.875 1.554688 -4.796875 1.453125 -4.734375 C 1.359375 -4.679688 1.25 -4.65625 1.125 -4.65625 Z M 0.59375 0 L 0.59375 -4.171875 L 1.640625 -4.171875 L 1.640625 0 Z M 0.59375 0 "/></g></g><g transform="translate(9.323335, 9.096777)"><g><path d="M 2.15625 1.765625 C 1.46875 1.765625 0.957031 1.660156 0.625 1.453125 C 0.300781 1.253906 0.140625 0.976562 0.140625 0.625 C 0.140625 0.40625 0.207031 0.222656 0.34375 0.078125 C 0.488281 -0.0546875 0.691406 -0.148438 0.953125 -0.203125 L 0.953125 -0.28125 C 0.816406 -0.363281 0.71875 -0.457031 0.65625 -0.5625 C 0.59375 -0.664062 0.5625 -0.785156 0.5625 -0.921875 C 0.5625 -1.253906 0.78125 -1.476562 1.21875 -1.59375 L 1.21875 -1.6875 C 0.988281 -1.8125 0.816406 -1.96875 0.703125 -2.15625 C 0.597656 -2.34375 0.546875 -2.570312 0.546875 -2.84375 C 0.546875 -3.125 0.609375 -3.367188 0.734375 -3.578125 C 0.859375 -3.785156 1.039062 -3.945312 1.28125 -4.0625 C 1.53125 -4.1875 1.828125 -4.25 2.171875 -4.25 C 2.515625 -4.25 2.789062 -4.1875 3 -4.0625 C 3.125 -4.25 3.195312 -4.460938 3.21875 -4.703125 L 3.296875 -4.765625 L 4.0625 -4.578125 C 4.03125 -4.378906 3.96875 -4.210938 3.875 -4.078125 C 3.789062 -3.941406 3.648438 -3.820312 3.453125 -3.71875 L 3.453125 -3.625 C 3.679688 -3.414062 3.796875 -3.128906 3.796875 -2.765625 C 3.796875 -2.503906 3.726562 -2.269531 3.59375 -2.0625 C 3.46875 -1.863281 3.28125 -1.703125 3.03125 -1.578125 C 2.789062 -1.460938 2.503906 -1.40625 2.171875 -1.40625 L 2.015625 -1.421875 C 1.910156 -1.421875 1.835938 -1.421875 1.796875 -1.421875 C 1.703125 -1.421875 1.628906 -1.394531 1.578125 -1.34375 C 1.523438 -1.289062 1.5 -1.222656 1.5 -1.140625 C 1.5 -1.054688 1.53125 -0.988281 1.59375 -0.9375 C 1.664062 -0.894531 1.769531 -0.867188 1.90625 -0.859375 L 2.84375 -0.828125 C 3.757812 -0.796875 4.21875 -0.398438 4.21875 0.359375 C 4.21875 0.628906 4.148438 0.867188 4.015625 1.078125 C 3.878906 1.285156 3.65625 1.453125 3.34375 1.578125 C 3.039062 1.703125 2.644531 1.765625 2.15625 1.765625 Z M 2.171875 -2.140625 C 2.367188 -2.140625 2.523438 -2.195312 2.640625 -2.3125 C 2.753906 -2.4375 2.8125 -2.609375 2.8125 -2.828125 C 2.8125 -3.046875 2.753906 -3.210938 2.640625 -3.328125 C 2.523438 -3.453125 2.367188 -3.515625 2.171875 -3.515625 C 1.960938 -3.515625 1.800781 -3.453125 1.6875 -3.328125 C 1.582031 -3.210938 1.53125 -3.046875 1.53125 -2.828125 C 1.53125 -2.609375 1.582031 -2.4375 1.6875 -2.3125 C 1.800781 -2.195312 1.960938 -2.140625 2.171875 -2.140625 Z M 2.15625 1.015625 C 2.519531 1.015625 2.78125 0.960938 2.9375 0.859375 C 3.101562 0.753906 3.1875 0.625 3.1875 0.46875 C 3.1875 0.332031 3.144531 0.234375 3.0625 0.171875 C 2.976562 0.109375 2.84375 0.078125 2.65625 0.078125 L 1.84375 0.03125 C 1.8125 0.03125 1.78125 0.03125 1.75 0.03125 C 1.726562 0.03125 1.707031 0.03125 1.6875 0.03125 C 1.507812 0.03125 1.375 0.0664062 1.28125 0.140625 C 1.195312 0.210938 1.15625 0.316406 1.15625 0.453125 C 1.15625 0.628906 1.238281 0.765625 1.40625 0.859375 C 1.570312 0.960938 1.820312 1.015625 2.15625 1.015625 Z M 2.15625 1.015625 "/></g></g><g transform="translate(13.659273, 9.096777)"><g><path d="M 1.125 -4.65625 C 0.9375 -4.65625 0.78125 -4.710938 0.65625 -4.828125 C 0.539062 -4.941406 0.484375 -5.09375 0.484375 -5.28125 C 0.484375 -5.457031 0.539062 -5.601562 0.65625 -5.71875 C 0.78125 -5.832031 0.9375 -5.890625 1.125 -5.890625 C 1.25 -5.890625 1.359375 -5.863281 1.453125 -5.8125 C 1.554688 -5.757812 1.632812 -5.6875 1.6875 -5.59375 C 1.738281 -5.5 1.765625 -5.394531 1.765625 -5.28125 C 1.765625 -5.164062 1.738281 -5.0625 1.6875 -4.96875 C 1.632812 -4.875 1.554688 -4.796875 1.453125 -4.734375 C 1.359375 -4.679688 1.25 -4.65625 1.125 -4.65625 Z M 0.59375 0 L 0.59375 -4.171875 L 1.640625 -4.171875 L 1.640625 0 Z M 0.59375 0 "/></g></g><g transform="translate(15.904736, 9.096777)"><g><path d="M 2.875 -1 L 3.140625 -0.21875 C 3.023438 -0.125 2.882812 -0.0507812 2.71875 0 C 2.550781 0.0507812 2.359375 0.078125 2.140625 0.078125 C 1.691406 0.078125 1.347656 -0.0390625 1.109375 -0.28125 C 0.878906 -0.53125 0.765625 -0.890625 0.765625 -1.359375 L 0.765625 -3.34375 L 0.125 -3.34375 L 0.125 -4.171875 L 0.765625 -4.171875 L 0.765625 -4.984375 L 1.8125 -5.15625 L 1.8125 -4.171875 L 2.984375 -4.171875 L 2.984375 -3.34375 L 1.8125 -3.34375 L 1.8125 -1.4375 C 1.8125 -1.226562 1.851562 -1.078125 1.9375 -0.984375 C 2.019531 -0.890625 2.144531 -0.84375 2.3125 -0.84375 C 2.5 -0.84375 2.660156 -0.894531 2.796875 -1 Z M 2.875 -1 "/></g></g><g transform="translate(19.144404, 9.096777)"><g><path d="M 1.625 0.078125 C 1.351562 0.078125 1.117188 0.03125 0.921875 -0.0625 C 0.734375 -0.164062 0.582031 -0.3125 0.46875 -0.5 C 0.363281 -0.6875 0.3125 -0.914062 0.3125 -1.1875 C 0.3125 -1.4375 0.363281 -1.644531 0.46875 -1.8125 C 0.582031 -1.976562 0.75 -2.113281 0.96875 -2.21875 C 1.1875 -2.320312 1.472656 -2.40625 1.828125 -2.46875 C 2.078125 -2.507812 2.265625 -2.550781 2.390625 -2.59375 C 2.523438 -2.644531 2.613281 -2.695312 2.65625 -2.75 C 2.707031 -2.8125 2.734375 -2.890625 2.734375 -2.984375 C 2.734375 -3.117188 2.6875 -3.222656 2.59375 -3.296875 C 2.5 -3.367188 2.34375 -3.40625 2.125 -3.40625 C 1.894531 -3.40625 1.675781 -3.351562 1.46875 -3.25 C 1.257812 -3.144531 1.078125 -3.007812 0.921875 -2.84375 L 0.84375 -2.84375 L 0.40625 -3.5 C 0.625 -3.738281 0.882812 -3.921875 1.1875 -4.046875 C 1.488281 -4.179688 1.820312 -4.25 2.1875 -4.25 C 2.738281 -4.25 3.132812 -4.128906 3.375 -3.890625 C 3.625 -3.660156 3.75 -3.328125 3.75 -2.890625 L 3.75 -1.09375 C 3.75 -0.90625 3.832031 -0.8125 4 -0.8125 C 4.0625 -0.8125 4.125 -0.820312 4.1875 -0.84375 L 4.234375 -0.828125 L 4.3125 -0.09375 C 4.25 -0.0625 4.164062 -0.03125 4.0625 0 C 3.957031 0.0195312 3.847656 0.03125 3.734375 0.03125 C 3.484375 0.03125 3.285156 -0.015625 3.140625 -0.109375 C 3.003906 -0.203125 2.90625 -0.351562 2.84375 -0.5625 L 2.765625 -0.5625 C 2.554688 -0.132812 2.175781 0.078125 1.625 0.078125 Z M 1.953125 -0.703125 C 2.191406 -0.703125 2.382812 -0.78125 2.53125 -0.9375 C 2.675781 -1.101562 2.75 -1.332031 2.75 -1.625 L 2.75 -2.046875 L 2.6875 -2.0625 C 2.625 -2.007812 2.539062 -1.96875 2.4375 -1.9375 C 2.332031 -1.90625 2.1875 -1.867188 2 -1.828125 C 1.769531 -1.796875 1.601562 -1.734375 1.5 -1.640625 C 1.40625 -1.546875 1.359375 -1.414062 1.359375 -1.25 C 1.359375 -1.070312 1.410156 -0.9375 1.515625 -0.84375 C 1.617188 -0.75 1.765625 -0.703125 1.953125 -0.703125 Z M 1.953125 -0.703125 "/></g></g><g transform="translate(23.540825, 9.096777)"><g><path d="M 1.734375 0.078125 C 1.359375 0.078125 1.070312 -0.0195312 0.875 -0.21875 C 0.675781 -0.425781 0.578125 -0.734375 0.578125 -1.140625 L 0.578125 -5.84375 L 1.625 -5.84375 L 1.625 -1.1875 C 1.625 -0.9375 1.726562 -0.8125 1.9375 -0.8125 C 2 -0.8125 2.0625 -0.820312 2.125 -0.84375 L 2.1875 -0.828125 L 2.28125 -0.015625 C 2.21875 0.015625 2.140625 0.0351562 2.046875 0.046875 C 1.953125 0.0664062 1.847656 0.078125 1.734375 0.078125 Z M 1.734375 0.078125 "/></g></g><g transform="translate(25.937499, 9.096777)"><g/></g><g transform="translate(27.763356, 9.096777)"><g><path d="M 1.71875 0 L 0.71875 0 L 0.71875 -5.515625 L 2.140625 -5.515625 L 3.546875 -1.46875 L 3.625 -1.46875 L 5.015625 -5.515625 L 6.40625 -5.515625 L 6.40625 0 L 5.375 0 L 5.375 -3.640625 L 5.28125 -3.65625 L 4 0 L 3.09375 0 L 1.8125 -3.65625 L 1.71875 -3.640625 Z M 1.71875 0 "/></g></g><g transform="translate(34.896672, 9.096777)"><g><path d="M 1.625 0.078125 C 1.351562 0.078125 1.117188 0.03125 0.921875 -0.0625 C 0.734375 -0.164062 0.582031 -0.3125 0.46875 -0.5 C 0.363281 -0.6875 0.3125 -0.914062 0.3125 -1.1875 C 0.3125 -1.4375 0.363281 -1.644531 0.46875 -1.8125 C 0.582031 -1.976562 0.75 -2.113281 0.96875 -2.21875 C 1.1875 -2.320312 1.472656 -2.40625 1.828125 -2.46875 C 2.078125 -2.507812 2.265625 -2.550781 2.390625 -2.59375 C 2.523438 -2.644531 2.613281 -2.695312 2.65625 -2.75 C 2.707031 -2.8125 2.734375 -2.890625 2.734375 -2.984375 C 2.734375 -3.117188 2.6875 -3.222656 2.59375 -3.296875 C 2.5 -3.367188 2.34375 -3.40625 2.125 -3.40625 C 1.894531 -3.40625 1.675781 -3.351562 1.46875 -3.25 C 1.257812 -3.144531 1.078125 -3.007812 0.921875 -2.84375 L 0.84375 -2.84375 L 0.40625 -3.5 C 0.625 -3.738281 0.882812 -3.921875 1.1875 -4.046875 C 1.488281 -4.179688 1.820312 -4.25 2.1875 -4.25 C 2.738281 -4.25 3.132812 -4.128906 3.375 -3.890625 C 3.625 -3.660156 3.75 -3.328125 3.75 -2.890625 L 3.75 -1.09375 C 3.75 -0.90625 3.832031 -0.8125 4 -0.8125 C 4.0625 -0.8125 4.125 -0.820312 4.1875 -0.84375 L 4.234375 -0.828125 L 4.3125 -0.09375 C 4.25 -0.0625 4.164062 -0.03125 4.0625 0 C 3.957031 0.0195312 3.847656 0.03125 3.734375 0.03125 C 3.484375 0.03125 3.285156 -0.015625 3.140625 -0.109375 C 3.003906 -0.203125 2.90625 -0.351562 2.84375 -0.5625 L 2.765625 -0.5625 C 2.554688 -0.132812 2.175781 0.078125 1.625 0.078125 Z M 1.953125 -0.703125 C 2.191406 -0.703125 2.382812 -0.78125 2.53125 -0.9375 C 2.675781 -1.101562 2.75 -1.332031 2.75 -1.625 L 2.75 -2.046875 L 2.6875 -2.0625 C 2.625 -2.007812 2.539062 -1.96875 2.4375 -1.9375 C 2.332031 -1.90625 2.1875 -1.867188 2 -1.828125 C 1.769531 -1.796875 1.601562 -1.734375 1.5 -1.640625 C 1.40625 -1.546875 1.359375 -1.414062 1.359375 -1.25 C 1.359375 -1.070312 1.410156 -0.9375 1.515625 -0.84375 C 1.617188 -0.75 1.765625 -0.703125 1.953125 -0.703125 Z M 1.953125 -0.703125 "/></g></g><g transform="translate(39.293094, 9.096777)"><g><path d="M 0.59375 0 L 0.59375 -4.171875 L 1.609375 -4.171875 L 1.609375 -3.546875 L 1.703125 -3.53125 C 1.796875 -3.757812 1.925781 -3.925781 2.09375 -4.03125 C 2.257812 -4.144531 2.457031 -4.203125 2.6875 -4.203125 C 2.925781 -4.203125 3.109375 -4.160156 3.234375 -4.078125 L 3.046875 -3.1875 L 2.96875 -3.171875 C 2.90625 -3.191406 2.84375 -3.207031 2.78125 -3.21875 C 2.71875 -3.238281 2.640625 -3.25 2.546875 -3.25 C 2.253906 -3.25 2.03125 -3.144531 1.875 -2.9375 C 1.71875 -2.726562 1.640625 -2.398438 1.640625 -1.953125 L 1.640625 0 Z M 0.59375 0 "/></g></g><g transform="translate(42.563003, 9.096777)"><g><path d="M 0.59375 0 L 0.59375 -5.84375 L 1.640625 -5.84375 L 1.640625 -2.59375 L 1.75 -2.59375 L 2.953125 -4.171875 L 4.015625 -4.171875 L 4.015625 -4.078125 L 2.59375 -2.25 L 4.171875 -0.09375 L 4.171875 0 L 3.078125 0 L 1.75 -1.75 L 1.640625 -1.75 L 1.640625 0 Z M 0.59375 0 "/></g></g><g transform="translate(46.747731, 9.096777)"><g><path d="M 4.109375 -1.84375 L 1.4375 -1.84375 C 1.46875 -1.476562 1.570312 -1.210938 1.75 -1.046875 C 1.925781 -0.890625 2.164062 -0.8125 2.46875 -0.8125 C 2.707031 -0.8125 2.898438 -0.851562 3.046875 -0.9375 C 3.203125 -1.03125 3.320312 -1.164062 3.40625 -1.34375 L 3.484375 -1.34375 L 4.1875 -0.90625 C 4.050781 -0.613281 3.84375 -0.375 3.5625 -0.1875 C 3.289062 -0.0078125 2.925781 0.078125 2.46875 0.078125 C 2.039062 0.078125 1.671875 0 1.359375 -0.15625 C 1.046875 -0.320312 0.800781 -0.566406 0.625 -0.890625 C 0.457031 -1.210938 0.375 -1.609375 0.375 -2.078125 C 0.375 -2.554688 0.460938 -2.957031 0.640625 -3.28125 C 0.816406 -3.601562 1.054688 -3.84375 1.359375 -4 C 1.671875 -4.164062 2.015625 -4.25 2.390625 -4.25 C 2.984375 -4.25 3.4375 -4.09375 3.75 -3.78125 C 4.0625 -3.46875 4.21875 -3.007812 4.21875 -2.40625 C 4.21875 -2.1875 4.210938 -2.015625 4.203125 -1.890625 Z M 3.21875 -2.515625 C 3.207031 -2.835938 3.132812 -3.070312 3 -3.21875 C 2.863281 -3.363281 2.660156 -3.4375 2.390625 -3.4375 C 1.859375 -3.4375 1.550781 -3.128906 1.46875 -2.515625 Z M 3.21875 -2.515625 "/></g></g><g transform="translate(51.280242, 9.096777)"><g><path d="M 2.875 -1 L 3.140625 -0.21875 C 3.023438 -0.125 2.882812 -0.0507812 2.71875 0 C 2.550781 0.0507812 2.359375 0.078125 2.140625 0.078125 C 1.691406 0.078125 1.347656 -0.0390625 1.109375 -0.28125 C 0.878906 -0.53125 0.765625 -0.890625 0.765625 -1.359375 L 0.765625 -3.34375 L 0.125 -3.34375 L 0.125 -4.171875 L 0.765625 -4.171875 L 0.765625 -4.984375 L 1.8125 -5.15625 L 1.8125 -4.171875 L 2.984375 -4.171875 L 2.984375 -3.34375 L 1.8125 -3.34375 L 1.8125 -1.4375 C 1.8125 -1.226562 1.851562 -1.078125 1.9375 -0.984375 C 2.019531 -0.890625 2.144531 -0.84375 2.3125 -0.84375 C 2.5 -0.84375 2.660156 -0.894531 2.796875 -1 Z M 2.875 -1 "/></g></g><g transform="translate(54.519909, 9.096777)"><g><path d="M 1.125 -4.65625 C 0.9375 -4.65625 0.78125 -4.710938 0.65625 -4.828125 C 0.539062 -4.941406 0.484375 -5.09375 0.484375 -5.28125 C 0.484375 -5.457031 0.539062 -5.601562 0.65625 -5.71875 C 0.78125 -5.832031 0.9375 -5.890625 1.125 -5.890625 C 1.25 -5.890625 1.359375 -5.863281 1.453125 -5.8125 C 1.554688 -5.757812 1.632812 -5.6875 1.6875 -5.59375 C 1.738281 -5.5 1.765625 -5.394531 1.765625 -5.28125 C 1.765625 -5.164062 1.738281 -5.0625 1.6875 -4.96875 C 1.632812 -4.875 1.554688 -4.796875 1.453125 -4.734375 C 1.359375 -4.679688 1.25 -4.65625 1.125 -4.65625 Z M 0.59375 0 L 0.59375 -4.171875 L 1.640625 -4.171875 L 1.640625 0 Z M 0.59375 0 "/></g></g><g transform="translate(56.765373, 9.096777)"><g><path d="M 0.59375 0 L 0.59375 -4.171875 L 1.609375 -4.171875 L 1.609375 -3.546875 L 1.6875 -3.53125 C 1.945312 -4.007812 2.367188 -4.25 2.953125 -4.25 C 3.429688 -4.25 3.78125 -4.113281 4 -3.84375 C 4.226562 -3.582031 4.34375 -3.203125 4.34375 -2.703125 L 4.34375 0 L 3.296875 0 L 3.296875 -2.578125 C 3.296875 -2.859375 3.238281 -3.054688 3.125 -3.171875 C 3.019531 -3.296875 2.84375 -3.359375 2.59375 -3.359375 C 2.300781 -3.359375 2.066406 -3.257812 1.890625 -3.0625 C 1.722656 -2.875 1.640625 -2.570312 1.640625 -2.15625 L 1.640625 0 Z M 0.59375 0 "/></g></g><g transform="translate(61.649446, 9.096777)"><g><path d="M 2.15625 1.765625 C 1.46875 1.765625 0.957031 1.660156 0.625 1.453125 C 0.300781 1.253906 0.140625 0.976562 0.140625 0.625 C 0.140625 0.40625 0.207031 0.222656 0.34375 0.078125 C 0.488281 -0.0546875 0.691406 -0.148438 0.953125 -0.203125 L 0.953125 -0.28125 C 0.816406 -0.363281 0.71875 -0.457031 0.65625 -0.5625 C 0.59375 -0.664062 0.5625 -0.785156 0.5625 -0.921875 C 0.5625 -1.253906 0.78125 -1.476562 1.21875 -1.59375 L 1.21875 -1.6875 C 0.988281 -1.8125 0.816406 -1.96875 0.703125 -2.15625 C 0.597656 -2.34375 0.546875 -2.570312 0.546875 -2.84375 C 0.546875 -3.125 0.609375 -3.367188 0.734375 -3.578125 C 0.859375 -3.785156 1.039062 -3.945312 1.28125 -4.0625 C 1.53125 -4.1875 1.828125 -4.25 2.171875 -4.25 C 2.515625 -4.25 2.789062 -4.1875 3 -4.0625 C 3.125 -4.25 3.195312 -4.460938 3.21875 -4.703125 L 3.296875 -4.765625 L 4.0625 -4.578125 C 4.03125 -4.378906 3.96875 -4.210938 3.875 -4.078125 C 3.789062 -3.941406 3.648438 -3.820312 3.453125 -3.71875 L 3.453125 -3.625 C 3.679688 -3.414062 3.796875 -3.128906 3.796875 -2.765625 C 3.796875 -2.503906 3.726562 -2.269531 3.59375 -2.0625 C 3.46875 -1.863281 3.28125 -1.703125 3.03125 -1.578125 C 2.789062 -1.460938 2.503906 -1.40625 2.171875 -1.40625 L 2.015625 -1.421875 C 1.910156 -1.421875 1.835938 -1.421875 1.796875 -1.421875 C 1.703125 -1.421875 1.628906 -1.394531 1.578125 -1.34375 C 1.523438 -1.289062 1.5 -1.222656 1.5 -1.140625 C 1.5 -1.054688 1.53125 -0.988281 1.59375 -0.9375 C 1.664062 -0.894531 1.769531 -0.867188 1.90625 -0.859375 L 2.84375 -0.828125 C 3.757812 -0.796875 4.21875 -0.398438 4.21875 0.359375 C 4.21875 0.628906 4.148438 0.867188 4.015625 1.078125 C 3.878906 1.285156 3.65625 1.453125 3.34375 1.578125 C 3.039062 1.703125 2.644531 1.765625 2.15625 1.765625 Z M 2.171875 -2.140625 C 2.367188 -2.140625 2.523438 -2.195312 2.640625 -2.3125 C 2.753906 -2.4375 2.8125 -2.609375 2.8125 -2.828125 C 2.8125 -3.046875 2.753906 -3.210938 2.640625 -3.328125 C 2.523438 -3.453125 2.367188 -3.515625 2.171875 -3.515625 C 1.960938 -3.515625 1.800781 -3.453125 1.6875 -3.328125 C 1.582031 -3.210938 1.53125 -3.046875 1.53125 -2.828125 C 1.53125 -2.609375 1.582031 -2.4375 1.6875 -2.3125 C 1.800781 -2.195312 1.960938 -2.140625 2.171875 -2.140625 Z M 2.15625 1.015625 C 2.519531 1.015625 2.78125 0.960938 2.9375 0.859375 C 3.101562 0.753906 3.1875 0.625 3.1875 0.46875 C 3.1875 0.332031 3.144531 0.234375 3.0625 0.171875 C 2.976562 0.109375 2.84375 0.078125 2.65625 0.078125 L 1.84375 0.03125 C 1.8125 0.03125 1.78125 0.03125 1.75 0.03125 C 1.726562 0.03125 1.707031 0.03125 1.6875 0.03125 C 1.507812 0.03125 1.375 0.0664062 1.28125 0.140625 C 1.195312 0.210938 1.15625 0.316406 1.15625 0.453125 C 1.15625 0.628906 1.238281 0.765625 1.40625 0.859375 C 1.570312 0.960938 1.820312 1.015625 2.15625 1.015625 Z M 2.15625 1.015625 "/></g></g></g></g></g><g clip-path="url(#c604a02093)"><path fill="#545454" d="M 31.695312 13.113281 L 30.25 13.574219 C 30.222656 13.585938 30.191406 13.589844 30.160156 13.589844 C 29.988281 13.585938 29.886719 13.503906 29.859375 13.332031 C 29.832031 13.164062 29.902344 13.050781 30.066406 12.996094 L 31.515625 12.53125 C 31.59375 12.507812 31.671875 12.515625 31.746094 12.550781 C 31.820312 12.589844 31.871094 12.648438 31.898438 12.730469 C 31.921875 12.808594 31.914062 12.886719 31.878906 12.960938 C 31.839844 13.035156 31.78125 13.085938 31.699219 13.113281 Z M 29.964844 11.980469 L 30.75 10.464844 C 30.789062 10.390625 30.796875 10.3125 30.769531 10.234375 C 30.746094 10.152344 30.695312 10.09375 30.621094 10.054688 C 30.546875 10.015625 30.46875 10.011719 30.386719 10.035156 C 30.308594 10.0625 30.25 10.113281 30.210938 10.1875 L 29.425781 11.703125 C 29.386719 11.777344 29.378906 11.855469 29.40625 11.933594 C 29.429688 12.015625 29.480469 12.074219 29.554688 12.113281 C 29.601562 12.128906 29.648438 12.136719 29.695312 12.136719 C 29.816406 12.136719 29.90625 12.085938 29.964844 11.980469 Z M 32.285156 15.242188 L 30.769531 14.457031 C 30.695312 14.421875 30.617188 14.414062 30.539062 14.4375 C 30.457031 14.464844 30.398438 14.515625 30.359375 14.589844 C 30.320312 14.664062 30.316406 14.742188 30.339844 14.820312 C 30.367188 14.898438 30.414062 14.960938 30.488281 15 L 32.007812 15.785156 C 32.050781 15.804688 32.097656 15.816406 32.144531 15.816406 C 32.304688 15.816406 32.402344 15.742188 32.441406 15.585938 C 32.480469 15.429688 32.425781 15.316406 32.285156 15.242188 Z M 23.632812 9.40625 C 23.628906 9.53125 23.574219 9.621094 23.464844 9.675781 L 21.644531 10.585938 C 21.601562 10.609375 21.554688 10.621094 21.507812 10.621094 C 21.449219 10.621094 21.398438 10.605469 21.347656 10.574219 C 21.253906 10.515625 21.203125 10.429688 21.203125 10.316406 L 21.203125 8.496094 C 21.207031 8.445312 21.21875 8.394531 21.242188 8.347656 C 21.269531 8.304688 21.304688 8.265625 21.351562 8.238281 C 21.394531 8.210938 21.441406 8.195312 21.496094 8.195312 C 21.546875 8.191406 21.597656 8.203125 21.644531 8.226562 L 23.464844 9.136719 C 23.574219 9.191406 23.628906 9.28125 23.632812 9.40625 Z M 22.648438 9.40625 L 21.8125 8.988281 L 21.8125 9.824219 Z M 18.171875 6.675781 L 15.746094 6.675781 C 15.664062 6.675781 15.589844 6.707031 15.53125 6.765625 C 15.472656 6.824219 15.445312 6.898438 15.445312 6.980469 C 15.445312 7.066406 15.472656 7.136719 15.53125 7.195312 C 15.589844 7.253906 15.664062 7.285156 15.746094 7.285156 L 18.171875 7.285156 C 18.257812 7.285156 18.328125 7.253906 18.386719 7.195312 C 18.445312 7.136719 18.476562 7.066406 18.476562 6.980469 C 18.476562 6.898438 18.445312 6.824219 18.386719 6.765625 C 18.328125 6.707031 18.257812 6.675781 18.171875 6.675781 Z M 18.171875 7.890625 L 15.746094 7.890625 C 15.664062 7.890625 15.589844 7.921875 15.53125 7.980469 C 15.472656 8.039062 15.445312 8.109375 15.445312 8.195312 C 15.445312 8.277344 15.472656 8.347656 15.53125 8.40625 C 15.589844 8.46875 15.664062 8.496094 15.746094 8.496094 L 18.171875 8.496094 C 18.257812 8.496094 18.328125 8.46875 18.386719 8.40625 C 18.445312 8.347656 18.476562 8.277344 18.476562 8.195312 C 18.476562 8.109375 18.445312 8.039062 18.386719 7.980469 C 18.328125 7.921875 18.257812 7.890625 18.171875 7.890625 Z M 18.171875 9.101562 L 15.746094 9.101562 C 15.664062 9.101562 15.589844 9.132812 15.53125 9.191406 C 15.472656 9.25 15.445312 9.324219 15.445312 9.40625 C 15.445312 9.492188 15.472656 9.5625 15.53125 9.621094 C 15.589844 9.679688 15.664062 9.710938 15.746094 9.710938 L 18.171875 9.710938 C 18.257812 9.710938 18.328125 9.679688 18.386719 9.621094 C 18.445312 9.5625 18.476562 9.492188 18.476562 9.40625 C 18.476562 9.324219 18.445312 9.25 18.386719 9.191406 C 18.328125 9.132812 18.257812 9.101562 18.171875 9.101562 Z M 28.226562 14.742188 L 27.925781 14.832031 L 28.894531 18.023438 C 28.921875 18.121094 28.90625 18.207031 28.847656 18.289062 C 28.792969 18.371094 28.710938 18.410156 28.613281 18.414062 L 27.359375 18.457031 L 19.285156 18.730469 L 20.160156 21.625 C 20.230469 21.851562 20.246094 22.085938 20.203125 22.324219 C 20.164062 22.558594 20.070312 22.773438 19.929688 22.964844 C 19.785156 23.160156 19.609375 23.308594 19.394531 23.417969 C 19.179688 23.523438 18.953125 23.578125 18.710938 23.578125 C 18.378906 23.578125 18.078125 23.480469 17.808594 23.28125 C 17.542969 23.082031 17.359375 22.824219 17.261719 22.503906 L 16.351562 19.414062 C 16.074219 19.386719 15.808594 19.3125 15.554688 19.191406 C 15.304688 19.074219 15.078125 18.914062 14.878906 18.71875 C 14.679688 18.519531 14.523438 18.292969 14.402344 18.042969 C 14.28125 17.789062 14.207031 17.523438 14.179688 17.246094 C 14.148438 16.964844 14.167969 16.691406 14.234375 16.417969 C 14.304688 16.148438 14.414062 15.894531 14.566406 15.660156 C 14.722656 15.429688 14.910156 15.226562 15.136719 15.058594 C 15.359375 14.890625 15.605469 14.765625 15.871094 14.683594 L 17.859375 14.078125 L 21.5 11.820312 L 19.984375 11.820312 C 19.734375 11.816406 19.523438 11.730469 19.351562 11.554688 C 19.175781 11.378906 19.085938 11.167969 19.082031 10.921875 L 18.253906 10.921875 L 16.203125 12.097656 C 16.15625 12.121094 16.105469 12.136719 16.050781 12.136719 C 15.996094 12.136719 15.945312 12.121094 15.898438 12.09375 C 15.796875 12.035156 15.746094 11.949219 15.746094 11.832031 L 15.746094 10.921875 L 15.140625 10.921875 C 14.890625 10.921875 14.675781 10.835938 14.496094 10.65625 C 14.320312 10.480469 14.230469 10.265625 14.230469 10.011719 L 14.230469 6.375 C 14.230469 6.125 14.320312 5.910156 14.496094 5.730469 C 14.675781 5.554688 14.890625 5.464844 15.140625 5.464844 L 20.902344 5.464844 C 21.152344 5.464844 21.367188 5.554688 21.546875 5.730469 C 21.722656 5.910156 21.8125 6.125 21.8125 6.375 L 21.8125 6.980469 L 24.269531 6.980469 C 24.515625 6.988281 24.722656 7.082031 24.890625 7.257812 C 25.0625 7.433594 25.148438 7.644531 25.148438 7.890625 L 25.148438 9.5625 L 25.8125 9.148438 C 25.898438 9.09375 25.988281 9.085938 26.082031 9.121094 C 26.175781 9.15625 26.238281 9.222656 26.265625 9.320312 L 27.234375 12.511719 L 27.535156 12.421875 C 27.691406 12.371094 27.851562 12.347656 28.015625 12.359375 C 28.179688 12.371094 28.335938 12.414062 28.484375 12.488281 C 28.632812 12.566406 28.757812 12.664062 28.863281 12.792969 C 28.96875 12.917969 29.046875 13.058594 29.09375 13.21875 C 29.140625 13.375 29.15625 13.535156 29.140625 13.699219 C 29.121094 13.863281 29.070312 14.019531 28.992188 14.164062 C 28.910156 14.304688 28.804688 14.429688 28.675781 14.53125 C 28.542969 14.628906 28.398438 14.703125 28.238281 14.742188 Z M 19.082031 10.316406 L 19.082031 7.890625 C 19.082031 7.644531 19.167969 7.433594 19.335938 7.257812 C 19.507812 7.082031 19.714844 6.988281 19.957031 6.980469 L 21.203125 6.980469 L 21.203125 6.375 C 21.203125 6.289062 21.175781 6.21875 21.117188 6.160156 C 21.058594 6.101562 20.984375 6.070312 20.902344 6.070312 L 15.140625 6.070312 C 15.058594 6.070312 14.984375 6.101562 14.925781 6.160156 C 14.867188 6.21875 14.835938 6.289062 14.835938 6.375 L 14.835938 10.011719 C 14.835938 10.097656 14.867188 10.167969 14.925781 10.226562 C 14.984375 10.285156 15.058594 10.316406 15.140625 10.316406 L 16.050781 10.316406 C 16.132812 10.316406 16.207031 10.347656 16.265625 10.40625 C 16.324219 10.464844 16.351562 10.535156 16.351562 10.621094 L 16.351562 11.3125 L 18.019531 10.355469 C 18.070312 10.332031 18.117188 10.316406 18.171875 10.316406 Z M 22.464844 11.226562 L 24.539062 9.9375 L 24.539062 7.890625 C 24.542969 7.707031 24.453125 7.605469 24.269531 7.585938 L 19.957031 7.585938 C 19.777344 7.605469 19.6875 7.707031 19.6875 7.890625 L 19.6875 10.921875 C 19.6875 11.105469 19.777344 11.207031 19.957031 11.226562 Z M 16.566406 18.835938 C 16.742188 18.832031 16.917969 18.808594 17.085938 18.753906 L 18.828125 18.226562 L 17.769531 14.746094 L 16.03125 15.273438 C 15.824219 15.335938 15.632812 15.4375 15.457031 15.566406 C 15.285156 15.699219 15.140625 15.859375 15.023438 16.042969 C 14.90625 16.226562 14.828125 16.425781 14.78125 16.640625 C 14.738281 16.855469 14.730469 17.070312 14.761719 17.285156 C 14.792969 17.5 14.863281 17.703125 14.96875 17.894531 C 15.074219 18.085938 15.210938 18.253906 15.375 18.394531 C 15.542969 18.535156 15.726562 18.644531 15.929688 18.722656 C 16.136719 18.796875 16.347656 18.835938 16.566406 18.835938 Z M 19.597656 21.800781 L 18.710938 18.898438 L 17.261719 19.335938 C 17.164062 19.363281 17.066406 19.386719 16.960938 19.402344 L 17.84375 22.328125 C 17.917969 22.566406 18.066406 22.75 18.289062 22.867188 C 18.511719 22.984375 18.742188 23.007812 18.980469 22.933594 C 19.222656 22.859375 19.402344 22.714844 19.519531 22.492188 C 19.640625 22.269531 19.660156 22.039062 19.589844 21.800781 Z M 26.964844 17.863281 L 24.730469 10.535156 L 18.332031 14.5 L 19.429688 18.117188 Z M 28.226562 17.820312 L 25.800781 9.875 L 25.265625 10.203125 L 27.574219 17.84375 Z M 28.0625 14.164062 C 28.226562 14.113281 28.34375 14.011719 28.421875 13.859375 C 28.503906 13.714844 28.519531 13.558594 28.46875 13.398438 C 28.417969 13.238281 28.320312 13.117188 28.171875 13.039062 C 28.027344 12.960938 27.871094 12.945312 27.710938 12.992188 L 27.410156 13.082031 L 27.761719 14.257812 Z M 28.0625 14.164062 " fill-opacity="1" fill-rule="nonzero"/></g></svg>