<svg xmlns="http://www.w3.org/2000/svg" xmlns:xlink="http://www.w3.org/1999/xlink" width="150" zoomAndPan="magnify" viewBox="0 0 112.5 30.000001" height="40" preserveAspectRatio="xMidYMid meet" version="1.0"><defs><g/><clipPath id="e2fb8d3ad2"><path d="M 1.574219 0 L 110.445312 0 L 110.445312 29.03125 L 1.574219 29.03125 Z M 1.574219 0 " clip-rule="nonzero"/></clipPath><clipPath id="29962473f0"><path d="M 31.082031 7.527344 L 49.230469 7.527344 L 49.230469 19.863281 L 31.082031 19.863281 Z M 31.082031 7.527344 " clip-rule="nonzero"/></clipPath><clipPath id="f440fe7560"><rect x="0" width="20" y="0" height="12"/></clipPath></defs><g clip-path="url(#e2fb8d3ad2)"><path fill="#ffffff" d="M 1.574219 0 L 110.445312 0 L 110.445312 29.03125 L 1.574219 29.03125 Z M 1.574219 0 " fill-opacity="1" fill-rule="nonzero"/><path fill="#ffffff" d="M 1.574219 0 L 110.445312 0 L 110.445312 29.03125 L 1.574219 29.03125 Z M 1.574219 0 " fill-opacity="1" fill-rule="nonzero"/></g><g clip-path="url(#29962473f0)"><path fill="#545454" d="M 44.199219 20.050781 L 34.890625 20.050781 C 32.835938 20.050781 31.164062 18.378906 31.164062 16.324219 C 31.164062 14.273438 32.835938 12.605469 34.890625 12.605469 L 35.359375 12.605469 C 35.359375 12.542969 35.359375 12.476562 35.359375 12.414062 C 35.359375 9.714844 37.550781 7.523438 40.246094 7.523438 C 42.117188 7.523438 43.84375 8.621094 44.652344 10.289062 C 47.128906 10.523438 49.085938 12.640625 49.085938 15.160156 C 49.085938 17.855469 46.894531 20.050781 44.199219 20.050781 Z M 34.890625 13.664062 C 33.417969 13.664062 32.222656 14.859375 32.222656 16.324219 C 32.222656 17.792969 33.417969 18.992188 34.890625 18.992188 L 44.199219 18.992188 C 46.3125 18.992188 48.03125 17.273438 48.03125 15.160156 C 48.03125 13.09375 46.351562 11.375 44.289062 11.328125 C 44.074219 11.324219 43.886719 11.191406 43.808594 10.996094 C 43.234375 9.550781 41.800781 8.578125 40.25 8.578125 C 38.132812 8.578125 36.414062 10.296875 36.414062 12.414062 C 36.414062 12.636719 36.433594 12.84375 36.46875 13.042969 C 36.492188 13.199219 36.453125 13.355469 36.351562 13.476562 C 36.25 13.59375 36.101562 13.664062 35.945312 13.664062 L 34.886719 13.664062 Z M 46.703125 15.160156 C 46.703125 13.808594 45.605469 12.683594 44.257812 12.65625 C 44.253906 12.65625 44.25 12.65625 44.246094 12.65625 C 43.957031 12.65625 43.722656 12.882812 43.714844 13.171875 C 43.710938 13.464844 43.941406 13.707031 44.234375 13.710938 C 45.011719 13.730469 45.644531 14.378906 45.644531 15.160156 C 45.644531 15.453125 45.882812 15.691406 46.175781 15.691406 C 46.46875 15.691406 46.703125 15.453125 46.703125 15.160156 Z M 46.703125 15.160156 " fill-opacity="1" fill-rule="nonzero"/></g><g transform="matrix(1, 0, 0, 1, 55, 8)"><g clip-path="url(#f440fe7560)"><g fill="#545454" fill-opacity="1"><g transform="translate(0.883965, 9.096777)"><g><path d="M 2.453125 0.078125 C 2.066406 0.078125 1.722656 0.03125 1.421875 -0.0625 C 1.128906 -0.15625 0.878906 -0.28125 0.671875 -0.4375 C 0.472656 -0.59375 0.320312 -0.757812 0.21875 -0.9375 L 0.828125 -1.671875 L 0.921875 -1.671875 C 1.085938 -1.421875 1.296875 -1.222656 1.546875 -1.078125 C 1.804688 -0.929688 2.109375 -0.859375 2.453125 -0.859375 C 2.742188 -0.859375 2.960938 -0.921875 3.109375 -1.046875 C 3.253906 -1.171875 3.328125 -1.34375 3.328125 -1.5625 C 3.328125 -1.6875 3.300781 -1.789062 3.25 -1.875 C 3.207031 -1.96875 3.128906 -2.046875 3.015625 -2.109375 C 2.910156 -2.171875 2.765625 -2.226562 2.578125 -2.28125 L 1.859375 -2.4375 C 1.367188 -2.550781 1 -2.738281 0.75 -3 C 0.507812 -3.269531 0.390625 -3.613281 0.390625 -4.03125 C 0.390625 -4.34375 0.46875 -4.613281 0.625 -4.84375 C 0.78125 -5.082031 1.003906 -5.265625 1.296875 -5.390625 C 1.597656 -5.523438 1.957031 -5.59375 2.375 -5.59375 C 2.800781 -5.59375 3.164062 -5.535156 3.46875 -5.421875 C 3.769531 -5.316406 4.023438 -5.148438 4.234375 -4.921875 L 3.703125 -4.171875 L 3.609375 -4.171875 C 3.453125 -4.335938 3.269531 -4.460938 3.0625 -4.546875 C 2.863281 -4.628906 2.632812 -4.671875 2.375 -4.671875 C 2.070312 -4.671875 1.84375 -4.613281 1.6875 -4.5 C 1.53125 -4.394531 1.453125 -4.253906 1.453125 -4.078125 C 1.453125 -3.898438 1.503906 -3.757812 1.609375 -3.65625 C 1.722656 -3.550781 1.914062 -3.46875 2.1875 -3.40625 L 2.921875 -3.265625 C 3.453125 -3.148438 3.835938 -2.957031 4.078125 -2.6875 C 4.316406 -2.414062 4.4375 -2.0625 4.4375 -1.625 C 4.4375 -1.28125 4.363281 -0.976562 4.21875 -0.71875 C 4.070312 -0.46875 3.847656 -0.269531 3.546875 -0.125 C 3.242188 0.0078125 2.878906 0.078125 2.453125 0.078125 Z M 2.453125 0.078125 "/></g></g><g transform="translate(5.631949, 9.096777)"><g><path d="M 1.625 0.078125 C 1.351562 0.078125 1.117188 0.03125 0.921875 -0.0625 C 0.734375 -0.164062 0.582031 -0.3125 0.46875 -0.5 C 0.363281 -0.6875 0.3125 -0.914062 0.3125 -1.1875 C 0.3125 -1.4375 0.363281 -1.644531 0.46875 -1.8125 C 0.582031 -1.976562 0.75 -2.113281 0.96875 -2.21875 C 1.1875 -2.320312 1.472656 -2.40625 1.828125 -2.46875 C 2.078125 -2.507812 2.265625 -2.550781 2.390625 -2.59375 C 2.523438 -2.644531 2.613281 -2.695312 2.65625 -2.75 C 2.707031 -2.8125 2.734375 -2.890625 2.734375 -2.984375 C 2.734375 -3.117188 2.6875 -3.222656 2.59375 -3.296875 C 2.5 -3.367188 2.34375 -3.40625 2.125 -3.40625 C 1.894531 -3.40625 1.675781 -3.351562 1.46875 -3.25 C 1.257812 -3.144531 1.078125 -3.007812 0.921875 -2.84375 L 0.84375 -2.84375 L 0.40625 -3.5 C 0.625 -3.738281 0.882812 -3.921875 1.1875 -4.046875 C 1.488281 -4.179688 1.820312 -4.25 2.1875 -4.25 C 2.738281 -4.25 3.132812 -4.128906 3.375 -3.890625 C 3.625 -3.660156 3.75 -3.328125 3.75 -2.890625 L 3.75 -1.09375 C 3.75 -0.90625 3.832031 -0.8125 4 -0.8125 C 4.0625 -0.8125 4.125 -0.820312 4.1875 -0.84375 L 4.234375 -0.828125 L 4.3125 -0.09375 C 4.25 -0.0625 4.164062 -0.03125 4.0625 0 C 3.957031 0.0195312 3.847656 0.03125 3.734375 0.03125 C 3.484375 0.03125 3.285156 -0.015625 3.140625 -0.109375 C 3.003906 -0.203125 2.90625 -0.351562 2.84375 -0.5625 L 2.765625 -0.5625 C 2.554688 -0.132812 2.175781 0.078125 1.625 0.078125 Z M 1.953125 -0.703125 C 2.191406 -0.703125 2.382812 -0.78125 2.53125 -0.9375 C 2.675781 -1.101562 2.75 -1.332031 2.75 -1.625 L 2.75 -2.046875 L 2.6875 -2.0625 C 2.625 -2.007812 2.539062 -1.96875 2.4375 -1.9375 C 2.332031 -1.90625 2.1875 -1.867188 2 -1.828125 C 1.769531 -1.796875 1.601562 -1.734375 1.5 -1.640625 C 1.40625 -1.546875 1.359375 -1.414062 1.359375 -1.25 C 1.359375 -1.070312 1.410156 -0.9375 1.515625 -0.84375 C 1.617188 -0.75 1.765625 -0.703125 1.953125 -0.703125 Z M 1.953125 -0.703125 "/></g></g><g transform="translate(10.02837, 9.096777)"><g><path d="M 1.625 0.078125 C 1.351562 0.078125 1.117188 0.03125 0.921875 -0.0625 C 0.734375 -0.164062 0.582031 -0.3125 0.46875 -0.5 C 0.363281 -0.6875 0.3125 -0.914062 0.3125 -1.1875 C 0.3125 -1.4375 0.363281 -1.644531 0.46875 -1.8125 C 0.582031 -1.976562 0.75 -2.113281 0.96875 -2.21875 C 1.1875 -2.320312 1.472656 -2.40625 1.828125 -2.46875 C 2.078125 -2.507812 2.265625 -2.550781 2.390625 -2.59375 C 2.523438 -2.644531 2.613281 -2.695312 2.65625 -2.75 C 2.707031 -2.8125 2.734375 -2.890625 2.734375 -2.984375 C 2.734375 -3.117188 2.6875 -3.222656 2.59375 -3.296875 C 2.5 -3.367188 2.34375 -3.40625 2.125 -3.40625 C 1.894531 -3.40625 1.675781 -3.351562 1.46875 -3.25 C 1.257812 -3.144531 1.078125 -3.007812 0.921875 -2.84375 L 0.84375 -2.84375 L 0.40625 -3.5 C 0.625 -3.738281 0.882812 -3.921875 1.1875 -4.046875 C 1.488281 -4.179688 1.820312 -4.25 2.1875 -4.25 C 2.738281 -4.25 3.132812 -4.128906 3.375 -3.890625 C 3.625 -3.660156 3.75 -3.328125 3.75 -2.890625 L 3.75 -1.09375 C 3.75 -0.90625 3.832031 -0.8125 4 -0.8125 C 4.0625 -0.8125 4.125 -0.820312 4.1875 -0.84375 L 4.234375 -0.828125 L 4.3125 -0.09375 C 4.25 -0.0625 4.164062 -0.03125 4.0625 0 C 3.957031 0.0195312 3.847656 0.03125 3.734375 0.03125 C 3.484375 0.03125 3.285156 -0.015625 3.140625 -0.109375 C 3.003906 -0.203125 2.90625 -0.351562 2.84375 -0.5625 L 2.765625 -0.5625 C 2.554688 -0.132812 2.175781 0.078125 1.625 0.078125 Z M 1.953125 -0.703125 C 2.191406 -0.703125 2.382812 -0.78125 2.53125 -0.9375 C 2.675781 -1.101562 2.75 -1.332031 2.75 -1.625 L 2.75 -2.046875 L 2.6875 -2.0625 C 2.625 -2.007812 2.539062 -1.96875 2.4375 -1.9375 C 2.332031 -1.90625 2.1875 -1.867188 2 -1.828125 C 1.769531 -1.796875 1.601562 -1.734375 1.5 -1.640625 C 1.40625 -1.546875 1.359375 -1.414062 1.359375 -1.25 C 1.359375 -1.070312 1.410156 -0.9375 1.515625 -0.84375 C 1.617188 -0.75 1.765625 -0.703125 1.953125 -0.703125 Z M 1.953125 -0.703125 "/></g></g><g transform="translate(14.424792, 9.096777)"><g><path d="M 2.453125 0.078125 C 2.066406 0.078125 1.722656 0.03125 1.421875 -0.0625 C 1.128906 -0.15625 0.878906 -0.28125 0.671875 -0.4375 C 0.472656 -0.59375 0.320312 -0.757812 0.21875 -0.9375 L 0.828125 -1.671875 L 0.921875 -1.671875 C 1.085938 -1.421875 1.296875 -1.222656 1.546875 -1.078125 C 1.804688 -0.929688 2.109375 -0.859375 2.453125 -0.859375 C 2.742188 -0.859375 2.960938 -0.921875 3.109375 -1.046875 C 3.253906 -1.171875 3.328125 -1.34375 3.328125 -1.5625 C 3.328125 -1.6875 3.300781 -1.789062 3.25 -1.875 C 3.207031 -1.96875 3.128906 -2.046875 3.015625 -2.109375 C 2.910156 -2.171875 2.765625 -2.226562 2.578125 -2.28125 L 1.859375 -2.4375 C 1.367188 -2.550781 1 -2.738281 0.75 -3 C 0.507812 -3.269531 0.390625 -3.613281 0.390625 -4.03125 C 0.390625 -4.34375 0.46875 -4.613281 0.625 -4.84375 C 0.78125 -5.082031 1.003906 -5.265625 1.296875 -5.390625 C 1.597656 -5.523438 1.957031 -5.59375 2.375 -5.59375 C 2.800781 -5.59375 3.164062 -5.535156 3.46875 -5.421875 C 3.769531 -5.316406 4.023438 -5.148438 4.234375 -4.921875 L 3.703125 -4.171875 L 3.609375 -4.171875 C 3.453125 -4.335938 3.269531 -4.460938 3.0625 -4.546875 C 2.863281 -4.628906 2.632812 -4.671875 2.375 -4.671875 C 2.070312 -4.671875 1.84375 -4.613281 1.6875 -4.5 C 1.53125 -4.394531 1.453125 -4.253906 1.453125 -4.078125 C 1.453125 -3.898438 1.503906 -3.757812 1.609375 -3.65625 C 1.722656 -3.550781 1.914062 -3.46875 2.1875 -3.40625 L 2.921875 -3.265625 C 3.453125 -3.148438 3.835938 -2.957031 4.078125 -2.6875 C 4.316406 -2.414062 4.4375 -2.0625 4.4375 -1.625 C 4.4375 -1.28125 4.363281 -0.976562 4.21875 -0.71875 C 4.070312 -0.46875 3.847656 -0.269531 3.546875 -0.125 C 3.242188 0.0078125 2.878906 0.078125 2.453125 0.078125 Z M 2.453125 0.078125 "/></g></g></g></g></g></svg>