<svg xmlns="http://www.w3.org/2000/svg" xmlns:xlink="http://www.w3.org/1999/xlink" width="150" zoomAndPan="magnify" viewBox="0 0 112.5 30.000001" height="40" preserveAspectRatio="xMidYMid meet" version="1.0"><defs><g/><clipPath id="91dc18de65"><path d="M 8.070312 6.851562 L 29 6.851562 L 29 22.09375 L 8.070312 22.09375 Z M 8.070312 6.851562 " clip-rule="nonzero"/></clipPath><clipPath id="d3405f5274"><path d="M 24 10 L 32.746094 10 L 32.746094 19 L 24 19 Z M 24 10 " clip-rule="nonzero"/></clipPath><clipPath id="87dd2977fb"><rect x="0" width="72" y="0" height="13"/></clipPath></defs><path fill="#545454" d="M 16.886719 18.339844 C 16.675781 18.339844 16.503906 18.511719 16.503906 18.722656 C 16.503906 18.933594 16.675781 19.105469 16.886719 19.105469 L 19.949219 19.105469 C 20.160156 19.105469 20.332031 18.933594 20.332031 18.722656 C 20.332031 18.511719 20.160156 18.339844 19.949219 18.339844 Z M 16.886719 18.339844 " fill-opacity="1" fill-rule="nonzero"/><path fill="#545454" d="M 11.542969 18.609375 C 11.542969 18.699219 11.511719 18.777344 11.449219 18.839844 C 11.382812 18.902344 11.308594 18.933594 11.21875 18.933594 C 11.128906 18.933594 11.050781 18.902344 10.988281 18.839844 C 10.925781 18.777344 10.890625 18.699219 10.890625 18.609375 C 10.890625 18.519531 10.925781 18.441406 10.988281 18.378906 C 11.050781 18.316406 11.128906 18.285156 11.21875 18.285156 C 11.308594 18.285156 11.382812 18.316406 11.449219 18.378906 C 11.511719 18.441406 11.542969 18.519531 11.542969 18.609375 Z M 11.542969 18.609375 " fill-opacity="1" fill-rule="nonzero"/><path fill="#545454" d="M 10.261719 18.609375 C 10.261719 18.699219 10.226562 18.777344 10.164062 18.839844 C 10.101562 18.902344 10.023438 18.933594 9.933594 18.933594 C 9.84375 18.933594 9.769531 18.902344 9.703125 18.839844 C 9.640625 18.777344 9.609375 18.699219 9.609375 18.609375 C 9.609375 18.519531 9.640625 18.441406 9.703125 18.378906 C 9.769531 18.316406 9.84375 18.285156 9.933594 18.285156 C 10.023438 18.285156 10.101562 18.316406 10.164062 18.378906 C 10.226562 18.441406 10.261719 18.519531 10.261719 18.609375 Z M 10.261719 18.609375 " fill-opacity="1" fill-rule="nonzero"/><path fill="#545454" d="M 16.636719 9.894531 C 16.523438 9.722656 16.273438 9.664062 16.101562 9.78125 L 12.652344 12.078125 C 12.539062 12.15625 12.480469 12.269531 12.480469 12.402344 C 12.480469 12.539062 12.539062 12.652344 12.652344 12.730469 C 12.652344 12.730469 16.101562 15.027344 16.101562 15.027344 C 16.273438 15.144531 16.523438 15.105469 16.636719 14.914062 C 16.753906 14.742188 16.714844 14.492188 16.523438 14.375 L 13.554688 12.402344 L 16.523438 10.433594 C 16.695312 10.316406 16.753906 10.066406 16.636719 9.894531 Z M 16.636719 9.894531 " fill-opacity="1" fill-rule="nonzero"/><path fill="#545454" d="M 20.199219 14.914062 C 20.316406 15.085938 20.5625 15.144531 20.734375 15.027344 L 24.183594 12.730469 C 24.296875 12.652344 24.355469 12.539062 24.355469 12.402344 C 24.355469 12.269531 24.296875 12.15625 24.183594 12.078125 L 20.734375 9.78125 C 20.5625 9.664062 20.316406 9.703125 20.199219 9.894531 C 20.085938 10.066406 20.125 10.316406 20.316406 10.433594 L 23.285156 12.402344 L 20.316406 14.375 C 20.140625 14.492188 20.085938 14.742188 20.199219 14.914062 Z M 20.199219 14.914062 " fill-opacity="1" fill-rule="nonzero"/><path fill="#545454" d="M 18.820312 9.4375 L 17.289062 15.179688 C 17.230469 15.390625 17.367188 15.601562 17.558594 15.640625 C 17.59375 15.640625 17.613281 15.660156 17.652344 15.660156 C 17.824219 15.660156 17.976562 15.546875 18.015625 15.371094 L 19.546875 9.628906 C 19.605469 9.417969 19.472656 9.207031 19.28125 9.167969 C 19.089844 9.109375 18.878906 9.226562 18.820312 9.4375 Z M 18.820312 9.4375 " fill-opacity="1" fill-rule="nonzero"/><g clip-path="url(#91dc18de65)"><path fill="#545454" d="M 16.886719 21.40625 L 15.738281 21.40625 C 15.527344 21.40625 15.355469 21.578125 15.355469 21.789062 C 15.355469 22 15.527344 22.171875 15.738281 22.171875 L 21.101562 22.171875 C 21.3125 22.171875 21.484375 22 21.484375 21.789062 C 21.484375 21.578125 21.3125 21.40625 21.101562 21.40625 L 19.949219 21.40625 L 19.949219 20.257812 L 27.613281 20.257812 C 28.109375 20.257812 28.53125 19.929688 28.683594 19.492188 L 28.28125 19.492188 C 28.109375 19.492188 27.957031 19.472656 27.804688 19.414062 C 27.746094 19.453125 27.667969 19.492188 27.59375 19.492188 L 9.226562 19.492188 C 9.015625 19.492188 8.84375 19.316406 8.84375 19.105469 L 8.84375 17.957031 L 25.046875 17.957031 L 24.988281 17.902344 C 24.796875 17.710938 24.644531 17.460938 24.566406 17.191406 L 8.84375 17.191406 L 8.84375 8 C 8.84375 7.789062 9.015625 7.617188 9.226562 7.617188 L 27.613281 7.617188 C 27.820312 7.617188 27.996094 7.789062 27.996094 8 L 27.996094 9.953125 C 28.089844 9.933594 28.1875 9.914062 28.300781 9.914062 L 28.761719 9.914062 L 28.761719 8 C 28.761719 7.367188 28.242188 6.851562 27.613281 6.851562 L 9.226562 6.851562 C 8.59375 6.851562 8.078125 7.367188 8.078125 8 L 8.078125 19.105469 C 8.078125 19.738281 8.59375 20.257812 9.226562 20.257812 L 16.886719 20.257812 Z M 17.652344 20.257812 L 19.183594 20.257812 L 19.183594 21.40625 L 17.652344 21.40625 Z M 17.652344 20.257812 " fill-opacity="1" fill-rule="nonzero"/></g><g clip-path="url(#d3405f5274)"><path fill="#545454" d="M 31.84375 13.496094 C 31.804688 13.398438 31.765625 13.324219 31.730469 13.226562 C 31.976562 12.863281 31.941406 12.367188 31.613281 12.039062 L 31.230469 11.65625 C 31.058594 11.484375 30.808594 11.390625 30.5625 11.390625 C 30.371094 11.390625 30.195312 11.445312 30.042969 11.542969 C 29.96875 11.503906 29.871094 11.464844 29.777344 11.425781 C 29.679688 10.988281 29.296875 10.679688 28.855469 10.679688 L 28.320312 10.679688 C 27.859375 10.679688 27.476562 11.007812 27.402344 11.425781 C 27.304688 11.464844 27.230469 11.503906 27.132812 11.542969 C 26.980469 11.445312 26.808594 11.390625 26.617188 11.390625 C 26.367188 11.390625 26.117188 11.484375 25.945312 11.65625 L 25.5625 12.039062 C 25.238281 12.367188 25.199219 12.863281 25.449219 13.226562 C 25.410156 13.304688 25.371094 13.398438 25.332031 13.496094 C 24.890625 13.589844 24.585938 13.976562 24.585938 14.414062 L 24.585938 14.953125 C 24.585938 15.410156 24.910156 15.792969 25.332031 15.871094 C 25.371094 15.964844 25.410156 16.042969 25.449219 16.140625 C 25.351562 16.292969 25.292969 16.464844 25.292969 16.65625 C 25.292969 16.90625 25.390625 17.152344 25.5625 17.328125 L 25.945312 17.710938 C 26.117188 17.882812 26.367188 17.976562 26.617188 17.976562 C 26.808594 17.976562 26.980469 17.921875 27.132812 17.824219 C 27.210938 17.863281 27.304688 17.902344 27.402344 17.9375 C 27.496094 18.378906 27.878906 18.6875 28.320312 18.6875 L 28.855469 18.6875 C 29.316406 18.6875 29.699219 18.359375 29.777344 17.9375 C 29.871094 17.902344 29.949219 17.863281 30.042969 17.824219 C 30.195312 17.921875 30.371094 17.976562 30.5625 17.976562 C 30.808594 17.976562 31.058594 17.882812 31.230469 17.710938 L 31.613281 17.328125 C 31.785156 17.152344 31.882812 16.90625 31.882812 16.65625 C 31.882812 16.464844 31.824219 16.292969 31.730469 16.140625 C 31.765625 16.0625 31.804688 15.964844 31.84375 15.871094 C 32.285156 15.773438 32.589844 15.390625 32.589844 14.953125 L 32.589844 14.414062 C 32.589844 13.976562 32.265625 13.589844 31.84375 13.496094 Z M 31.824219 14.96875 C 31.824219 15.066406 31.75 15.144531 31.652344 15.144531 L 31.25 15.144531 C 31.171875 15.5625 31.019531 15.929688 30.789062 16.253906 L 31.078125 16.542969 C 31.15625 16.617188 31.15625 16.734375 31.078125 16.789062 L 30.695312 17.171875 C 30.65625 17.210938 30.617188 17.230469 30.5625 17.230469 C 30.503906 17.230469 30.464844 17.210938 30.425781 17.171875 L 30.140625 16.886719 C 29.8125 17.117188 29.429688 17.289062 29.027344 17.34375 L 29.027344 17.746094 C 29.027344 17.84375 28.953125 17.921875 28.855469 17.921875 L 28.320312 17.921875 C 28.222656 17.921875 28.148438 17.84375 28.148438 17.746094 L 28.148438 17.382812 C 27.726562 17.308594 27.363281 17.152344 27.035156 16.925781 L 26.710938 17.191406 C 26.671875 17.230469 26.636719 17.25 26.578125 17.25 C 26.519531 17.25 26.5 17.230469 26.460938 17.191406 L 26.078125 16.808594 C 26.003906 16.734375 26.003906 16.617188 26.078125 16.558594 L 26.367188 16.273438 C 26.136719 15.949219 25.964844 15.5625 25.90625 15.164062 L 25.503906 15.164062 C 25.410156 15.164062 25.332031 15.085938 25.332031 14.988281 L 25.332031 14.453125 C 25.332031 14.359375 25.410156 14.28125 25.503906 14.28125 L 25.886719 14.28125 C 25.964844 13.859375 26.117188 13.496094 26.347656 13.171875 L 26.078125 12.84375 C 26.003906 12.769531 26.003906 12.652344 26.078125 12.597656 L 26.460938 12.210938 C 26.5 12.175781 26.539062 12.15625 26.597656 12.15625 C 26.652344 12.15625 26.691406 12.175781 26.730469 12.210938 L 27.019531 12.5 C 27.34375 12.269531 27.726562 12.097656 28.128906 12.039062 L 28.128906 11.636719 C 28.128906 11.542969 28.207031 11.464844 28.300781 11.464844 L 28.835938 11.464844 C 28.933594 11.464844 29.007812 11.542969 29.007812 11.636719 L 29.007812 12.019531 C 29.429688 12.097656 29.792969 12.25 30.121094 12.480469 L 30.40625 12.195312 C 30.445312 12.15625 30.484375 12.136719 30.542969 12.136719 C 30.597656 12.136719 30.636719 12.15625 30.675781 12.195312 L 31.058594 12.578125 C 31.136719 12.652344 31.136719 12.769531 31.058594 12.824219 L 30.773438 13.113281 C 31 13.4375 31.171875 13.820312 31.230469 14.222656 L 31.632812 14.222656 C 31.730469 14.222656 31.804688 14.300781 31.804688 14.394531 L 31.804688 14.96875 Z M 31.824219 14.96875 " fill-opacity="1" fill-rule="nonzero"/></g><path fill="#545454" d="M 28.570312 13.171875 C 27.726562 13.171875 27.035156 13.859375 27.035156 14.703125 C 27.035156 15.546875 27.726562 16.234375 28.570312 16.234375 C 29.410156 16.234375 30.101562 15.546875 30.101562 14.703125 C 30.101562 13.859375 29.410156 13.171875 28.570312 13.171875 Z M 28.570312 15.46875 C 28.148438 15.46875 27.804688 15.125 27.804688 14.703125 C 27.804688 14.28125 28.148438 13.9375 28.570312 13.9375 C 28.992188 13.9375 29.335938 14.28125 29.335938 14.703125 C 29.335938 15.125 28.992188 15.46875 28.570312 15.46875 Z M 28.570312 15.46875 " fill-opacity="1" fill-rule="nonzero"/><g transform="matrix(1, 0, 0, 1, 34, 7)"><g clip-path="url(#87dd2977fb)"><g fill="#545454" fill-opacity="1"><g transform="translate(1.162897, 9.37097)"><g><path d="M 2.640625 0 L 1.421875 0 L 0.15625 -5.515625 L 1.234375 -5.515625 L 2.078125 -1.640625 L 2.171875 -1.640625 L 3.15625 -5.515625 L 4.09375 -5.515625 L 5.09375 -1.640625 L 5.1875 -1.640625 L 6.03125 -5.515625 L 7.078125 -5.515625 L 5.8125 0 L 4.59375 0 L 3.625 -3.5625 L 3.546875 -3.5625 Z M 2.640625 0 "/></g></g></g><g fill="#545454" fill-opacity="1"><g transform="translate(8.273532, 9.37097)"><g><path d="M 4.109375 -1.84375 L 1.4375 -1.84375 C 1.46875 -1.476562 1.570312 -1.210938 1.75 -1.046875 C 1.925781 -0.890625 2.164062 -0.8125 2.46875 -0.8125 C 2.707031 -0.8125 2.898438 -0.851562 3.046875 -0.9375 C 3.203125 -1.03125 3.320312 -1.164062 3.40625 -1.34375 L 3.484375 -1.34375 L 4.1875 -0.90625 C 4.050781 -0.613281 3.84375 -0.375 3.5625 -0.1875 C 3.289062 -0.0078125 2.925781 0.078125 2.46875 0.078125 C 2.039062 0.078125 1.671875 0 1.359375 -0.15625 C 1.046875 -0.320312 0.800781 -0.566406 0.625 -0.890625 C 0.457031 -1.210938 0.375 -1.609375 0.375 -2.078125 C 0.375 -2.554688 0.460938 -2.957031 0.640625 -3.28125 C 0.816406 -3.601562 1.054688 -3.84375 1.359375 -4 C 1.671875 -4.164062 2.015625 -4.25 2.390625 -4.25 C 2.984375 -4.25 3.4375 -4.09375 3.75 -3.78125 C 4.0625 -3.46875 4.21875 -3.007812 4.21875 -2.40625 C 4.21875 -2.1875 4.210938 -2.015625 4.203125 -1.890625 Z M 3.21875 -2.515625 C 3.207031 -2.835938 3.132812 -3.070312 3 -3.21875 C 2.863281 -3.363281 2.660156 -3.4375 2.390625 -3.4375 C 1.859375 -3.4375 1.550781 -3.128906 1.46875 -2.515625 Z M 3.21875 -2.515625 "/></g></g><g transform="translate(12.806042, 9.37097)"><g><path d="M 2.90625 0.078125 C 2.375 0.078125 1.976562 -0.117188 1.71875 -0.515625 L 1.640625 -0.5 L 1.640625 0 L 0.59375 0 L 0.59375 -5.84375 L 1.640625 -5.84375 L 1.640625 -3.671875 L 1.71875 -3.65625 C 1.863281 -3.851562 2.035156 -4 2.234375 -4.09375 C 2.429688 -4.195312 2.664062 -4.25 2.9375 -4.25 C 3.269531 -4.25 3.5625 -4.164062 3.8125 -4 C 4.070312 -3.84375 4.269531 -3.601562 4.40625 -3.28125 C 4.550781 -2.957031 4.625 -2.554688 4.625 -2.078125 C 4.625 -1.609375 4.550781 -1.210938 4.40625 -0.890625 C 4.257812 -0.566406 4.054688 -0.320312 3.796875 -0.15625 C 3.535156 0 3.238281 0.078125 2.90625 0.078125 Z M 2.59375 -0.8125 C 2.90625 -0.8125 3.140625 -0.910156 3.296875 -1.109375 C 3.453125 -1.316406 3.53125 -1.640625 3.53125 -2.078125 C 3.53125 -2.515625 3.453125 -2.835938 3.296875 -3.046875 C 3.140625 -3.253906 2.90625 -3.359375 2.59375 -3.359375 C 2.300781 -3.359375 2.066406 -3.25 1.890625 -3.03125 C 1.722656 -2.820312 1.640625 -2.503906 1.640625 -2.078125 C 1.640625 -1.648438 1.722656 -1.332031 1.890625 -1.125 C 2.066406 -0.914062 2.300781 -0.8125 2.59375 -0.8125 Z M 2.59375 -0.8125 "/></g></g><g transform="translate(17.799742, 9.37097)"><g/></g><g transform="translate(19.625599, 9.37097)"><g><path d="M 2.703125 -5.515625 C 3.597656 -5.515625 4.28125 -5.28125 4.75 -4.8125 C 5.226562 -4.351562 5.46875 -3.671875 5.46875 -2.765625 C 5.46875 -1.847656 5.226562 -1.15625 4.75 -0.6875 C 4.28125 -0.226562 3.597656 0 2.703125 0 L 0.71875 0 L 0.71875 -5.515625 Z M 2.640625 -0.921875 C 3.210938 -0.921875 3.640625 -1.066406 3.921875 -1.359375 C 4.203125 -1.648438 4.34375 -2.117188 4.34375 -2.765625 C 4.34375 -3.410156 4.203125 -3.878906 3.921875 -4.171875 C 3.640625 -4.460938 3.210938 -4.609375 2.640625 -4.609375 L 1.8125 -4.609375 L 1.8125 -0.921875 Z M 2.640625 -0.921875 "/></g></g><g transform="translate(25.534117, 9.37097)"><g><path d="M 4.109375 -1.84375 L 1.4375 -1.84375 C 1.46875 -1.476562 1.570312 -1.210938 1.75 -1.046875 C 1.925781 -0.890625 2.164062 -0.8125 2.46875 -0.8125 C 2.707031 -0.8125 2.898438 -0.851562 3.046875 -0.9375 C 3.203125 -1.03125 3.320312 -1.164062 3.40625 -1.34375 L 3.484375 -1.34375 L 4.1875 -0.90625 C 4.050781 -0.613281 3.84375 -0.375 3.5625 -0.1875 C 3.289062 -0.0078125 2.925781 0.078125 2.46875 0.078125 C 2.039062 0.078125 1.671875 0 1.359375 -0.15625 C 1.046875 -0.320312 0.800781 -0.566406 0.625 -0.890625 C 0.457031 -1.210938 0.375 -1.609375 0.375 -2.078125 C 0.375 -2.554688 0.460938 -2.957031 0.640625 -3.28125 C 0.816406 -3.601562 1.054688 -3.84375 1.359375 -4 C 1.671875 -4.164062 2.015625 -4.25 2.390625 -4.25 C 2.984375 -4.25 3.4375 -4.09375 3.75 -3.78125 C 4.0625 -3.46875 4.21875 -3.007812 4.21875 -2.40625 C 4.21875 -2.1875 4.210938 -2.015625 4.203125 -1.890625 Z M 3.21875 -2.515625 C 3.207031 -2.835938 3.132812 -3.070312 3 -3.21875 C 2.863281 -3.363281 2.660156 -3.4375 2.390625 -3.4375 C 1.859375 -3.4375 1.550781 -3.128906 1.46875 -2.515625 Z M 3.21875 -2.515625 "/></g></g><g transform="translate(30.066628, 9.37097)"><g><path d="M 2.859375 0 L 1.625 0 L 0.078125 -4.171875 L 1.171875 -4.171875 L 2.203125 -1.203125 L 2.296875 -1.203125 L 3.328125 -4.171875 L 4.40625 -4.171875 Z M 2.859375 0 "/></g></g></g><g fill="#545454" fill-opacity="1"><g transform="translate(34.47061, 9.37097)"><g><path d="M 4.109375 -1.84375 L 1.4375 -1.84375 C 1.46875 -1.476562 1.570312 -1.210938 1.75 -1.046875 C 1.925781 -0.890625 2.164062 -0.8125 2.46875 -0.8125 C 2.707031 -0.8125 2.898438 -0.851562 3.046875 -0.9375 C 3.203125 -1.03125 3.320312 -1.164062 3.40625 -1.34375 L 3.484375 -1.34375 L 4.1875 -0.90625 C 4.050781 -0.613281 3.84375 -0.375 3.5625 -0.1875 C 3.289062 -0.0078125 2.925781 0.078125 2.46875 0.078125 C 2.039062 0.078125 1.671875 0 1.359375 -0.15625 C 1.046875 -0.320312 0.800781 -0.566406 0.625 -0.890625 C 0.457031 -1.210938 0.375 -1.609375 0.375 -2.078125 C 0.375 -2.554688 0.460938 -2.957031 0.640625 -3.28125 C 0.816406 -3.601562 1.054688 -3.84375 1.359375 -4 C 1.671875 -4.164062 2.015625 -4.25 2.390625 -4.25 C 2.984375 -4.25 3.4375 -4.09375 3.75 -3.78125 C 4.0625 -3.46875 4.21875 -3.007812 4.21875 -2.40625 C 4.21875 -2.1875 4.210938 -2.015625 4.203125 -1.890625 Z M 3.21875 -2.515625 C 3.207031 -2.835938 3.132812 -3.070312 3 -3.21875 C 2.863281 -3.363281 2.660156 -3.4375 2.390625 -3.4375 C 1.859375 -3.4375 1.550781 -3.128906 1.46875 -2.515625 Z M 3.21875 -2.515625 "/></g></g><g transform="translate(39.00312, 9.37097)"><g><path d="M 1.734375 0.078125 C 1.359375 0.078125 1.070312 -0.0195312 0.875 -0.21875 C 0.675781 -0.425781 0.578125 -0.734375 0.578125 -1.140625 L 0.578125 -5.84375 L 1.625 -5.84375 L 1.625 -1.1875 C 1.625 -0.9375 1.726562 -0.8125 1.9375 -0.8125 C 2 -0.8125 2.0625 -0.820312 2.125 -0.84375 L 2.1875 -0.828125 L 2.28125 -0.015625 C 2.21875 0.015625 2.140625 0.0351562 2.046875 0.046875 C 1.953125 0.0664062 1.847656 0.078125 1.734375 0.078125 Z M 1.734375 0.078125 "/></g></g><g transform="translate(41.399794, 9.37097)"><g><path d="M 2.421875 0.078125 C 2.015625 0.078125 1.65625 -0.00390625 1.34375 -0.171875 C 1.039062 -0.335938 0.800781 -0.582031 0.625 -0.90625 C 0.457031 -1.226562 0.375 -1.617188 0.375 -2.078125 C 0.375 -2.535156 0.457031 -2.925781 0.625 -3.25 C 0.800781 -3.582031 1.039062 -3.832031 1.34375 -4 C 1.65625 -4.164062 2.015625 -4.25 2.421875 -4.25 C 2.828125 -4.25 3.179688 -4.164062 3.484375 -4 C 3.796875 -3.832031 4.035156 -3.582031 4.203125 -3.25 C 4.378906 -2.925781 4.46875 -2.535156 4.46875 -2.078125 C 4.46875 -1.617188 4.378906 -1.226562 4.203125 -0.90625 C 4.035156 -0.582031 3.796875 -0.335938 3.484375 -0.171875 C 3.179688 -0.00390625 2.828125 0.078125 2.421875 0.078125 Z M 2.421875 -0.8125 C 3.066406 -0.8125 3.390625 -1.234375 3.390625 -2.078125 C 3.390625 -2.515625 3.304688 -2.835938 3.140625 -3.046875 C 2.972656 -3.253906 2.734375 -3.359375 2.421875 -3.359375 C 1.773438 -3.359375 1.453125 -2.929688 1.453125 -2.078125 C 1.453125 -1.234375 1.773438 -0.8125 2.421875 -0.8125 Z M 2.421875 -0.8125 "/></g></g><g transform="translate(46.246064, 9.37097)"><g><path d="M 0.59375 1.6875 L 0.59375 -4.171875 L 1.640625 -4.171875 L 1.640625 -3.625 L 1.71875 -3.609375 C 1.84375 -3.816406 2.007812 -3.972656 2.21875 -4.078125 C 2.425781 -4.191406 2.671875 -4.25 2.953125 -4.25 C 3.285156 -4.25 3.578125 -4.164062 3.828125 -4 C 4.078125 -3.84375 4.269531 -3.601562 4.40625 -3.28125 C 4.550781 -2.957031 4.625 -2.554688 4.625 -2.078125 C 4.625 -1.597656 4.546875 -1.195312 4.390625 -0.875 C 4.242188 -0.5625 4.039062 -0.320312 3.78125 -0.15625 C 3.519531 0 3.21875 0.078125 2.875 0.078125 C 2.613281 0.078125 2.390625 0.0351562 2.203125 -0.046875 C 2.015625 -0.140625 1.851562 -0.273438 1.71875 -0.453125 L 1.640625 -0.4375 L 1.640625 1.6875 Z M 2.59375 -0.8125 C 2.90625 -0.8125 3.140625 -0.910156 3.296875 -1.109375 C 3.453125 -1.316406 3.53125 -1.640625 3.53125 -2.078125 C 3.53125 -2.515625 3.453125 -2.835938 3.296875 -3.046875 C 3.140625 -3.253906 2.90625 -3.359375 2.59375 -3.359375 C 2.300781 -3.359375 2.066406 -3.25 1.890625 -3.03125 C 1.722656 -2.820312 1.640625 -2.503906 1.640625 -2.078125 C 1.640625 -1.648438 1.722656 -1.332031 1.890625 -1.125 C 2.066406 -0.914062 2.300781 -0.8125 2.59375 -0.8125 Z M 2.59375 -0.8125 "/></g></g><g transform="translate(51.239764, 9.37097)"><g><path d="M 0.59375 0 L 0.59375 -4.171875 L 1.609375 -4.171875 L 1.609375 -3.609375 L 1.6875 -3.59375 C 1.820312 -3.8125 1.976562 -3.972656 2.15625 -4.078125 C 2.34375 -4.191406 2.578125 -4.25 2.859375 -4.25 C 3.171875 -4.25 3.421875 -4.1875 3.609375 -4.0625 C 3.804688 -3.9375 3.953125 -3.753906 4.046875 -3.515625 L 4.125 -3.515625 C 4.25 -3.765625 4.410156 -3.945312 4.609375 -4.0625 C 4.816406 -4.1875 5.070312 -4.25 5.375 -4.25 C 6.238281 -4.25 6.671875 -3.765625 6.671875 -2.796875 L 6.671875 0 L 5.625 0 L 5.625 -2.671875 C 5.625 -2.910156 5.578125 -3.082031 5.484375 -3.1875 C 5.390625 -3.300781 5.234375 -3.359375 5.015625 -3.359375 C 4.441406 -3.359375 4.15625 -2.972656 4.15625 -2.203125 L 4.15625 0 L 3.109375 0 L 3.109375 -2.671875 C 3.109375 -2.910156 3.0625 -3.082031 2.96875 -3.1875 C 2.875 -3.300781 2.71875 -3.359375 2.5 -3.359375 C 2.226562 -3.359375 2.015625 -3.269531 1.859375 -3.09375 C 1.710938 -2.914062 1.640625 -2.628906 1.640625 -2.234375 L 1.640625 0 Z M 0.59375 0 "/></g></g><g transform="translate(58.452466, 9.37097)"><g><path d="M 4.109375 -1.84375 L 1.4375 -1.84375 C 1.46875 -1.476562 1.570312 -1.210938 1.75 -1.046875 C 1.925781 -0.890625 2.164062 -0.8125 2.46875 -0.8125 C 2.707031 -0.8125 2.898438 -0.851562 3.046875 -0.9375 C 3.203125 -1.03125 3.320312 -1.164062 3.40625 -1.34375 L 3.484375 -1.34375 L 4.1875 -0.90625 C 4.050781 -0.613281 3.84375 -0.375 3.5625 -0.1875 C 3.289062 -0.0078125 2.925781 0.078125 2.46875 0.078125 C 2.039062 0.078125 1.671875 0 1.359375 -0.15625 C 1.046875 -0.320312 0.800781 -0.566406 0.625 -0.890625 C 0.457031 -1.210938 0.375 -1.609375 0.375 -2.078125 C 0.375 -2.554688 0.460938 -2.957031 0.640625 -3.28125 C 0.816406 -3.601562 1.054688 -3.84375 1.359375 -4 C 1.671875 -4.164062 2.015625 -4.25 2.390625 -4.25 C 2.984375 -4.25 3.4375 -4.09375 3.75 -3.78125 C 4.0625 -3.46875 4.21875 -3.007812 4.21875 -2.40625 C 4.21875 -2.1875 4.210938 -2.015625 4.203125 -1.890625 Z M 3.21875 -2.515625 C 3.207031 -2.835938 3.132812 -3.070312 3 -3.21875 C 2.863281 -3.363281 2.660156 -3.4375 2.390625 -3.4375 C 1.859375 -3.4375 1.550781 -3.128906 1.46875 -2.515625 Z M 3.21875 -2.515625 "/></g></g><g transform="translate(62.984976, 9.37097)"><g><path d="M 0.59375 0 L 0.59375 -4.171875 L 1.609375 -4.171875 L 1.609375 -3.546875 L 1.6875 -3.53125 C 1.945312 -4.007812 2.367188 -4.25 2.953125 -4.25 C 3.429688 -4.25 3.78125 -4.113281 4 -3.84375 C 4.226562 -3.582031 4.34375 -3.203125 4.34375 -2.703125 L 4.34375 0 L 3.296875 0 L 3.296875 -2.578125 C 3.296875 -2.859375 3.238281 -3.054688 3.125 -3.171875 C 3.019531 -3.296875 2.84375 -3.359375 2.59375 -3.359375 C 2.300781 -3.359375 2.066406 -3.257812 1.890625 -3.0625 C 1.722656 -2.875 1.640625 -2.570312 1.640625 -2.15625 L 1.640625 0 Z M 0.59375 0 "/></g></g></g><g fill="#545454" fill-opacity="1"><g transform="translate(67.838807, 9.37097)"><g><path d="M 2.875 -1 L 3.140625 -0.21875 C 3.023438 -0.125 2.882812 -0.0507812 2.71875 0 C 2.550781 0.0507812 2.359375 0.078125 2.140625 0.078125 C 1.691406 0.078125 1.347656 -0.0390625 1.109375 -0.28125 C 0.878906 -0.53125 0.765625 -0.890625 0.765625 -1.359375 L 0.765625 -3.34375 L 0.125 -3.34375 L 0.125 -4.171875 L 0.765625 -4.171875 L 0.765625 -4.984375 L 1.8125 -5.15625 L 1.8125 -4.171875 L 2.984375 -4.171875 L 2.984375 -3.34375 L 1.8125 -3.34375 L 1.8125 -1.4375 C 1.8125 -1.226562 1.851562 -1.078125 1.9375 -0.984375 C 2.019531 -0.890625 2.144531 -0.84375 2.3125 -0.84375 C 2.5 -0.84375 2.660156 -0.894531 2.796875 -1 Z M 2.875 -1 "/></g></g></g></g></g></svg>